<?xml version="1.0" standalone="no"?>
<!DOCTYPE svg PUBLIC "-//W3C//DTD SVG 1.1//EN" "http://www.w3.org/Graphics/SVG/1.1/DTD/svg11.dtd" >
<svg xmlns="http://www.w3.org/2000/svg" xmlns:xlink="http://www.w3.org/1999/xlink" version="1.1">
<metadata>
Created by FontForge 20200314 at Sat Sep  2 06:53:03 2017
 By www-data
</metadata>
<defs>
<font id="PingFangSCMedium" horiz-adv-x="1000" >
  <font-face 
    font-family="PingFang SC Medium"
    font-weight="400"
    font-stretch="normal"
    units-per-em="1000"
    panose-1="2 11 4 0 0 0 0 0 0 0"
    ascent="860"
    descent="-140"
    x-height="517"
    cap-height="714"
    bbox="-15 -212 1000 837"
    underline-thickness="64"
    underline-position="-196"
    unicode-range="U+0021-FFE5"
  />
<missing-glyph 
d="M120 714h93l-15 -522h-62zM210 102q17 -17 17 -42q0 -26 -17 -43q-19 -17 -44 -17t-42 17q-18 18 -18 43q0 26 18 42q16 17 42 17q27 0 44 -17z" />
    <glyph glyph-name=".notdef" 
d="M120 714h93l-15 -522h-62zM210 102q17 -17 17 -42q0 -26 -17 -43q-19 -17 -44 -17t-42 17q-18 18 -18 43q0 26 18 42q16 17 42 17q27 0 44 -17z" />
    <glyph glyph-name=".null" horiz-adv-x="0" 
 />
    <glyph glyph-name="nonmarkingreturn" horiz-adv-x="333" 
 />
    <glyph glyph-name="exclam" unicode="!" horiz-adv-x="333" 
d="M120 714h93l-15 -522h-62zM210 102q17 -17 17 -42q0 -26 -17 -43q-19 -17 -44 -17t-42 17q-18 18 -18 43q0 26 18 42q16 17 42 17q27 0 44 -17z" />
    <glyph glyph-name="numbersign" unicode="#" horiz-adv-x="600" 
d="M74 545h114l27 169h66l-27 -169h152l27 169h66l-27 -169h101l-9 -60h-101l-41 -257h113l-9 -60h-113l-27 -168h-67l27 168h-151l-27 -168h-67l27 168h-101l9 60h101l41 257h-113zM204 228h151l41 257h-151z" />
    <glyph glyph-name="dollar" unicode="$" horiz-adv-x="600" 
d="M273 809h50v-82q88 -6 142 -51q60 -51 75 -156h-80q-10 71 -53 106q-32 26 -84 32v-262q102 -37 123 -46q106 -56 106 -160q0 -105 -74 -158q-60 -41 -155 -45v-88h-50v88q-99 6 -154 62q-60 60 -70 179h81q9 -89 48 -130q33 -35 95 -41v277q-58 22 -106 39
q-107 54 -107 159q0 99 71 149q57 43 142 46v82zM323 57q65 5 103 34q44 35 44 97q0 73 -106 114q-28 10 -41 14v-259zM273 414v244q-53 -3 -86 -28q-45 -31 -45 -98t106 -109z" />
    <glyph glyph-name="percent" unicode="%" horiz-adv-x="970" 
d="M862 332q38 -52 38 -137q0 -84 -38 -137q-44 -58 -123 -58q-80 0 -123 58q-38 53 -38 137q0 87 38 137q41 59 123 59q80 0 123 -59zM653 728h64l-400 -742h-65zM354 655q38 -52 38 -137q0 -84 -38 -137q-44 -58 -123 -58q-80 0 -123 58q-38 53 -38 137q0 87 38 137
q41 59 123 59q80 0 123 -59zM672 295q-19 -35 -19 -100q0 -63 19 -98q22 -43 67 -43q44 0 67 44q19 38 19 97q0 61 -19 99q-22 43 -67 43q-46 0 -67 -42zM164 618q-19 -35 -19 -100q0 -63 19 -98q22 -43 67 -43q44 0 67 44q19 38 19 97q0 62 -20 99q-21 43 -66 43
q-46 0 -67 -42z" />
    <glyph glyph-name="ampersand" unicode="&#x26;" horiz-adv-x="726" 
d="M234 640q-26 -20 -26 -63q0 -29 32 -73q13 -18 47 -57q9 6 21 12q93 54 93 117q0 38 -24 62q-26 26 -72 26q-47 0 -71 -24zM221 410q-46 49 -65 79q-29 44 -29 87q0 71 54 113q50 39 126 39t124 -39q52 -40 52 -108q0 -70 -67 -125q-7 -5 -42 -27q-26 -18 -43 -28
l179 -189q38 83 46 206h81q-6 -158 -68 -268l142 -150h-104l-83 88q-90 -102 -232 -102q-108 0 -177 52q-73 57 -73 157t93 167zM470 145l-204 217q-47 -30 -89 -62q-53 -44 -53 -106q0 -60 48 -99q45 -36 117 -36q112 0 181 86z" />
    <glyph glyph-name="quotesingle" unicode="'" horiz-adv-x="260" 
d="M200 631q0 -129 -113 -191l-27 43q78 51 84 129q-8 -2 -16 -2q-25 0 -44 16q-17 16 -17 42q0 28 17 44t44 16q72 0 72 -97z" />
    <glyph glyph-name="parenleft" unicode="(" horiz-adv-x="333" 
d="M275 827q-62 -101 -95 -207q-44 -129 -44 -260t44 -260q32 -105 95 -207h-70q-65 95 -103 206q-44 126 -44 260q0 136 44 262q38 112 103 206h70z" />
    <glyph glyph-name="parenright" unicode=")" horiz-adv-x="333" 
d="M128 827q63 -94 103 -206q44 -130 44 -262q0 -130 -44 -260q-40 -111 -103 -206h-70q61 102 95 207q44 134 44 260t-44 260q-34 106 -95 207h70z" />
    <glyph glyph-name="asterisk" unicode="*" horiz-adv-x="506" 
d="M218 714h70l-7 -195l178 68l22 -66l-184 -55l124 -147l-54 -43l-114 158l-114 -158l-54 43l124 147l-184 55l22 66l179 -68z" />
    <glyph glyph-name="plus" unicode="+" horiz-adv-x="605" 
d="M269 511h68v-218h218v-68h-218v-219h-68v219h-219v68h219v218z" />
    <glyph glyph-name="comma" unicode="," horiz-adv-x="264" 
d="M200 21q0 -129 -113 -191l-27 43q79 52 85 129q-10 -2 -17 -2q-25 0 -43 16q-17 16 -17 42q0 29 16 44q17 16 44 16q72 0 72 -97z" />
    <glyph glyph-name="hyphen" unicode="-" horiz-adv-x="605" 
d="M50 293h505v-68h-505v68z" />
    <glyph glyph-name="period" unicode="." horiz-adv-x="264" 
d="M175 102q18 -16 18 -42t-18 -43q-19 -17 -43 -17t-43 17q-18 18 -18 43q0 26 18 42q17 17 43 17t43 -17z" />
    <glyph glyph-name="slash" unicode="/" horiz-adv-x="500" 
d="M392 820h71l-354 -920h-72z" />
    <glyph glyph-name="zero" unicode="0" horiz-adv-x="600" 
d="M493 615q57 -96 57 -258t-57 -258q-66 -113 -193 -113q-128 0 -193 113q-57 96 -57 258t57 258q64 113 193 113q128 0 193 -113zM162 555q-30 -72 -30 -198q0 -124 30 -198q42 -103 138 -103t138 103q31 76 31 198q0 124 -31 198q-42 103 -138 103t-138 -103z" />
    <glyph glyph-name="one" unicode="1" horiz-adv-x="600" 
d="M361 714v-714h-82v614q-66 -68 -168 -98v82q47 13 100 44q49 30 86 72h64z" />
    <glyph glyph-name="two" unicode="2" horiz-adv-x="600" 
d="M473 671q64 -58 64 -151q0 -92 -70 -168q-41 -43 -148 -115q-136 -91 -156 -164h375v-73h-476q0 99 71 177q46 52 155 127q85 61 112 89q55 60 55 128q0 65 -39 101t-109 36q-75 0 -113 -50q-43 -49 -44 -143h-82q0 119 67 191q66 72 175 72q99 0 163 -57z" />
    <glyph glyph-name="three" unicode="3" horiz-adv-x="600" 
d="M473 676q62 -53 62 -142q0 -121 -117 -160q64 -20 96 -61q36 -42 36 -105q0 -97 -68 -159q-69 -63 -180 -63q-100 0 -166 52q-76 63 -85 183h83q3 -84 56 -128q46 -37 112 -37q76 0 123 44q43 43 43 105q0 64 -42 100q-41 35 -116 35h-58v64h55q71 0 109 32q38 33 38 93
q0 59 -37 93q-38 35 -109 35q-73 0 -112 -38q-41 -38 -49 -111h-81q9 103 76 162q62 58 165 58q104 0 166 -52z" />
    <glyph glyph-name="four" unicode="4" horiz-adv-x="600" 
d="M384 714h77v-485h116v-67h-116v-162h-78v162h-359v78zM380 607l-287 -378h290v378h-3z" />
    <glyph glyph-name="five" unicode="5" horiz-adv-x="600" 
d="M105 714h415v-73h-348l-24 -239h4q30 36 77 54q40 17 91 17q102 0 165 -64q64 -67 64 -181q0 -108 -77 -177q-73 -65 -178 -65q-95 0 -161 51q-74 57 -82 155h81q6 -68 54 -104q43 -32 109 -32q75 0 124 48q49 49 49 123q0 84 -46 132q-43 47 -122 47q-51 0 -91 -22
q-43 -21 -64 -64h-78z" />
    <glyph glyph-name="six" unicode="6" horiz-adv-x="600" 
d="M538 537h-81q-24 122 -148 122q-85 0 -132 -83q-47 -76 -47 -200q0 -13 1 -26h4q28 57 77 86q47 31 111 31q102 0 165 -66q62 -67 62 -170q0 -105 -68 -175q-70 -70 -173 -70q-129 0 -196 97q-62 90 -62 255q0 172 67 278q70 112 192 112q198 0 228 -191zM190 351
q-46 -47 -46 -122q0 -76 44 -123q45 -51 119 -51q71 0 117 49q45 51 45 127q0 75 -44 121q-44 47 -118 47q-70 0 -117 -48z" />
    <glyph glyph-name="seven" unicode="7" horiz-adv-x="600" 
d="M66 714h469v-67l-263 -647h-87l266 639h-385v75z" />
    <glyph glyph-name="eight" unicode="8" horiz-adv-x="600" 
d="M475 670q58 -53 58 -131q0 -57 -27 -96q-31 -43 -85 -62v-2q56 -14 95 -62q42 -51 42 -120q0 -95 -66 -152q-70 -59 -192 -59q-124 0 -192 59q-66 57 -66 152q0 69 42 120q40 49 95 62v2q-56 19 -85 62q-27 39 -27 96q0 79 58 131q62 58 175 58t175 -58zM181 622
q-37 -33 -37 -86q0 -55 33 -88q40 -40 123 -40q81 0 123 40q33 33 33 88q0 52 -37 86q-43 39 -119 39q-77 0 -119 -39zM167 301q-44 -38 -44 -104q0 -65 44 -103q46 -41 133 -41q86 0 134 42q43 40 43 102q0 64 -43 104q-47 43 -134 43t-133 -43z" />
    <glyph glyph-name="nine" unicode="9" horiz-adv-x="600" 
d="M487 632q63 -90 63 -256q0 -168 -67 -278q-73 -112 -192 -112q-199 0 -228 191h81q23 -122 148 -122q82 0 132 83q47 80 47 200l-1 26h-4q-27 -54 -77 -86q-50 -31 -111 -31q-103 0 -166 68q-61 64 -61 168q0 107 68 175q67 70 173 70q129 0 195 -96zM176 610
q-44 -48 -44 -127q0 -77 44 -121q44 -47 118 -47q69 0 117 48q46 49 46 122q0 74 -44 123q-45 51 -119 51q-73 0 -118 -49z" />
    <glyph glyph-name="semicolon" unicode=";" horiz-adv-x="264" 
d="M175 468q18 -16 18 -42t-18 -43q-19 -17 -43 -17t-43 17q-18 18 -18 43q0 26 18 42q17 17 43 17t43 -17zM204 21q0 -129 -113 -191l-27 43q78 51 84 129q-8 -2 -16 -2q-25 0 -44 16q-17 16 -17 42q0 30 17 44q17 16 44 16q72 0 72 -97z" />
    <glyph glyph-name="at" unicode="@" horiz-adv-x="858" 
d="M689 634q84 -85 84 -214q0 -106 -67 -194q-66 -83 -144 -83q-63 0 -69 66q-51 -68 -126 -68q-62 0 -102 43q-39 42 -39 107q0 113 68 193q65 80 155 80q72 0 96 -75l15 56h65l-71 -261q-12 -43 -12 -61q0 -25 28 -25q46 0 93 59q54 69 54 162q0 107 -72 177
q-77 76 -208 76q-138 0 -228 -91q-88 -89 -88 -229q0 -152 89 -234q85 -79 231 -79q105 0 184 38q70 35 111 94h70q-53 -90 -151 -138q-97 -47 -214 -47q-179 0 -283 99q-106 102 -106 269q0 157 106 262q111 112 283 112q157 0 248 -94zM347 439q-51 -63 -51 -151
q0 -41 19 -64q20 -24 57 -24q38 0 74 30t48 70l22 82q10 43 10 48q0 27 -17 47q-19 24 -49 24q-66 0 -113 -62z" />
    <glyph glyph-name="A" unicode="A" horiz-adv-x="657" 
d="M281 714h95l281 -714h-89l-76 200h-328l-76 -200h-88zM190 269h276l-135 357h-4z" />
    <glyph glyph-name="B" unicode="B" horiz-adv-x="677" 
d="M72 714h319q100 0 158 -48q57 -48 57 -132q0 -60 -32 -104q-33 -39 -87 -57q69 -12 109 -58t40 -116q0 -105 -74 -156q-64 -43 -173 -43h-317v714zM154 645v-243h217q74 0 114 31q40 32 40 93q0 60 -39 90q-38 29 -114 29h-218zM154 334v-265h228q72 0 119 28
q53 33 53 103q0 68 -46 102q-42 32 -126 32h-228z" />
    <glyph glyph-name="C" unicode="C" horiz-adv-x="728" 
d="M580 665q81 -63 96 -170h-79q-15 77 -76 120q-58 40 -142 40q-124 0 -192 -87q-63 -81 -63 -214q0 -135 62 -212q66 -83 191 -83q85 0 145 45q64 49 85 141h79q-24 -126 -112 -194q-83 -65 -197 -65q-166 0 -255 110q-80 98 -80 258t82 261q89 113 256 113q119 0 200 -63
z" />
    <glyph glyph-name="D" unicode="D" horiz-adv-x="706" 
d="M72 714h256q170 0 256 -98q80 -91 80 -259q0 -165 -86 -259q-90 -98 -258 -98h-248v714zM154 643v-572h152q139 0 210 74q67 73 67 212q0 143 -62 213q-66 73 -206 73h-161z" />
    <glyph glyph-name="E" unicode="E" horiz-adv-x="637" 
d="M72 714h506v-71h-424v-239h400v-71h-400v-262h441v-71h-523v714z" />
    <glyph glyph-name="F" unicode="F" horiz-adv-x="577" 
d="M72 714h478v-71h-396v-240h375v-71h-375v-332h-82v714z" />
    <glyph glyph-name="G" unicode="G" horiz-adv-x="748" 
d="M590 663q75 -61 94 -178h-82q-16 80 -72 124q-58 46 -153 46q-116 0 -185 -82q-68 -80 -68 -219q0 -135 66 -213q71 -83 210 -83q54 0 112 16q50 14 90 40v182h-224v71h305v-292q-49 -40 -125 -65q-78 -24 -166 -24q-170 0 -263 108q-87 101 -87 260q0 160 86 262
q91 112 249 112q135 0 213 -65z" />
    <glyph glyph-name="H" unicode="H" horiz-adv-x="720" 
d="M72 714h82v-310h413v310h82v-714h-82v333h-413v-333h-82v714z" />
    <glyph glyph-name="I" unicode="I" horiz-adv-x="237" 
d="M78 714h81v-714h-81v714z" />
    <glyph glyph-name="J" unicode="J" horiz-adv-x="517" 
d="M364 714h82v-486q0 -116 -48 -176q-54 -66 -173 -66q-99 0 -154 55q-56 56 -56 162v25h82v-24q0 -145 130 -145q71 0 105 43q32 41 32 129v483z" />
    <glyph glyph-name="K" unicode="K" horiz-adv-x="690" 
d="M538 714h107l-323 -306l368 -408h-110l-315 355l-111 -105v-250h-82v714h82v-371z" />
    <glyph glyph-name="L" unicode="L" horiz-adv-x="588" 
d="M72 714h81v-643h413v-71h-494v714z" />
    <glyph glyph-name="M" unicode="M" horiz-adv-x="882" 
d="M72 714h102l266 -609h3l265 609h102v-714h-82v568h-3l-247 -568h-74l-247 568h-3v-568h-82v714z" />
    <glyph glyph-name="N" unicode="N" horiz-adv-x="719" 
d="M72 714h86l404 -581h3v581h82v-714h-84l-406 587h-3v-587h-82v714z" />
    <glyph glyph-name="O" unicode="O" horiz-adv-x="767" 
d="M637 621q88 -103 88 -265q0 -160 -88 -263q-93 -107 -254 -107q-160 0 -253 107q-88 101 -88 263q0 163 88 264q93 108 254 108t253 -107zM190 570q-66 -81 -66 -214q0 -132 66 -213q69 -84 193 -84q123 0 193 82q67 82 67 215q0 135 -67 217q-69 82 -192 82
q-124 0 -194 -85z" />
    <glyph glyph-name="P" unicode="P" horiz-adv-x="642" 
d="M72 714h292q246 0 246 -210q0 -212 -247 -212h-209v-292h-82v714zM154 643v-280h205q85 0 128 35q41 35 41 106q0 73 -42 104q-41 35 -127 35h-205z" />
    <glyph glyph-name="Q" unicode="Q" horiz-adv-x="767" 
d="M637 621q88 -103 88 -265q0 -160 -88 -263q-4 -4 -5 -6q34 -44 82 -113l-54 -47q-49 70 -82 114q-82 -55 -195 -55q-160 0 -253 107q-88 101 -88 263q0 163 88 264q93 108 254 108t253 -107zM190 570q-66 -81 -66 -214q0 -132 66 -213q69 -84 193 -84q89 0 149 42
q-62 79 -120 140l49 47q69 -74 122 -139q60 80 60 207q0 135 -67 217q-69 82 -192 82q-124 0 -194 -85z" />
    <glyph glyph-name="R" unicode="R" horiz-adv-x="676" 
d="M72 714h308q107 0 168 -49q64 -52 64 -150q0 -59 -33 -106q-35 -47 -97 -62v-2q102 -23 114 -130l11 -110q6 -65 38 -105h-89q-25 37 -29 95l-9 95q-6 64 -45 91q-35 26 -103 26h-216v-307h-82v714zM154 643v-265h216q78 0 121 37q38 35 38 97q0 66 -37 98
q-39 33 -122 33h-216z" />
    <glyph glyph-name="S" unicode="S" horiz-adv-x="632" 
d="M502 673q71 -57 82 -170h-81q-13 77 -60 115t-135 38q-81 0 -124 -26q-51 -30 -51 -91q0 -54 61 -87q26 -15 131 -45q141 -42 186 -69q89 -54 89 -151q0 -94 -75 -148q-76 -53 -202 -53t-198 54q-84 65 -93 196h81q11 -93 65 -137q51 -40 145 -40q88 0 142 33t54 90
q0 67 -71 105q-27 16 -151 52q-126 38 -164 58q-82 48 -82 138q0 94 79 145q71 48 182 48q122 0 190 -55z" />
    <glyph glyph-name="T" unicode="T" horiz-adv-x="619" 
d="M17 714h585v-71h-252v-643h-81v643h-252v71z" />
    <glyph glyph-name="U" unicode="U" horiz-adv-x="714" 
d="M72 714h82v-441q0 -106 47 -159q50 -56 156 -56q105 0 156 56q47 55 47 159v441h82v-440q0 -139 -71 -213q-73 -75 -214 -75t-213 74q-72 75 -72 214v440z" />
    <glyph glyph-name="V" unicode="V" horiz-adv-x="639" 
d="M5 714h90l223 -625h3l223 625h90l-264 -714h-101z" />
    <glyph glyph-name="W" unicode="W" horiz-adv-x="930" 
d="M5 714h92l157 -599h4l163 599h89l162 -599h4l157 599h92l-205 -714h-91l-162 595h-3l-163 -595h-91z" />
    <glyph glyph-name="X" unicode="X" horiz-adv-x="637" 
d="M24 714h101l193 -278l194 278h101l-246 -343l265 -371h-101l-213 306l-212 -306h-101l263 371z" />
    <glyph glyph-name="Y" unicode="Y" horiz-adv-x="662" 
d="M5 714h99l227 -348l227 348h99l-285 -424v-290h-82v290z" />
    <glyph glyph-name="Z" unicode="Z" horiz-adv-x="624" 
d="M55 714h520v-68l-444 -575h468v-71h-574v67l445 576h-415v71z" />
    <glyph glyph-name="bracketleft" unicode="[" horiz-adv-x="333" 
d="M44 827h245v-67h-171v-800h171v-67h-245v934z" />
    <glyph glyph-name="bracketright" unicode="]" horiz-adv-x="333" 
d="M44 827h245v-934h-245v67h171v800h-171v67z" />
    <glyph glyph-name="asciicircum" unicode="^" horiz-adv-x="518" 
d="M221 714h76l161 -344h-67l-132 275l-132 -275h-67z" />
    <glyph glyph-name="underscore" unicode="_" horiz-adv-x="500" 
d="M0 -73h500v-67h-500v67z" />
    <glyph glyph-name="a" unicode="a" horiz-adv-x="559" 
d="M451 473q46 -52 46 -141v-332h-75v87q-31 -43 -80 -70q-59 -31 -128 -31q-78 0 -124 40q-48 41 -48 109q0 99 79 144q64 38 172 38l124 1v17q0 130 -135 130q-63 0 -98 -26q-39 -27 -48 -80h-79q12 89 76 132q56 40 154 40q110 0 164 -58zM417 255l-119 -1
q-174 0 -174 -118q0 -38 28 -62q29 -23 79 -23q78 0 133 48q53 48 53 111v45z" />
    <glyph glyph-name="b" unicode="b" horiz-adv-x="586" 
d="M62 728h80v-306q60 109 171 109t173 -83q58 -76 58 -188q0 -116 -58 -192q-65 -82 -177 -82q-119 0 -172 99v-85h-75v728zM183 409q-44 -54 -44 -146v-10q0 -87 39 -141q42 -60 121 -60q83 0 126 61q37 56 37 147q0 93 -39 145q-43 60 -127 60q-72 0 -113 -56z" />
    <glyph glyph-name="c" unicode="c" horiz-adv-x="547" 
d="M439 486q59 -46 73 -141h-79q-10 60 -48 90q-38 29 -100 29q-75 0 -119 -57q-42 -55 -42 -150q0 -96 41 -149q41 -55 119 -55q133 0 151 134h80q-18 -101 -77 -151t-154 -50q-116 0 -181 78q-61 73 -61 192t61 193q66 82 182 82q96 0 154 -45z" />
    <glyph glyph-name="d" unicode="d" horiz-adv-x="586" 
d="M444 728h80v-728h-75v85q-54 -99 -172 -99q-113 0 -177 82q-58 74 -58 192q0 114 58 188q62 83 173 83t171 -109v306zM162 405q-38 -51 -38 -145t37 -147q43 -61 126 -61q78 0 121 60q38 55 38 141v10q0 89 -43 146q-43 56 -113 56q-86 0 -128 -60z" />
    <glyph glyph-name="e" unicode="e" horiz-adv-x="555" 
d="M463 447q57 -75 60 -211h-408q6 -88 47 -135q42 -48 116 -48q63 0 103 32q32 26 52 81h80q-18 -74 -70 -122q-66 -58 -165 -58q-111 0 -178 73q-68 74 -68 200q0 116 65 191q66 81 178 81q125 0 188 -84zM166 419q-41 -44 -49 -121h323q-15 166 -163 166q-69 0 -111 -45z
" />
    <glyph glyph-name="f" unicode="f" horiz-adv-x="373" 
d="M368 714v-69h-89q-35 0 -49 -17q-15 -16 -15 -54v-57h146v-67h-146v-450h-80v450h-130v67h130v59q0 65 33 101q34 37 101 37h99z" />
    <glyph glyph-name="g" unicode="g" horiz-adv-x="591" 
d="M449 428v89h80v-481q0 -248 -236 -248q-106 0 -160 42q-55 42 -69 126h80q9 -53 44 -77q35 -26 105 -26q156 0 156 172v91q-57 -104 -174 -104q-108 0 -171 74q-62 71 -62 184q0 114 62 185q63 76 171 76q117 0 174 -103zM166 409q-42 -51 -42 -139q0 -83 37 -133
q43 -58 125 -58q77 0 122 54q42 53 42 137q0 88 -42 139q-44 56 -121 56q-78 0 -121 -56z" />
    <glyph glyph-name="h" unicode="h" horiz-adv-x="556" 
d="M62 728h80v-296q27 50 72 75q42 24 94 24q92 0 139 -53q48 -52 48 -152v-326h-80v314q0 71 -34 111q-36 39 -100 39q-60 0 -99 -48q-40 -47 -40 -121v-295h-80v728z" />
    <glyph glyph-name="i" unicode="i" horiz-adv-x="256" 
d="M171 695q18 -15 18 -42q0 -25 -18 -43q-19 -17 -43 -17t-43 17q-17 17 -17 43q0 28 17 42q17 17 43 17t43 -17zM88 517h80v-517h-80v517z" />
    <glyph glyph-name="j" unicode="j" horiz-adv-x="267" 
d="M182 695q17 -15 17 -42q0 -24 -17 -43q-19 -17 -44 -17q-24 0 -43 17q-17 17 -17 43q0 28 17 42q17 17 43 17q27 0 44 -17zM98 517h80v-577q0 -138 -145 -138h-48v67h42q71 0 71 74v574z" />
    <glyph glyph-name="k" unicode="k" horiz-adv-x="529" 
d="M62 728h80v-451l259 240h106l-228 -208l250 -309h-103l-202 257l-82 -74v-183h-80v728z" />
    <glyph glyph-name="l" unicode="l" horiz-adv-x="235" 
d="M78 728h79v-728h-79v728z" />
    <glyph glyph-name="m" unicode="m" horiz-adv-x="855" 
d="M450 433q30 52 72 74q38 24 91 24q80 0 131 -51q49 -54 49 -141v-339h-80v326q0 68 -29 102q-29 35 -96 35q-53 0 -85 -38q-35 -38 -35 -101v-324h-80v326q0 137 -119 137q-56 0 -91 -44q-36 -42 -36 -104v-315h-80v517h80v-69q58 83 146 83q119 0 162 -98z" />
    <glyph glyph-name="n" unicode="n" horiz-adv-x="559" 
d="M497 318v-318h-80v312q0 151 -136 151q-54 0 -93 -39q-41 -41 -46 -112v-312h-80v517h80v-76q27 44 69 66q42 24 93 24q193 0 193 -213z" />
    <glyph glyph-name="o" unicode="o" horiz-adv-x="586" 
d="M478 451q66 -76 66 -193q0 -115 -65 -191q-70 -81 -186 -81t-185 81q-66 75 -66 191q0 117 66 193q68 80 185 80t185 -80zM165 401q-41 -56 -41 -143q0 -86 41 -142q45 -63 128 -63q81 0 129 63q41 58 41 142q0 85 -41 143q-48 63 -129 63q-83 0 -128 -63z" />
    <glyph glyph-name="p" unicode="p" horiz-adv-x="586" 
d="M485 448q59 -76 59 -191q0 -113 -58 -189q-64 -82 -173 -82q-111 0 -171 108v-292h-80v715h75v-85q56 99 172 99q112 0 176 -83zM178 404q-39 -54 -39 -142v-10q0 -91 44 -145q43 -55 113 -55q83 0 127 58q39 54 39 147q0 91 -37 146q-43 62 -126 62q-79 0 -121 -61z" />
    <glyph glyph-name="q" unicode="q" horiz-adv-x="586" 
d="M449 432v85h75v-715h-80v292q-60 -108 -171 -108q-110 0 -174 82q-57 75 -57 189q0 117 58 191q62 83 177 83t172 -99zM161 403q-37 -53 -37 -146t39 -147q43 -58 127 -58q69 0 113 55q43 57 43 145v10q0 87 -38 142q-43 61 -121 61q-85 0 -126 -62z" />
    <glyph glyph-name="r" unicode="r" horiz-adv-x="365" 
d="M360 519v-80q-36 11 -77 11q-61 0 -101 -53q-41 -50 -41 -123v-274h-79v517h79v-90q21 46 54 71q41 33 94 33q43 0 71 -12z" />
    <glyph glyph-name="s" unicode="s" horiz-adv-x="505" 
d="M457 370h-78q-11 50 -40 70q-33 24 -95 24q-55 0 -84 -20q-33 -19 -33 -54q0 -34 44 -56q25 -12 107 -34q92 -22 133 -48q62 -39 62 -106q0 -160 -219 -160q-204 0 -222 179h78q9 -60 43 -88q33 -24 99 -24q139 0 139 88q0 43 -49 67q-25 12 -110 33q-93 23 -128 46
q-59 35 -59 101q0 65 58 104q54 39 142 39q191 0 212 -161z" />
    <glyph glyph-name="t" unicode="t" horiz-adv-x="355" 
d="M200 684v-167h128v-67h-128v-329q0 -30 11 -41q11 -13 38 -13h66v-67h-78q-64 0 -91 33q-25 29 -25 88v329h-104v67h104v134z" />
    <glyph glyph-name="u" unicode="u" horiz-adv-x="560" 
d="M62 517h80v-316q0 -75 31 -110q32 -37 102 -37q50 0 92 40q42 42 51 108v315h80v-517h-80v80q-64 -94 -168 -94q-188 0 -188 211v320z" />
    <glyph glyph-name="v" unicode="v" horiz-adv-x="482" 
d="M5 517h88l148 -417l148 417h88l-196 -517h-81z" />
    <glyph glyph-name="w" unicode="w" horiz-adv-x="755" 
d="M5 517h88l127 -419l120 419h75l120 -419l127 419h88l-176 -517h-76l-120 416l-122 -416h-75z" />
    <glyph glyph-name="x" unicode="x" horiz-adv-x="509" 
d="M27 517h94l134 -184l133 184h94l-183 -243l205 -274h-95l-154 215l-155 -215h-95l205 274z" />
    <glyph glyph-name="y" unicode="y" horiz-adv-x="496" 
d="M5 517h87l158 -408l153 408h88l-283 -715h-87l89 210z" />
    <glyph glyph-name="z" unicode="z" horiz-adv-x="487" 
d="M35 517h411v-56l-317 -394h333v-67h-437v58l316 392h-306v67z" />
    <glyph glyph-name="degree" unicode="&#xb0;" horiz-adv-x="331" 
d="M252 793q37 -37 37 -87t-37 -87q-36 -36 -87 -36t-87 36t-36 87t36 87q36 37 87 37t87 -37zM111 761q-23 -22 -23 -55q0 -32 23 -54q23 -23 54 -23q30 0 55 23q22 24 22 54q0 31 -22 55q-23 22 -55 22t-54 -22z" />
    <glyph glyph-name="periodcentered" unicode="&#xb7;" horiz-adv-x="500" 
d="M301 412q22 -22 22 -52q0 -29 -22 -51q-21 -21 -51 -21t-51 21q-22 21 -22 51q0 31 22 52q21 21 51 21t51 -21z" />
    <glyph glyph-name="Lambda" unicode="&#x39b;" horiz-adv-x="639" 
d="M271 714h97l266 -714h-87l-227 621h-1l-227 -621h-87z" />
    <glyph glyph-name="emdash" unicode="&#x2014;" 
d="M0 394h1000v-68h-1000v68z" />
    <glyph glyph-name="quoteleft" unicode="&#x2018;" horiz-adv-x="340" 
d="M260 794q-79 -49 -84 -129q4 2 16 2q27 0 44 -16q17 -15 17 -42t-17 -44q-19 -16 -44 -16q-72 0 -72 97q0 132 113 191z" />
    <glyph glyph-name="quoteright" unicode="&#x2019;" horiz-adv-x="340" 
d="M220 740q0 -129 -113 -191l-27 43q78 51 84 129q-8 -2 -16 -2q-25 0 -44 16q-17 16 -17 42q0 28 17 44q16 16 44 16q72 0 72 -97z" />
    <glyph glyph-name="bullet" unicode="&#x2022;" horiz-adv-x="500" 
d="M368 477q48 -48 48 -117q0 -68 -48 -118q-49 -48 -118 -48t-117 48q-48 50 -48 118q0 69 48 117t117 48t118 -48z" />
    <glyph glyph-name="ellipsis" unicode="&#x2026;" 
d="M210 102q17 -17 17 -42q0 -26 -17 -43q-19 -17 -44 -17t-42 17q-18 18 -18 43q0 26 18 42q16 17 42 17q27 0 44 -17zM544 102q17 -17 17 -42q0 -26 -17 -43q-19 -17 -44 -17q-24 0 -43 17q-17 17 -17 43t17 42q17 17 43 17q27 0 44 -17zM876 102q18 -16 18 -42t-18 -43
q-19 -17 -43 -17t-43 17q-17 17 -17 43t17 42q17 17 43 17t43 -17z" />
    <glyph glyph-name="uni2162" unicode="&#x2162;" 
d="M201 714h81v-714h-81v714zM459 714h82v-714h-82v714zM718 714h81v-714h-81v714z" />
    <glyph glyph-name="uni2EA0" unicode="&#x2ea0;" 
d="M222 275v-274q126 26 263 73l17 -69q-148 -47 -355 -88l-19 67q22 13 22 36v759h715v-294h-282q5 -68 19 -140h326v-70h-310q11 -43 25 -75q50 -113 104 -164q53 -46 96 -48q16 0 30 28q15 30 24 132l64 -35q-18 -126 -44 -163q-24 -37 -59 -39q-69 2 -144 69
q-74 68 -131 197q-18 41 -34 98h-327zM222 485v-140h311q-14 62 -22 140h-289zM795 710h-573v-157h573v157z" />
    <glyph glyph-name="uni2EA0" unicode="&#x6c11;" 
d="M222 275v-274q126 26 263 73l17 -69q-148 -47 -355 -88l-19 67q22 13 22 36v759h715v-294h-282q5 -68 19 -140h326v-70h-310q11 -43 25 -75q50 -113 104 -164q53 -46 96 -48q16 0 30 28q15 30 24 132l64 -35q-18 -126 -44 -163q-24 -37 -59 -39q-69 2 -144 69
q-74 68 -131 197q-18 41 -34 98h-327zM222 485v-140h311q-14 62 -22 140h-289zM795 710h-573v-157h573v157z" />
    <glyph glyph-name="uni2EC4" unicode="&#x2ec4;" 
d="M54 774h892v-70h-302v-153h244v-645h-72v45h-630v-45h-72v645h238v153h-298v70zM186 19h630v159h-145q-98 0 -98 98v207h-150v-20q-3 -236 -165 -346l-56 49q147 93 150 297v20h-166v-464zM423 704v-153h150v153h-150zM644 483v-192q0 -47 46 -47h126v239h-172z" />
    <glyph glyph-name="uni2EC4" unicode="&#x897f;" 
d="M54 774h892v-70h-302v-153h244v-645h-72v45h-630v-45h-72v645h238v153h-298v70zM186 19h630v159h-145q-98 0 -98 98v207h-150v-20q-3 -236 -165 -346l-56 49q147 93 150 297v20h-166v-464zM423 704v-153h150v153h-150zM644 483v-192q0 -47 46 -47h126v239h-172z" />
    <glyph glyph-name="uni2EC5" unicode="&#x2ec5;" 
d="M789 775v-550h-73v480h-444v-481h-72v551h589zM452 638h71v-188q-6 -223 -107 -357q-97 -124 -321 -195l-39 61q222 69 309 183q81 118 87 308v188zM612 -81q-95 0 -95 110v268h71v-255q0 -55 44 -55h157q25 0 42 14q22 20 28 137l69 -22q-14 -142 -42 -172
q-26 -23 -78 -25h-196z" />
    <glyph glyph-name="uni2EC5" unicode="&#x89c1;" 
d="M789 775v-550h-73v480h-444v-481h-72v551h589zM452 638h71v-188q-6 -223 -107 -357q-97 -124 -321 -195l-39 61q222 69 309 183q81 118 87 308v188zM612 -81q-95 0 -95 110v268h71v-255q0 -55 44 -55h157q25 0 42 14q22 20 28 137l69 -22q-14 -142 -42 -172
q-26 -23 -78 -25h-196z" />
    <glyph glyph-name="uni2EC6" unicode="&#x2ec6;" 
d="M247 312v-17q-2 -59 -7 -102h242v119h-235zM229 129q-30 -136 -108 -233l-55 50q107 134 110 344v238q-34 -25 -82 -56l-46 55q192 114 312 297l72 -16q-12 -20 -49 -72h373v-53q-70 -67 -136 -114h259v-575q0 -89 -98 -89h-128l-18 67q90 -4 125 -4q49 0 49 51v110h-256
v-211h-71v211h-253zM809 193v119h-256v-119h256zM809 376v128h-256v-128h256zM517 569q77 49 140 104h-325q-49 -54 -106 -104h291zM482 504h-235v-128h235v128z" />
    <glyph glyph-name="uni2EC6" unicode="&#x89d2;" 
d="M247 312v-17q-2 -59 -7 -102h242v119h-235zM229 129q-30 -136 -108 -233l-55 50q107 134 110 344v238q-34 -25 -82 -56l-46 55q192 114 312 297l72 -16q-12 -20 -49 -72h373v-53q-70 -67 -136 -114h259v-575q0 -89 -98 -89h-128l-18 67q90 -4 125 -4q49 0 49 51v110h-256
v-211h-71v211h-253zM809 193v119h-256v-119h256zM809 376v128h-256v-128h256zM517 569q77 49 140 104h-325q-49 -54 -106 -104h291zM482 504h-235v-128h235v128z" />
    <glyph glyph-name="uni2EC9" unicode="&#x2ec9;" 
d="M794 776v-600h-74v530h-435v-534h-74v604h583zM464 627h74v-240q-6 -195 -103 -313q-94 -110 -306 -170l-40 63q211 59 293 156q77 101 82 264v240zM579 158q183 -80 332 -192l-41 -63q-163 128 -329 199z" />
    <glyph glyph-name="uni2EC9" unicode="&#x8d1d;" 
d="M794 776v-600h-74v530h-435v-534h-74v604h583zM464 627h74v-240q-6 -195 -103 -313q-94 -110 -306 -170l-40 63q211 59 293 156q77 101 82 264v240zM579 158q183 -80 332 -192l-41 -63q-163 128 -329 199z" />
    <glyph glyph-name="uni2ECB" unicode="&#x2ecb;" 
d="M88 688h235q31 67 56 134l72 -16q-19 -49 -50 -118h510v-70h-545q-68 -128 -148 -226h258v147h73v-147h308v-66h-308v-147h379v-70h-379v-215h-73v215h-403v70h403v147h-333l-16 66q87 90 161 226h-200v70z" />
    <glyph glyph-name="uni2ECB" unicode="&#x8f66;" 
d="M88 688h235q31 67 56 134l72 -16q-19 -49 -50 -118h510v-70h-545q-68 -128 -148 -226h258v147h73v-147h308v-66h-308v-147h379v-70h-379v-215h-73v215h-403v70h403v147h-333l-16 66q87 90 161 226h-200v70z" />
    <glyph glyph-name="uni2ED3" unicode="&#x2ed3;" 
d="M61 429h203v383h72v-383h606v-70h-329q63 -240 341 -375l-42 -67q-302 160 -368 442h-208v-362q114 27 224 69l19 -68q-147 -51 -315 -90l-23 66q23 12 23 35v350h-203v70zM839 755q-119 -134 -361 -243l-43 57q238 105 355 235z" />
    <glyph glyph-name="uni2ED3" unicode="&#x957f;" 
d="M61 429h203v383h72v-383h606v-70h-329q63 -240 341 -375l-42 -67q-302 160 -368 442h-208v-362q114 27 224 69l19 -68q-147 -51 -315 -90l-23 66q23 12 23 35v350h-203v70zM839 755q-119 -134 -361 -243l-43 57q238 105 355 235z" />
    <glyph glyph-name="uni2ED4" unicode="&#x2ed4;" 
d="M714 -92l-18 67l89 -2q44 0 44 57v669h-384v66h454v-755q0 -102 -99 -102h-86zM99 651h70v-752h-70v752zM244 826q73 -87 124 -181l-65 -34q-59 108 -125 186z" />
    <glyph glyph-name="uni2ED4" unicode="&#x95e8;" 
d="M714 -92l-18 67l89 -2q44 0 44 57v669h-384v66h454v-755q0 -102 -99 -102h-86zM99 651h70v-752h-70v752zM244 826q73 -87 124 -181l-65 -34q-59 108 -125 186z" />
    <glyph glyph-name="uni2ED8" unicode="&#x2ed8;" 
d="M104 754h359v65h74v-65h361v-60h-361v-68h322v-58h-322v-70h402v-61h-878v61h402v70h-320v58h320v68h-359v60zM615 -94l-17 64l106 -3q47 0 47 46v49h-500v-162h-71v477h642v-379q0 -92 -96 -92h-111zM251 117h500v72h-500v-72zM251 245h500v73h-500v-73z" />
    <glyph glyph-name="uni2ED8" unicode="&#x9752;" 
d="M104 754h359v65h74v-65h361v-60h-361v-68h322v-58h-322v-70h402v-61h-878v61h402v70h-320v58h320v68h-359v60zM615 -94l-17 64l106 -3q47 0 47 46v49h-500v-162h-71v477h642v-379q0 -92 -96 -92h-111zM251 117h500v72h-500v-72zM251 245h500v73h-500v-73z" />
    <glyph glyph-name="uni2EDA" unicode="&#x2eda;" 
d="M809 598v-473h-72v403h-478v-405h-72v475h253q14 50 22 109h-402v68h880v-68h-402q-10 -66 -23 -109h294zM566 123q199 -68 353 -158l-44 -68q-173 108 -349 167zM463 468h74v-159q-6 -163 -106 -263q-95 -91 -315 -142l-41 64q218 48 303 127q80 82 85 214v159z" />
    <glyph glyph-name="uni2EDA" unicode="&#x9875;" 
d="M809 598v-473h-72v403h-478v-405h-72v475h253q14 50 22 109h-402v68h880v-68h-402q-10 -66 -23 -109h294zM566 123q199 -68 353 -158l-44 -68q-173 108 -349 167zM463 468h74v-159q-6 -163 -106 -263q-95 -91 -315 -142l-41 64q218 48 303 127q80 82 85 214v159z" />
    <glyph glyph-name="uni2EDB" unicode="&#x2edb;" 
d="M337 588q93 -116 161 -207q60 112 96 242l71 -12q-45 -162 -120 -294q90 -127 156 -239l-65 -44q-68 117 -134 215q-93 -136 -221 -232l-48 61q136 104 224 236q-74 106 -179 238zM159 777h647v-400q0 -250 17 -315q17 -68 40 -68q19 0 33 137l64 -31q-18 -112 -39 -154
q-22 -36 -50 -36q-71 0 -104 94q-35 89 -35 373v330h-501v-318q-3 -290 -122 -489l-60 49q106 176 110 440v388z" />
    <glyph glyph-name="uni2EDB" unicode="&#x98ce;" 
d="M337 588q93 -116 161 -207q60 112 96 242l71 -12q-45 -162 -120 -294q90 -127 156 -239l-65 -44q-68 117 -134 215q-93 -136 -221 -232l-48 61q136 104 224 236q-74 106 -179 238zM159 777h647v-400q0 -250 17 -315q17 -68 40 -68q19 0 33 137l64 -31q-18 -112 -39 -154
q-22 -36 -50 -36q-71 0 -104 94q-35 89 -35 373v330h-501v-318q-3 -290 -122 -489l-60 49q106 176 110 440v388z" />
    <glyph glyph-name="uni2EDC" unicode="&#x2edc;" 
d="M898 614q-116 -98 -260 -161v-2q152 -64 287 -158l-42 -63q-117 92 -240 150q14 -190 49 -262q57 -122 133 -125q21 2 36 31q15 30 24 133l69 -23q-15 -131 -58 -187q-34 -31 -67 -31q-115 2 -191 147q-78 149 -78 624h-523v72h595v-70q0 -88 3 -165q122 59 222 147z" />
    <glyph glyph-name="uni2EDC" unicode="&#x98de;" 
d="M898 614q-116 -98 -260 -161v-2q152 -64 287 -158l-42 -63q-117 92 -240 150q14 -190 49 -262q57 -122 133 -125q21 2 36 31q15 30 24 133l69 -23q-15 -131 -58 -187q-34 -31 -67 -31q-115 2 -191 147q-78 149 -78 624h-523v72h595v-70q0 -88 3 -165q122 59 222 147z" />
    <glyph glyph-name="uni2EE2" unicode="&#x2ee2;" 
d="M73 191h625v-70h-625v70zM691 707h-540v70h622l-51 -383h199q-17 -340 -55 -408q-41 -68 -167 -68q-50 0 -119 3l-19 69q88 -7 138 -7q78 0 105 45q26 43 40 296h-631l65 320l73 -7l-46 -243h341z" />
    <glyph glyph-name="uni2EE2" unicode="&#x9a6c;" 
d="M73 191h625v-70h-625v70zM691 707h-540v70h622l-51 -383h199q-17 -340 -55 -408q-41 -68 -167 -68q-50 0 -119 3l-19 69q88 -7 138 -7q78 0 105 45q26 43 40 296h-631l65 320l73 -7l-46 -243h341z" />
    <glyph glyph-name="uni2EE5" unicode="&#x2ee5;" 
d="M193 532q-39 -30 -94 -66l-46 56q189 115 308 296l73 -16q-24 -39 -51 -75h347v-55q-50 -66 -103 -116h209v-430h-643v406zM535 556q55 49 103 105h-309q-48 -55 -107 -105h313zM765 195v116h-216v-116h216zM476 195v116h-211v-116h211zM265 377h211v110h-211v-110z
M549 487v-110h216v110h-216zM86 14h844v-70h-844v70z" />
    <glyph glyph-name="uni2EE5" unicode="&#x9c7c;" 
d="M193 532q-39 -30 -94 -66l-46 56q189 115 308 296l73 -16q-24 -39 -51 -75h347v-55q-50 -66 -103 -116h209v-430h-643v406zM535 556q55 49 103 105h-309q-48 -55 -107 -105h313zM765 195v116h-216v-116h216zM476 195v116h-211v-116h211zM265 377h211v110h-211v-110z
M549 487v-110h216v110h-216zM86 14h844v-70h-844v70z" />
    <glyph glyph-name="uni2EE8" unicode="&#x2ee8;" 
d="M463 821h74v-86h346v-66h-346v-86h300v-63h-300v-84h401v-66h-513q-23 -43 -48 -76h422v-58q-86 -102 -209 -176q152 -63 352 -90l-34 -69q-229 36 -393 118q-174 -85 -414 -124l-33 67q214 30 373 97q-92 56 -162 131q-64 -54 -147 -99l-47 62q182 92 261 217h-284v66
h401v84h-300v63h300v86h-347v66h347v86zM333 227q74 -77 183 -133q104 56 186 133h-369z" />
    <glyph glyph-name="uni2EE8" unicode="&#x9ea6;" 
d="M463 821h74v-86h346v-66h-346v-86h300v-63h-300v-84h401v-66h-513q-23 -43 -48 -76h422v-58q-86 -102 -209 -176q152 -63 352 -90l-34 -69q-229 36 -393 118q-174 -85 -414 -124l-33 67q214 30 373 97q-92 56 -162 131q-64 -54 -147 -99l-47 62q182 92 261 217h-284v66
h401v84h-300v63h300v86h-347v66h347v86zM333 227q74 -77 183 -133q104 56 186 133h-369z" />
    <glyph glyph-name="uni2EE9" unicode="&#x2ee9;" 
d="M114 730h205v85h69v-85h220v86h69v-86h213v-64h-213v-90h266v-65h-408v-77h294v-349h-658v349h294v77h-407v65h261v90h-205v64zM608 576v90h-220v-90h220zM759 147v84h-224v-84h224zM465 147v84h-224v-84h224zM241 291h224v82h-224v-82zM535 373v-82h224v82h-224zM620 73
q172 -44 324 -112l-38 -60q-156 77 -321 120zM404 31q-126 -78 -317 -129l-30 63q185 44 305 114z" />
    <glyph glyph-name="uni2EE9" unicode="&#x9ec4;" 
d="M114 730h205v85h69v-85h220v86h69v-86h213v-64h-213v-90h266v-65h-408v-77h294v-349h-658v349h294v77h-407v65h261v90h-205v64zM608 576v90h-220v-90h220zM759 147v84h-224v-84h224zM465 147v84h-224v-84h224zM241 291h224v82h-224v-82zM535 373v-82h224v82h-224zM620 73
q172 -44 324 -112l-38 -60q-156 77 -321 120zM404 31q-126 -78 -317 -129l-30 63q185 44 305 114z" />
    <glyph glyph-name="uni2EEC" unicode="&#x2eec;" 
d="M661 303h72v-401h-72v401zM78 717h385q-21 50 -48 90l79 12q24 -49 44 -102h383v-70h-160q-74 -114 -205 -192q159 -63 405 -72l-24 -67q-274 14 -451 100l-1 1q-167 -77 -411 -109l-28 65q222 24 371 82q-116 76 -191 192h-148v70zM299 647q64 -91 189 -160
q128 64 194 160h-383zM264 302h73v-74q-3 -130 -57 -210q-54 -73 -174 -114l-40 63q108 36 154 98q41 61 44 163v74z" />
    <glyph glyph-name="uni2EEC" unicode="&#x9f50;" 
d="M661 303h72v-401h-72v401zM78 717h385q-21 50 -48 90l79 12q24 -49 44 -102h383v-70h-160q-74 -114 -205 -192q159 -63 405 -72l-24 -67q-274 14 -451 100l-1 1q-167 -77 -411 -109l-28 65q222 24 371 82q-116 76 -191 192h-148v70zM299 647q64 -91 189 -160
q128 64 194 160h-383zM264 302h73v-74q-3 -130 -57 -210q-54 -73 -174 -114l-40 63q108 36 154 98q41 61 44 163v74z" />
    <glyph glyph-name="uni2EF0" unicode="&#x2ef0;" 
d="M63 599h286q8 102 9 219h72q0 -110 -8 -219h522v-71h-333v-331q111 101 187 248l64 -34q-100 -193 -251 -308v-63q0 -57 49 -57h143q30 0 44 20q17 25 23 145l68 -23q-10 -150 -40 -182q-28 -28 -82 -28h-178q-100 0 -100 109v28q-73 -45 -167 -80l-41 62q116 40 208 105
v389h-123q-12 -108 -33 -198q-61 -261 -284 -429l-51 61q198 147 261 373q23 95 34 193h-279v71zM646 817q105 -68 181 -140l-51 -52q-62 67 -179 145z" />
    <glyph glyph-name="uni2EF0" unicode="&#x9f99;" 
d="M63 599h286q8 102 9 219h72q0 -110 -8 -219h522v-71h-333v-331q111 101 187 248l64 -34q-100 -193 -251 -308v-63q0 -57 49 -57h143q30 0 44 20q17 25 23 145l68 -23q-10 -150 -40 -182q-28 -28 -82 -28h-178q-100 0 -100 109v28q-73 -45 -167 -80l-41 62q116 40 208 105
v389h-123q-12 -108 -33 -198q-61 -261 -284 -429l-51 61q198 147 261 373q23 95 34 193h-279v71zM646 817q105 -68 181 -140l-51 -52q-62 67 -179 145z" />
    <glyph glyph-name="uni2F00" unicode="&#x2f00;" 
d="M50 403h899v-72h-899v72z" />
    <glyph glyph-name="uni2F00" unicode="&#x4e00;" 
d="M50 403h899v-72h-899v72z" />
    <glyph glyph-name="uni2F06" unicode="&#x2f06;" 
d="M145 706h710v-71h-710v71zM53 77h893v-73h-893v73z" />
    <glyph glyph-name="uni2F06" unicode="&#x4e8c;" 
d="M145 706h710v-71h-710v71zM53 77h893v-73h-893v73z" />
    <glyph glyph-name="uni2F08" unicode="&#x2f08;" 
d="M536 815q0 -113 -7 -222q84 -408 434 -623l-47 -63q-307 201 -413 540q-90 -326 -424 -541l-44 64q412 253 426 686l2 159h73z" />
    <glyph glyph-name="uni2F08" unicode="&#x4eba;" 
d="M536 815q0 -113 -7 -222q84 -408 434 -623l-47 -63q-307 201 -413 540q-90 -326 -424 -541l-44 64q412 253 426 686l2 159h73z" />
    <glyph glyph-name="uni2F09" unicode="&#x2f09;" 
d="M285 791h73v-341q-6 -375 -244 -549l-56 49q224 156 227 500v341zM680 -70q-100 0 -100 110v753h72v-738q0 -55 50 -55h103q37 0 52 23q20 28 26 161l68 -22q-12 -166 -44 -201q-28 -31 -89 -31h-138z" />
    <glyph glyph-name="uni2F09" unicode="&#x513f;" 
d="M285 791h73v-341q-6 -375 -244 -549l-56 49q224 156 227 500v341zM680 -70q-100 0 -100 110v753h72v-738q0 -55 50 -55h103q37 0 52 23q20 28 26 161l68 -22q-12 -166 -44 -201q-28 -31 -89 -31h-138z" />
    <glyph glyph-name="uni2F0A" unicode="&#x2f0a;" 
d="M291 779l60 38q132 -92 226 -337q141 -359 377 -507l-45 -58q-242 146 -397 544q-13 36 -16 42q-99 -383 -414 -587l-43 61q321 210 417 610q-68 124 -165 194z" />
    <glyph glyph-name="uni2F0A" unicode="&#x5165;" 
d="M291 779l60 38q132 -92 226 -337q141 -359 377 -507l-45 -58q-242 146 -397 544q-13 36 -16 42q-99 -383 -414 -587l-43 61q321 210 417 610q-68 124 -165 194z" />
    <glyph glyph-name="uni2F0B" unicode="&#x2f0b;" 
d="M404 731q-84 -523 -308 -812l-47 59q211 284 284 765zM640 781q34 -536 313 -800l-38 -66q-297 267 -342 845z" />
    <glyph glyph-name="uni2F0B" unicode="&#x516b;" 
d="M404 731q-84 -523 -308 -812l-47 59q211 284 284 765zM640 781q34 -536 313 -800l-38 -66q-297 267 -342 845z" />
    <glyph glyph-name="uni2F12" unicode="&#x2f12;" 
d="M417 814h74v-92q-2 -64 -4 -97h384q-6 -277 -20 -426q-15 -160 -51 -225q-34 -61 -111 -67h-135l-20 70q63 -3 119 -3q82 0 109 107q26 106 35 475h-315q-21 -220 -87 -367q-89 -185 -289 -288l-39 63q195 105 273 281q52 130 68 311h-292v69h297q2 31 4 97v92z" />
    <glyph glyph-name="uni2F12" unicode="&#x529b;" 
d="M417 814h74v-92q-2 -64 -4 -97h384q-6 -277 -20 -426q-15 -160 -51 -225q-34 -61 -111 -67h-135l-20 70q63 -3 119 -3q82 0 109 107q26 106 35 475h-315q-21 -220 -87 -367q-89 -185 -289 -288l-39 63q195 105 273 281q52 130 68 311h-292v69h297q2 31 4 97v92z" />
    <glyph glyph-name="uni2F17" unicode="&#x2f17;" 
d="M466 815h74v-327h405v-70h-405v-517h-74v517h-409v70h409v327z" />
    <glyph glyph-name="uni2F17" unicode="&#x5341;" 
d="M466 815h74v-327h405v-70h-405v-517h-74v517h-409v70h409v327z" />
    <glyph glyph-name="uni2F1C" unicode="&#x2f1c;" 
d="M122 688v69h712v-66q-87 -292 -280 -491q78 -67 160 -116q105 -62 238 -113l-42 -65q-139 56 -255 128q-82 51 -153 116q-163 -148 -391 -241l-42 67q223 88 379 225l-11 11q-96 100 -160 226q-60 114 -84 250h-71zM756 688h-493q27 -138 91 -245q64 -113 147 -193
q180 183 255 438z" />
    <glyph glyph-name="uni2F1C" unicode="&#x53c8;" 
d="M122 688v69h712v-66q-87 -292 -280 -491q78 -67 160 -116q105 -62 238 -113l-42 -65q-139 56 -255 128q-82 51 -153 116q-163 -148 -391 -241l-42 67q223 88 379 225l-11 11q-96 100 -160 226q-60 114 -84 250h-71zM756 688h-493q27 -138 91 -245q64 -113 147 -193
q180 183 255 438z" />
    <glyph glyph-name="uni2F1D" unicode="&#x2f1d;" 
d="M863 698v-782h-73v64h-580v-64h-72v782h725zM210 50h580v578h-580v-578z" />
    <glyph glyph-name="uni2F1D" unicode="&#x53e3;" 
d="M863 698v-782h-73v64h-580v-64h-72v782h725zM210 50h580v578h-580v-578z" />
    <glyph glyph-name="uni2F20" unicode="&#x2f20;" 
d="M55 494h409v323h74v-323h407v-69h-407v-403h369v-70h-812v70h369v403h-409v69z" />
    <glyph glyph-name="uni2F20" unicode="&#x58eb;" 
d="M55 494h409v323h74v-323h407v-69h-407v-403h369v-70h-812v70h369v403h-409v69z" />
    <glyph glyph-name="uni2F24" unicode="&#x2f24;" 
d="M61 554h389q11 83 13 181v81h74v-65q0 -96 -13 -197h415v-70h-394q105 -339 413 -522l-45 -58q-302 186 -414 524q-93 -364 -413 -531l-45 60q319 157 397 527h-377v70z" />
    <glyph glyph-name="uni2F24" unicode="&#x5927;" 
d="M61 554h389q11 83 13 181v81h74v-65q0 -96 -13 -197h415v-70h-394q105 -339 413 -522l-45 -58q-302 186 -414 524q-93 -364 -413 -531l-45 60q319 157 397 527h-377v70z" />
    <glyph glyph-name="uni2F26" unicode="&#x2f26;" 
d="M63 387h421v142q127 73 246 176h-562v68h660v-68q-120 -114 -271 -213v-105h380v-70h-380v-317q0 -93 -91 -93h-172l-19 70q75 -3 162 -3q47 0 47 49v294h-421v70z" />
    <glyph glyph-name="uni2F26" unicode="&#x5b50;" 
d="M63 387h421v142q127 73 246 176h-562v68h660v-68q-120 -114 -271 -213v-105h380v-70h-380v-317q0 -93 -91 -93h-172l-19 70q75 -3 162 -3q47 0 47 49v294h-421v70z" />
    <glyph glyph-name="uni2F29" unicode="&#x2f29;" 
d="M297 -89l-17 75q72 -6 136 -6q63 0 63 65v757h74v-775q0 -116 -111 -116h-145zM285 542q-72 -296 -189 -452l-62 55q118 155 179 425zM781 594q121 -276 182 -470l-64 -44q-66 209 -183 473z" />
    <glyph glyph-name="uni2F29" unicode="&#x5c0f;" 
d="M297 -89l-17 75q72 -6 136 -6q63 0 63 65v757h74v-775q0 -116 -111 -116h-145zM285 542q-72 -296 -189 -452l-62 55q118 155 179 425zM781 594q121 -276 182 -470l-64 -44q-66 209 -183 473z" />
    <glyph glyph-name="uni2F2D" unicode="&#x2f2d;" 
d="M822 647h72v-728h-72v67h-645v-66h-72v730h72v-595h286v756h74v-756h285v592z" />
    <glyph glyph-name="uni2F2D" unicode="&#x5c71;" 
d="M822 647h72v-728h-72v67h-645v-66h-72v730h72v-595h286v756h74v-756h285v592z" />
    <glyph glyph-name="uni2F2F" unicode="&#x2f2f;" 
d="M467 679h-348v70h771v-70h-349v-662h392v-70h-867v70h401v662z" />
    <glyph glyph-name="uni2F2F" unicode="&#x5de5;" 
d="M467 679h-348v70h771v-70h-349v-662h392v-70h-867v70h401v662z" />
    <glyph glyph-name="uni2F32" unicode="&#x2f32;" 
d="M132 764h739v-68h-332v-282h406v-70h-406v-443h-74v443h-409v70h409v282h-333v68z" />
    <glyph glyph-name="uni2F32" unicode="&#x5e72;" 
d="M132 764h739v-68h-332v-282h406v-70h-406v-443h-74v443h-409v70h409v282h-333v68z" />
    <glyph glyph-name="uni2F34" unicode="&#x2f34;" 
d="M526 832q27 -52 55 -121h364v-69h-741v-224q-6 -329 -103 -526l-59 53q85 173 88 473v293h372q-23 55 -55 107z" />
    <glyph glyph-name="uni2F34" unicode="&#x5e7f;" 
d="M526 832q27 -52 55 -121h364v-69h-741v-224q-6 -329 -103 -526l-59 53q85 173 88 473v293h372q-23 55 -55 107z" />
    <glyph glyph-name="uni2F3C" unicode="&#x2f3c;" 
d="M405 -67q-104 0 -104 101v574h72v-559q0 -45 54 -45h188q36 0 51 29q19 37 26 211l68 -23q-12 -206 -43 -250q-29 -38 -89 -38h-223zM222 487q-42 -258 -120 -444l-62 39q76 186 113 419zM797 532q94 -190 167 -415l-66 -30q-78 240 -171 422zM437 813q140 -147 212 -255
l-60 -41q-82 124 -212 259z" />
    <glyph glyph-name="uni2F3C" unicode="&#x5fc3;" 
d="M405 -67q-104 0 -104 101v574h72v-559q0 -45 54 -45h188q36 0 51 29q19 37 26 211l68 -23q-12 -206 -43 -250q-29 -38 -89 -38h-223zM222 487q-42 -258 -120 -444l-62 39q76 186 113 419zM797 532q94 -190 167 -415l-66 -30q-78 240 -171 422zM437 813q140 -147 212 -255
l-60 -41q-82 124 -212 259z" />
    <glyph glyph-name="uni2F3D" unicode="&#x2f3d;" 
d="M913 612l11 -70l-434 -51q15 -145 66 -271q146 103 249 236l56 -42q-115 -151 -275 -261q78 -152 209 -175q56 3 76 179l65 -32q-33 -219 -137 -219q-155 12 -266 200l-5 10q-175 -105 -398 -171l-30 66q227 66 396 169q-62 139 -77 303l-331 -38l-11 70l337 39
q-10 189 -10 255h73q0 -59 7 -241v-6zM660 804q87 -62 141 -119l-48 -48q-52 58 -141 122z" />
    <glyph glyph-name="uni2F3D" unicode="&#x6208;" 
d="M913 612l11 -70l-434 -51q15 -145 66 -271q146 103 249 236l56 -42q-115 -151 -275 -261q78 -152 209 -175q56 3 76 179l65 -32q-33 -219 -137 -219q-155 12 -266 200l-5 10q-175 -105 -398 -171l-30 66q227 66 396 169q-62 139 -77 303l-331 -38l-11 70l337 39
q-10 189 -10 255h73q0 -59 7 -241v-6zM660 804q87 -62 141 -119l-48 -48q-52 58 -141 122z" />
    <glyph glyph-name="uni2F3F" unicode="&#x2f3f;" 
d="M871 747q-143 -38 -316 -55v-169h319v-70h-319v-164h394v-69h-394v-221q0 -91 -94 -91h-155l-16 70q102 -4 146 -4q46 0 46 43v203h-430v69h430v164h-347v70h347v163q-172 -13 -345 -13l-22 65q430 0 721 70z" />
    <glyph glyph-name="uni2F3F" unicode="&#x624b;" 
d="M871 747q-143 -38 -316 -55v-169h319v-70h-319v-164h394v-69h-394v-221q0 -91 -94 -91h-155l-16 70q102 -4 146 -4q46 0 46 43v203h-430v69h430v164h-347v70h347v163q-172 -13 -345 -13l-22 65q430 0 721 70z" />
    <glyph glyph-name="uni2F40" unicode="&#x2f40;" 
d="M461 817h74v-131h393v-70h-393v-153h269v-64q-84 -168 -243 -288q81 -45 165 -79q103 -39 228 -70l-42 -63q-134 36 -245 82q-92 40 -167 88q-170 -107 -409 -172l-41 64q229 54 389 150q-81 63 -136 133q-55 69 -78 152h-77v67h313v153h-389v70h389v131zM723 396h-427
q27 -80 84 -142q51 -59 119 -104q146 103 224 246z" />
    <glyph glyph-name="uni2F40" unicode="&#x652f;" 
d="M461 817h74v-131h393v-70h-393v-153h269v-64q-84 -168 -243 -288q81 -45 165 -79q103 -39 228 -70l-42 -63q-134 36 -245 82q-92 40 -167 88q-170 -107 -409 -172l-41 64q229 54 389 150q-81 63 -136 133q-55 69 -78 152h-77v67h313v153h-389v70h389v131zM723 396h-427
q27 -80 84 -142q51 -59 119 -104q146 103 224 246z" />
    <glyph glyph-name="uni2F42" unicode="&#x2f42;" 
d="M64 648h414q-41 81 -100 150l72 26q54 -68 104 -176h382v-72h-156q-74 -238 -221 -397q158 -134 399 -223l-39 -60q-248 93 -410 232q-171 -157 -426 -231l-38 63q253 68 414 214q-173 170 -241 402h-154v72zM289 576q64 -202 220 -352q133 145 196 352h-416z" />
    <glyph glyph-name="uni2F42" unicode="&#x6587;" 
d="M64 648h414q-41 81 -100 150l72 26q54 -68 104 -176h382v-72h-156q-74 -238 -221 -397q158 -134 399 -223l-39 -60q-248 93 -410 232q-171 -157 -426 -231l-38 63q253 68 414 214q-173 170 -241 402h-154v72zM289 576q64 -202 220 -352q133 145 196 352h-416z" />
    <glyph glyph-name="uni2F45" unicode="&#x2f45;" 
d="M65 669h431q-32 71 -73 127l68 25q41 -62 78 -152h374v-69h-527l-9 -180h415q-3 -295 -23 -381q-30 -128 -148 -132q-27 0 -115 4l-22 65q78 -3 130 -3q76 3 94 108q8 55 11 271h-350q-19 -119 -74 -220q-73 -129 -205 -235l-52 50q160 136 212 250q50 114 58 258
q5 95 6 145h-279v69z" />
    <glyph glyph-name="uni2F45" unicode="&#x65b9;" 
d="M65 669h431q-32 71 -73 127l68 25q41 -62 78 -152h374v-69h-527l-9 -180h415q-3 -295 -23 -381q-30 -128 -148 -132q-27 0 -115 4l-22 65q78 -3 130 -3q76 3 94 108q8 55 11 271h-350q-19 -119 -74 -220q-73 -129 -205 -235l-52 50q160 136 212 250q50 114 58 258
q5 95 6 145h-279v69z" />
    <glyph glyph-name="uni2F46" unicode="&#x2f46;" 
d="M133 763h718v-70h-358v-67q-3 -99 -13 -175h452v-69h-310v-349q0 -49 48 -49h127q36 0 53 20q21 23 28 140l68 -22q-12 -146 -45 -179q-28 -27 -91 -27h-162q-98 0 -98 102v364h-81q-24 -130 -75 -226q-94 -164 -301 -253l-40 64q206 93 287 245q35 73 55 170h-329v69
h341q11 77 13 175v67h-287v70z" />
    <glyph glyph-name="uni2F46" unicode="&#x65e0;" 
d="M133 763h718v-70h-358v-67q-3 -99 -13 -175h452v-69h-310v-349q0 -49 48 -49h127q36 0 53 20q21 23 28 140l68 -22q-12 -146 -45 -179q-28 -27 -91 -27h-162q-98 0 -98 102v364h-81q-24 -130 -75 -226q-94 -164 -301 -253l-40 64q206 93 287 245q35 73 55 170h-329v69
h341q11 77 13 175v67h-287v70z" />
    <glyph glyph-name="uni2F47" unicode="&#x2f47;" 
d="M819 777v-872h-73v76h-473v-77h-72v873h618zM273 51h473v301h-473v-301zM273 422h473v285h-473v-285z" />
    <glyph glyph-name="uni2F47" unicode="&#x65e5;" 
d="M819 777v-872h-73v76h-473v-77h-72v873h618zM273 51h473v301h-473v-301zM273 422h473v285h-473v-285z" />
    <glyph glyph-name="uni2F49" unicode="&#x2f49;" 
d="M313 466v-180h427v180h-427zM740 533v175h-427v-175h427zM309 219q-18 -195 -115 -322l-55 50q98 134 101 342v488h573v-782q0 -86 -85 -86h-129l-20 71q92 -4 126 -4q35 0 35 44v199h-431z" />
    <glyph glyph-name="uni2F49" unicode="&#x6708;" 
d="M313 466v-180h427v180h-427zM740 533v175h-427v-175h427zM309 219q-18 -195 -115 -322l-55 50q98 134 101 342v488h573v-782q0 -86 -85 -86h-129l-20 71q92 -4 126 -4q35 0 35 44v199h-431z" />
    <glyph glyph-name="uni2F4A" unicode="&#x2f4a;" 
d="M69 616h392v200h74v-200h399v-69h-333q96 -252 338 -447l-50 -63q-252 228 -348 510h-6v-643h-74v643h-7q-105 -313 -357 -513l-40 67q235 175 338 446h-326v69z" />
    <glyph glyph-name="uni2F4A" unicode="&#x6728;" 
d="M69 616h392v200h74v-200h399v-69h-333q96 -252 338 -447l-50 -63q-252 228 -348 510h-6v-643h-74v643h-7q-105 -313 -357 -513l-40 67q235 175 338 446h-326v69z" />
    <glyph glyph-name="uni2F50" unicode="&#x2f50;" 
d="M196 451v-443q138 31 263 73l18 -68q-163 -52 -355 -93l-22 67q24 15 24 43v767h72v-276h260v-70h-260zM623 -72q-95 0 -95 109v767h73v-316q150 43 284 116l43 -59q-168 -82 -327 -125v-369q0 -53 43 -53h147q31 0 50 18q24 24 32 175l69 -23q-14 -173 -46 -208
q-31 -31 -86 -32h-187z" />
    <glyph glyph-name="uni2F50" unicode="&#x6bd4;" 
d="M196 451v-443q138 31 263 73l18 -68q-163 -52 -355 -93l-22 67q24 15 24 43v767h72v-276h260v-70h-260zM623 -72q-95 0 -95 109v767h73v-316q150 43 284 116l43 -59q-168 -82 -327 -125v-369q0 -53 43 -53h147q31 0 50 18q24 24 32 175l69 -23q-14 -173 -46 -208
q-31 -31 -86 -32h-187z" />
    <glyph glyph-name="uni2F54" unicode="&#x2f54;" 
d="M68 563h325v-57q-78 -333 -308 -503l-46 59q205 151 283 431h-254v70zM900 616q-118 -146 -245 -244q116 -189 307 -316l-44 -65q-262 202 -373 462v-455q0 -94 -89 -94h-131l-15 71q70 -5 121 -5q40 0 40 46v805h74v-212q31 -94 77 -180q119 98 220 230z" />
    <glyph glyph-name="uni2F54" unicode="&#x6c34;" 
d="M68 563h325v-57q-78 -333 -308 -503l-46 59q205 151 283 431h-254v70zM900 616q-118 -146 -245 -244q116 -189 307 -316l-44 -65q-262 202 -373 462v-455q0 -94 -89 -94h-131l-15 71q70 -5 121 -5q40 0 40 46v805h74v-212q31 -94 77 -180q119 98 220 230z" />
    <glyph glyph-name="uni2F5C" unicode="&#x2f5c;" 
d="M214 539q-53 -100 -117 -181l-49 58q115 137 191 368l68 -15q-26 -84 -60 -160h240v210h73v-210h328v-70h-328v-253h389v-71h-389v-310h-73v310h-427v71h427v253h-273z" />
    <glyph glyph-name="uni2F5C" unicode="&#x725b;" 
d="M214 539q-53 -100 -117 -181l-49 58q115 137 191 368l68 -15q-26 -84 -60 -160h240v210h73v-210h328v-70h-328v-253h389v-71h-389v-310h-73v310h-427v71h427v253h-273z" />
    <glyph glyph-name="uni2F5F" unicode="&#x2f5f;" 
d="M83 759h836v-70h-382v-267h334v-70h-334v-339h402v-70h-878v70h402v339h-332v70h332v267h-380v70zM723 302q95 -114 147 -203l-58 -41q-56 98 -145 209z" />
    <glyph glyph-name="uni2F5F" unicode="&#x7389;" 
d="M83 759h836v-70h-382v-267h334v-70h-334v-339h402v-70h-878v70h402v339h-332v70h332v267h-380v70zM723 302q95 -114 147 -203l-58 -41q-56 98 -145 209z" />
    <glyph glyph-name="uni2F63" unicode="&#x2f63;" 
d="M241 561q-60 -136 -153 -229l-46 59q142 148 191 398l73 -13q-16 -77 -39 -145h214v178h73v-178h329v-70h-329v-231h309v-70h-309v-254h393v-72h-881v72h415v254h-294v70h294v231h-240z" />
    <glyph glyph-name="uni2F63" unicode="&#x751f;" 
d="M241 561q-60 -136 -153 -229l-46 59q142 148 191 398l73 -13q-16 -77 -39 -145h214v178h73v-178h329v-70h-329v-231h309v-70h-309v-254h393v-72h-881v72h415v254h-294v70h294v231h-240z" />
    <glyph glyph-name="uni2F64" unicode="&#x2f64;" 
d="M213 468v-175h254v175h-254zM209 227q-17 -193 -112 -318l-55 49q96 134 99 339v480h745v-749q0 -105 -105 -105h-115l-19 71q80 -4 111 -4q55 0 55 63v174h-272v-293h-74v293h-258zM813 293v175h-272v-175h272zM813 535v172h-272v-172h272zM467 707h-254v-172h254v172z
" />
    <glyph glyph-name="uni2F64" unicode="&#x7528;" 
d="M213 468v-175h254v175h-254zM209 227q-17 -193 -112 -318l-55 49q96 134 99 339v480h745v-749q0 -105 -105 -105h-115l-19 71q80 -4 111 -4q55 0 55 63v174h-272v-293h-74v293h-258zM813 293v175h-272v-175h272zM813 535v172h-272v-172h272zM467 707h-254v-172h254v172z
" />
    <glyph glyph-name="uni2F65" unicode="&#x2f65;" 
d="M884 751v-836h-71v76h-622v-77h-71v837h764zM191 61h278v283h-278v-283zM538 61h275v283h-275v-283zM191 409h278v273h-278v-273zM538 682v-273h275v273h-275z" />
    <glyph glyph-name="uni2F65" unicode="&#x7530;" 
d="M884 751v-836h-71v76h-622v-77h-71v837h764zM191 61h278v283h-278v-283zM538 61h275v283h-275v-283zM191 409h278v273h-278v-273zM538 682v-273h275v273h-275z" />
    <glyph glyph-name="uni2F69" unicode="&#x2f69;" 
d="M849 658v-756h-73v79h-551v-81h-73v758h238q34 79 50 163l79 -11q-17 -84 -49 -152h379zM225 51h551v244h-551v-244zM225 363h551v226h-551v-226z" />
    <glyph glyph-name="uni2F69" unicode="&#x767d;" 
d="M849 658v-756h-73v79h-551v-81h-73v758h238q34 79 50 163l79 -11q-17 -84 -49 -152h379zM225 51h551v244h-551v-244zM225 363h551v226h-551v-226z" />
    <glyph glyph-name="uni2F6F" unicode="&#x2f6f;" 
d="M62 759h878v-70h-471q-49 -147 -130 -269h523v-509h-74v54h-418v-54h-74v449q-90 -118 -212 -214l-44 71q245 182 353 472h-331v70zM370 35h418v316h-418v-316z" />
    <glyph glyph-name="uni2F6F" unicode="&#x77f3;" 
d="M62 759h878v-70h-471q-49 -147 -130 -269h523v-509h-74v54h-418v-54h-74v449q-90 -118 -212 -214l-44 71q245 182 353 472h-331v70zM370 35h418v316h-418v-316z" />
    <glyph glyph-name="uni2F72" unicode="&#x2f72;" 
d="M455 672q-162 -10 -316 -10l-24 70q426 0 714 64l37 -65q-138 -34 -337 -53v-198h399v-70h-341q108 -200 370 -360l-51 -64q-263 179 -377 401v-486h-74v484q-115 -240 -371 -400l-41 67q245 141 355 358h-325v70h382v192z" />
    <glyph glyph-name="uni2F72" unicode="&#x79be;" 
d="M455 672q-162 -10 -316 -10l-24 70q426 0 714 64l37 -65q-138 -34 -337 -53v-198h399v-70h-341q108 -200 370 -360l-51 -64q-263 179 -377 401v-486h-74v484q-115 -240 -371 -400l-41 67q245 141 355 358h-325v70h382v192z" />
    <glyph glyph-name="uni2F74" unicode="&#x2f74;" 
d="M83 656h384q-24 81 -51 147l83 14q22 -64 46 -161h375v-70h-837v70zM49 28h496q90 197 160 500l76 -20q-62 -272 -154 -480h327v-70h-905v70zM298 524q67 -196 117 -446l-77 -19q-44 222 -115 440z" />
    <glyph glyph-name="uni2F74" unicode="&#x7acb;" 
d="M83 656h384q-24 81 -51 147l83 14q22 -64 46 -161h375v-70h-837v70zM49 28h496q90 197 160 500l76 -20q-62 -272 -154 -480h327v-70h-905v70zM298 524q67 -196 117 -446l-77 -19q-44 222 -115 440z" />
    <glyph glyph-name="uni2F75" unicode="&#x2f75;" 
d="M190 554q-52 -91 -104 -154l-47 56q115 141 187 368l72 -16q-31 -93 -73 -185h238v-69h-156v-655h-73v655h-44zM582 554q-47 -86 -100 -154l-47 56q110 142 179 369l72 -16q-32 -105 -70 -186h342v-69h-156v-561q0 -89 -85 -89h-129l-16 69q70 -5 120 -5q37 0 37 43v543
h-147z" />
    <glyph glyph-name="uni2F75" unicode="&#x7af9;" 
d="M190 554q-52 -91 -104 -154l-47 56q115 141 187 368l72 -16q-31 -93 -73 -185h238v-69h-156v-655h-73v655h-44zM582 554q-47 -86 -100 -154l-47 56q110 142 179 369l72 -16q-32 -105 -70 -186h342v-69h-156v-561q0 -89 -85 -89h-129l-16 69q70 -5 120 -5q37 0 37 43v543
h-147z" />
    <glyph glyph-name="uni2F76" unicode="&#x2f76;" 
d="M69 447h394v371h74v-371h394v-69h-332q106 -193 365 -343l-51 -65q-266 182 -371 408h-5v-479h-74v479h-4q-113 -253 -378 -413l-42 67q250 135 361 346h-331v69zM848 728q-53 -117 -142 -234l-65 33q88 116 141 233zM225 743q71 -100 123 -215l-65 -29q-55 122 -127 222
z" />
    <glyph glyph-name="uni2F76" unicode="&#x7c73;" 
d="M69 447h394v371h74v-371h394v-69h-332q106 -193 365 -343l-51 -65q-266 182 -371 408h-5v-479h-74v479h-4q-113 -253 -378 -413l-42 67q250 135 361 346h-331v69zM848 728q-53 -117 -142 -234l-65 33q88 116 141 233zM225 743q71 -100 123 -215l-65 -29q-55 122 -127 222
z" />
    <glyph glyph-name="uni2F79" unicode="&#x2f79;" 
d="M471 127q-43 68 -95 144q-53 -146 -131 -252l-46 56q78 111 129 263q-69 92 -141 175l45 43q60 -63 119 -142q29 108 47 226l66 -12q-24 -154 -63 -282q66 -90 118 -171zM764 81q-43 74 -101 166q-60 -147 -141 -252l-46 55q85 115 140 267q-74 109 -137 186l45 43
q61 -69 118 -151q31 104 53 242l68 -12q-27 -166 -72 -301q63 -96 122 -195zM709 -94l-19 70l96 -3q42 0 42 41v693h-656v-805h-71v874h798v-778q0 -92 -89 -92h-101z" />
    <glyph glyph-name="uni2F79" unicode="&#x7f51;" 
d="M471 127q-43 68 -95 144q-53 -146 -131 -252l-46 56q78 111 129 263q-69 92 -141 175l45 43q60 -63 119 -142q29 108 47 226l66 -12q-24 -154 -63 -282q66 -90 118 -171zM764 81q-43 74 -101 166q-60 -147 -141 -252l-46 55q85 115 140 267q-74 109 -137 186l45 43
q61 -69 118 -151q31 104 53 242l68 -12q-27 -166 -72 -301q63 -96 122 -195zM709 -94l-19 70l96 -3q42 0 42 41v693h-656v-805h-71v874h798v-778q0 -92 -89 -92h-101z" />
    <glyph glyph-name="uni2F7C" unicode="&#x2f7c;" 
d="M364 28q0 -44 43 -44h340q49 0 72 17q27 21 36 117l68 -22q-13 -128 -54 -157q-34 -24 -109 -24h-375q-93 0 -93 98v209q-100 -44 -218 -88l-31 67q253 69 464 213l10 7h-461v69h353v134h-275v70h275v126h73v-126h244v-70h-244v-134h127q135 111 242 260l57 -42
q-93 -127 -191 -218h231v-69h-312l-47 -35q-101 -69 -225 -130v-64q282 27 494 97l24 -68q-238 -68 -518 -94v-99z" />
    <glyph glyph-name="uni2F7C" unicode="&#x8001;" 
d="M364 28q0 -44 43 -44h340q49 0 72 17q27 21 36 117l68 -22q-13 -128 -54 -157q-34 -24 -109 -24h-375q-93 0 -93 98v209q-100 -44 -218 -88l-31 67q253 69 464 213l10 7h-461v69h353v134h-275v70h275v126h73v-126h244v-70h-244v-134h127q135 111 242 260l57 -42
q-93 -127 -191 -218h231v-69h-312l-47 -35q-101 -69 -225 -130v-64q282 27 494 97l24 -68q-238 -68 -518 -94v-99z" />
    <glyph glyph-name="uni2F82" unicode="&#x2f82;" 
d="M856 195h-286v-203h355v-69h-784v853h763v-69h-334v-181h286v-331zM500 707h-289v-181h289v181zM211 460v-198h575v198h-575zM211 195v-203h289v203h-289z" />
    <glyph glyph-name="uni2F82" unicode="&#x81e3;" 
d="M856 195h-286v-203h355v-69h-784v853h763v-69h-334v-181h286v-331zM500 707h-289v-181h289v181zM211 460v-198h575v198h-575zM211 195v-203h289v203h-289z" />
    <glyph glyph-name="uni2F83" unicode="&#x2f83;" 
d="M836 698v-797h-73v62h-526v-62h-73v797h214q35 64 49 122l73 -10q-17 -60 -47 -112h383zM237 32h526v163h-526v-163zM237 261h526v153h-526v-153zM237 480h526v149h-526v-149z" />
    <glyph glyph-name="uni2F83" unicode="&#x81ea;" 
d="M836 698v-797h-73v62h-526v-62h-73v797h214q35 64 49 122l73 -10q-17 -60 -47 -112h383zM237 32h526v163h-526v-163zM237 261h526v153h-526v-153zM237 480h526v149h-526v-149z" />
    <glyph glyph-name="uni2F84" unicode="&#x2f84;" 
d="M83 768h830v-70h-468q-89 -150 -206 -244q249 15 472 52q-45 54 -93 105l58 37q138 -146 213 -257l-59 -42q-29 44 -69 97q-301 -47 -629 -64l-19 63q146 83 249 253h-279v70zM130 246h333v116h74v-116h328v-69h-328v-167h403v-70h-880v70h403v167h-333v69z" />
    <glyph glyph-name="uni2F84" unicode="&#x81f3;" 
d="M83 768h830v-70h-468q-89 -150 -206 -244q249 15 472 52q-45 54 -93 105l58 37q138 -146 213 -257l-59 -42q-29 44 -69 97q-301 -47 -629 -64l-19 63q146 83 249 253h-279v70zM130 246h333v116h74v-116h328v-69h-328v-167h403v-70h-880v70h403v167h-333v69z" />
    <glyph glyph-name="uni2F8A" unicode="&#x2f8a;" 
d="M482 465h-239v-181h239v181zM555 284h235v181h-235v-181zM321 658q-62 -68 -137 -126h345q58 52 118 126h-326zM170 522q-35 -27 -78 -55l-48 58q193 115 317 298l72 -16q-29 -46 -57 -83h364v-55q-57 -81 -113 -137h236v-316h-620v-184q0 -46 49 -46h483q50 1 70 33
q14 24 25 128l71 -22q-11 -101 -28 -141q-30 -65 -116 -68h-533q-94 0 -94 90v516z" />
    <glyph glyph-name="uni2F8A" unicode="&#x8272;" 
d="M482 465h-239v-181h239v181zM555 284h235v181h-235v-181zM321 658q-62 -68 -137 -126h345q58 52 118 126h-326zM170 522q-35 -27 -78 -55l-48 58q193 115 317 298l72 -16q-29 -46 -57 -83h364v-55q-57 -81 -113 -137h236v-316h-620v-184q0 -46 49 -46h483q50 1 70 33
q14 24 25 128l71 -22q-11 -101 -28 -141q-30 -65 -116 -68h-533q-94 0 -94 90v516z" />
    <glyph glyph-name="uni2F8F" unicode="&#x2f8f;" 
d="M425 753h479v-71h-479v71zM398 499h550v-71h-162v-429q0 -95 -99 -95h-145l-15 71q78 -5 135 -5q51 0 51 47v411h-315v71zM332 778q-84 -166 -270 -294l-21 72q155 110 226 252zM379 550q-45 -88 -109 -160v-490h-71v417q-66 -59 -131 -104l-21 72q183 129 267 295z" />
    <glyph glyph-name="uni2F8F" unicode="&#x884c;" 
d="M425 753h479v-71h-479v71zM398 499h550v-71h-162v-429q0 -95 -99 -95h-145l-15 71q78 -5 135 -5q51 0 51 47v411h-315v71zM332 778q-84 -166 -270 -294l-21 72q155 110 226 252zM379 550q-45 -88 -109 -160v-490h-71v417q-66 -59 -131 -104l-21 72q183 129 267 295z" />
    <glyph glyph-name="uni2F95" unicode="&#x2f95;" 
d="M790 309v-406h-70v44h-439v-44h-70v406h579zM281 14h439v228h-439v-228zM614 798q172 -111 292 -225l-51 -52q-105 108 -290 230zM416 752q-116 -125 -290 -219l-44 57q168 90 282 207zM522 611q125 -160 432 -283l-40 -61q-278 112 -412 273q-165 -177 -417 -273l-40 61
q283 110 437 283h40z" />
    <glyph glyph-name="uni2F95" unicode="&#x8c37;" 
d="M790 309v-406h-70v44h-439v-44h-70v406h579zM281 14h439v228h-439v-228zM614 798q172 -111 292 -225l-51 -52q-105 108 -290 230zM416 752q-116 -125 -290 -219l-44 57q168 90 282 207zM522 611q125 -160 432 -283l-40 -61q-278 112 -412 273q-165 -177 -417 -273l-40 61
q283 110 437 283h40z" />
    <glyph glyph-name="uni2F9B" unicode="&#x2f9b;" 
d="M135 703h328v116h70v-116h324v-65h-324v-158h395v-68h-858v68h393v158h-328v65zM486 381h69v-131h286v-67h-286v-198q78 -8 170 -8q103 0 225 4l-20 -72l-200 1q-256 2 -348 48q-77 40 -139 156q-50 -116 -139 -212l-55 48q159 176 175 395l71 -9q-6 -84 -28 -155
q64 -128 147 -164q30 -12 72 -21v385z" />
    <glyph glyph-name="uni2F9B" unicode="&#x8d70;" 
d="M135 703h328v116h70v-116h324v-65h-324v-158h395v-68h-858v68h393v158h-328v65zM486 381h69v-131h286v-67h-286v-198q78 -8 170 -8q103 0 225 4l-20 -72l-200 1q-256 2 -348 48q-77 40 -139 156q-50 -116 -139 -212l-55 48q159 176 175 395l71 -9q-6 -84 -28 -155
q64 -128 147 -164q30 -12 72 -21v385z" />
    <glyph glyph-name="uni2FA0" unicode="&#x2fa0;" 
d="M215 352q-18 -276 -122 -451l-54 49q104 174 108 484v341h774v-68h-703v-288h713v-67h-310q13 -89 69 -167q81 44 156 135l49 -49q-74 -87 -166 -135q82 -94 235 -172l-48 -55q-328 180 -359 443h-153v-346q126 31 213 67l12 -66q-133 -51 -305 -89l-21 63q32 14 32 48
v323h-120zM306 600h544v-66h-544v66z" />
    <glyph glyph-name="uni2FA0" unicode="&#x8fb0;" 
d="M215 352q-18 -276 -122 -451l-54 49q104 174 108 484v341h774v-68h-703v-288h713v-67h-310q13 -89 69 -167q81 44 156 135l49 -49q-74 -87 -166 -135q82 -94 235 -172l-48 -55q-328 180 -359 443h-153v-346q126 31 213 67l12 -66q-133 -51 -305 -89l-21 63q32 14 32 48
v323h-120zM306 600h544v-66h-544v66z" />
    <glyph glyph-name="uni2FA2" unicode="&#x2fa2;" 
d="M210 779h578v-253h-578v253zM716 592v122h-434v-122h434zM468 379h-246v-137h246v137zM539 242h246v137h-246v-137zM857 446v-272h-635v-132q0 -61 59 -62h497q55 3 76 28q16 21 27 104l69 -22q-12 -85 -30 -121q-30 -54 -121 -57h-545q-103 0 -103 105v429h706z" />
    <glyph glyph-name="uni2FA2" unicode="&#x9091;" 
d="M210 779h578v-253h-578v253zM716 592v122h-434v-122h434zM468 379h-246v-137h246v137zM539 242h246v137h-246v-137zM857 446v-272h-635v-132q0 -61 59 -62h497q55 3 76 28q16 21 27 104l69 -22q-12 -85 -30 -121q-30 -54 -121 -57h-545q-103 0 -103 105v429h706z" />
    <glyph glyph-name="uni2FA5" unicode="&#x2fa5;" 
d="M219 513v-133h244v133h-244zM463 314h-314v466h700v-466h-312v-117h361v-69h-361v-124h403v-69h-881v69h404v124h-361v69h361v117zM537 380h241v133h-241v-133zM778 579v135h-241v-135h241zM463 714h-244v-135h244v135z" />
    <glyph glyph-name="uni2FA5" unicode="&#x91cc;" 
d="M219 513v-133h244v133h-244zM463 314h-314v466h700v-466h-312v-117h361v-69h-361v-124h403v-69h-881v69h404v124h-361v69h361v117zM537 380h241v133h-241v-133zM778 579v135h-241v-135h241zM463 714h-244v-135h244v135z" />
    <glyph glyph-name="uni2FA6" unicode="&#x2fa6;" 
d="M238 531q-76 -46 -150 -80l-42 60q262 117 426 298h58q143 -178 423 -295l-41 -60q-75 31 -148 74v-55h-227v-144h356v-67h-356v-267h111q51 98 90 210l66 -23q-38 -105 -83 -187h207v-69h-855v69h207q-30 92 -80 179l65 24q45 -81 85 -203h115v267h-357v67h357v144h-227
v58zM747 538q-146 86 -246 203q-114 -118 -252 -203h498z" />
    <glyph glyph-name="uni2FA6" unicode="&#x91d1;" 
d="M238 531q-76 -46 -150 -80l-42 60q262 117 426 298h58q143 -178 423 -295l-41 -60q-75 31 -148 74v-55h-227v-144h356v-67h-356v-267h111q51 98 90 210l66 -23q-38 -105 -83 -187h207v-69h-855v69h207q-30 92 -80 179l65 24q45 -81 85 -203h115v267h-357v67h357v144h-227
v58zM747 538q-146 86 -246 203q-114 -118 -252 -203h498z" />
    <glyph glyph-name="uni2FAC" unicode="&#x2fac;" 
d="M55 775h890v-70h-410v-121h357v-586q0 -94 -88 -94h-117l-18 69l112 -3q41 0 41 44v501h-287v-603h-70v603h-291v-618h-70v687h361v121h-410v70zM260 432q92 -42 166 -99l-37 -56q-82 66 -165 101zM252 231q91 -42 167 -104l-37 -56q-82 69 -165 107zM612 431
q94 -46 167 -106l-36 -57q-82 70 -167 110zM612 222q92 -46 166 -108l-37 -57q-80 71 -165 112z" />
    <glyph glyph-name="uni2FAC" unicode="&#x96e8;" 
d="M55 775h890v-70h-410v-121h357v-586q0 -94 -88 -94h-117l-18 69l112 -3q41 0 41 44v501h-287v-603h-70v603h-291v-618h-70v687h361v121h-410v70zM260 432q92 -42 166 -99l-37 -56q-82 66 -165 101zM252 231q91 -42 167 -104l-37 -56q-82 69 -165 107zM612 431
q94 -46 167 -106l-36 -57q-82 70 -167 110zM612 222q92 -46 166 -108l-37 -57q-80 71 -165 112z" />
    <glyph glyph-name="uni2FAE" unicode="&#x2fae;" 
d="M346 816h74v-916h-74v236h-305v69h305v159h-259v70h259v155h-282v69h282v158zM580 816h74v-158h281v-69h-281v-155h259v-70h-259v-159h297v-69h-297v-236h-74v916z" />
    <glyph glyph-name="uni2FAE" unicode="&#x975e;" 
d="M346 816h74v-916h-74v236h-305v69h305v159h-259v70h259v155h-282v69h282v158zM580 816h74v-158h281v-69h-281v-155h259v-70h-259v-159h297v-69h-297v-236h-74v916z" />
    <glyph glyph-name="uni2FAF" unicode="&#x2faf;" 
d="M55 777h890v-70h-401q-11 -62 -37 -128h384v-682h-69v50h-641v-50h-69v682h322q26 69 37 128h-416v70zM181 13h138v501h-138v-501zM386 13h228v128h-228v-128zM681 13h141v501h-141v-501zM386 204h228v122h-228v-122zM386 390h228v124h-228v-124z" />
    <glyph glyph-name="uni2FAF" unicode="&#x9762;" 
d="M55 777h890v-70h-401q-11 -62 -37 -128h384v-682h-69v50h-641v-50h-69v682h322q26 69 37 128h-416v70zM181 13h138v501h-138v-501zM386 13h228v128h-228v-128zM681 13h141v501h-141v-501zM386 204h228v122h-228v-122zM386 390h228v124h-228v-124z" />
    <glyph glyph-name="uni2FB8" unicode="&#x2fb8;" 
d="M832 514v-615h-71v41h-522v-41h-71v615h271q14 55 19 101h-401v70h255q-24 62 -52 110l70 26q32 -60 56 -136h222q35 67 60 139l71 -25q-25 -67 -52 -114h256v-70h-409q-11 -67 -20 -101h318zM239 5h522v107h-522v-107zM239 176h522v104h-522v-104zM239 344h522v104h-522
v-104z" />
    <glyph glyph-name="uni2FB8" unicode="&#x9996;" 
d="M832 514v-615h-71v41h-522v-41h-71v615h271q14 55 19 101h-401v70h255q-24 62 -52 110l70 26q32 -60 56 -136h222q35 67 60 139l71 -25q-25 -67 -52 -114h256v-70h-409q-11 -67 -20 -101h318zM239 5h522v107h-522v-107zM239 176h522v104h-522v-104zM239 344h522v104h-522
v-104z" />
    <glyph glyph-name="uni2FB9" unicode="&#x2fb9;" 
d="M71 613h395v92q-141 -9 -304 -9l-21 61q411 2 684 57l34 -58q-146 -32 -320 -46v-97h391v-68h-325q111 -118 345 -186l-30 -65q-266 93 -381 242v-200h259v-435h-70v54h-450v-54h-71v433q-49 -24 -117 -52l-40 64q257 87 351 199h-330v68zM466 537q-79 -112 -254 -201
h254v201zM278 20h450v95h-450v-95zM278 177h450v95h-450v-95z" />
    <glyph glyph-name="uni2FB9" unicode="&#x9999;" 
d="M71 613h395v92q-141 -9 -304 -9l-21 61q411 2 684 57l34 -58q-146 -32 -320 -46v-97h391v-68h-325q111 -118 345 -186l-30 -65q-266 93 -381 242v-200h259v-435h-70v54h-450v-54h-71v433q-49 -24 -117 -52l-40 64q257 87 351 199h-330v68zM466 537q-79 -112 -254 -201
h254v201zM278 20h450v95h-450v-95zM278 177h450v95h-450v-95z" />
    <glyph glyph-name="uni2FBC" unicode="&#x2fbc;" 
d="M513 823q18 -45 32 -90h396v-66h-883v66h410q-12 34 -34 76zM697 -97l-17 65l80 -3q62 0 62 48v272h-644v-385h-69v448h782v-350q0 -95 -110 -95h-84zM221 602h559v-194h-559v194zM710 464v82h-419v-82h419zM304 221h393v-200h-393v200zM633 75v92h-264v-92h264z" />
    <glyph glyph-name="uni2FBC" unicode="&#x9ad8;" 
d="M513 823q18 -45 32 -90h396v-66h-883v66h410q-12 34 -34 76zM697 -97l-17 65l80 -3q62 0 62 48v272h-644v-385h-69v448h782v-350q0 -95 -110 -95h-84zM221 602h559v-194h-559v194zM710 464v82h-419v-82h419zM304 221h393v-200h-393v200zM633 75v92h-264v-92h264z" />
    <glyph glyph-name="uni2FC5" unicode="&#x2fc5;" 
d="M676 18q0 -38 39 -38h121q23 0 33 12q11 14 16 93l67 -21q-9 -107 -34 -130q-24 -19 -69 -19h-155q-85 0 -85 89v277h67v-112q131 24 235 78l23 -63q-111 -49 -258 -75v-91zM893 315h-708q-18 -246 -94 -409l-56 50q83 169 86 478v297h376q-23 46 -49 82l77 12
q24 -42 47 -94h373v-70h-287v-95h235v-251zM592 661h-169v-95h169v95zM358 661h-167v-95h167v95zM191 502v-68q0 -20 -2 -56h169v124h-167zM423 502v-124h169v124h-169zM658 502v-124h164v124h-164zM328 130v-143q131 26 223 58l12 -60q-130 -43 -302 -74l-19 60
q20 11 20 40v268h66v-84h234v-65h-234z" />
    <glyph glyph-name="uni2FC5" unicode="&#x9e7f;" 
d="M676 18q0 -38 39 -38h121q23 0 33 12q11 14 16 93l67 -21q-9 -107 -34 -130q-24 -19 -69 -19h-155q-85 0 -85 89v277h67v-112q131 24 235 78l23 -63q-111 -49 -258 -75v-91zM893 315h-708q-18 -246 -94 -409l-56 50q83 169 86 478v297h376q-23 46 -49 82l77 12
q24 -42 47 -94h373v-70h-287v-95h235v-251zM592 661h-169v-95h169v95zM358 661h-167v-95h167v95zM191 502v-68q0 -20 -2 -56h169v124h-167zM423 502v-124h169v124h-169zM658 502v-124h164v124h-164zM328 130v-143q131 26 223 58l12 -60q-130 -43 -302 -74l-19 60
q20 11 20 40v268h66v-84h234v-65h-234z" />
    <glyph glyph-name="uni2FCE" unicode="&#x2fce;" 
d="M56 730h189v85h69v-85h173v-67h-173v-96h157v-66h-384v66h158v96h-189v67zM437 152q-28 -66 -61 -123q45 8 104 20v-66q-176 -40 -424 -68l-9 69q126 12 254 32q46 79 74 158zM112 430h337v-235h-337v235zM382 257v110h-204v-110h204zM510 672h174v144h71v-144h180v-69
h-180v-163h158v-64q-43 -165 -134 -278q78 -78 187 -134l-40 -63q-115 65 -193 146q-93 -93 -226 -152l-37 66q129 53 217 139q-94 119 -127 272h-43v68h167v163h-174v69zM627 372q29 -125 106 -222q76 97 113 222h-219zM171 168q39 -62 66 -137l-56 -24q-30 80 -66 139z
" />
    <glyph glyph-name="uni2FCE" unicode="&#x9f13;" 
d="M56 730h189v85h69v-85h173v-67h-173v-96h157v-66h-384v66h158v96h-189v67zM437 152q-28 -66 -61 -123q45 8 104 20v-66q-176 -40 -424 -68l-9 69q126 12 254 32q46 79 74 158zM112 430h337v-235h-337v235zM382 257v110h-204v-110h204zM510 672h174v144h71v-144h180v-69
h-180v-163h158v-64q-43 -165 -134 -278q78 -78 187 -134l-40 -63q-115 65 -193 146q-93 -93 -226 -152l-37 66q129 53 217 139q-94 119 -127 272h-43v68h167v163h-174v69zM627 372q29 -125 106 -222q76 97 113 222h-219zM171 168q39 -62 66 -137l-56 -24q-30 80 -66 139z
" />
    <glyph glyph-name="uni2FD3" unicode="&#x2fd3;" 
d="M66 730h176q-16 46 -31 75l82 14q15 -43 26 -89h172v-64h-58l-39 -129h105v-63h-446v63h112l-36 129h-63v64zM325 537l38 129h-164l37 -129h89zM616 690v-77h290v-182h-293v-69h314v-56h-314v-62h314v-57h-314v-63h321v-56h-321v-65q0 -34 62 -34h147q28 0 47 7
q18 9 24 65l62 -20q-9 -68 -27 -89q-21 -19 -98 -19h-185q-99 0 -99 68v504h293v74h-290v256h67v-66h331v-59h-331zM167 210v-83h226v83h-226zM393 266v84h-226v-84h226zM167 71v-172h-70v509h365v-432q0 -76 -81 -76h-85l-17 59l83 -2q31 0 31 34v80h-226z" />
    <glyph glyph-name="uni2FD3" unicode="&#x9f8d;" 
d="M66 730h176q-16 46 -31 75l82 14q15 -43 26 -89h172v-64h-58l-39 -129h105v-63h-446v63h112l-36 129h-63v64zM325 537l38 129h-164l37 -129h89zM616 690v-77h290v-182h-293v-69h314v-56h-314v-62h314v-57h-314v-63h321v-56h-321v-65q0 -34 62 -34h147q28 0 47 7
q18 9 24 65l62 -20q-9 -68 -27 -89q-21 -19 -98 -19h-185q-99 0 -99 68v504h293v74h-290v256h67v-66h331v-59h-331zM167 210v-83h226v83h-226zM393 266v84h-226v-84h226zM167 71v-172h-70v509h365v-432q0 -76 -81 -76h-85l-17 59l83 -2q31 0 31 34v80h-226z" />
    <glyph glyph-name="uni3001" unicode="&#x3001;" 
d="M173 140q62 -44 115 -100q49 -50 86 -103l-50 -42q-33 47 -85 102q-52 57 -111 101z" />
    <glyph glyph-name="uni3002" unicode="&#x3002;" 
d="M342 106q38 -36 38 -90q0 -53 -38 -89q-39 -36 -92 -36q-54 0 -92 35t-38 90t38 90q38 36 92 36q53 0 92 -36zM197 68q-23 -20 -23 -52q0 -31 23 -51q22 -22 53 -22q29 0 53 22q23 21 23 51q0 31 -23 52q-22 22 -53 22q-32 0 -53 -22z" />
    <glyph glyph-name="uni4E01" unicode="&#x4e01;" 
d="M70 745h861v-69h-386v-667q0 -100 -101 -100h-158l-15 69q104 -4 149 -4q52 0 52 53v649h-402v69z" />
    <glyph glyph-name="uni4E03" unicode="&#x4e03;" 
d="M938 580l11 -69l-496 -91v-376q0 -49 44 -49h265q44 0 64 23t26 160l68 -22q-9 -162 -39 -198q-30 -33 -106 -33h-295q-101 0 -101 109v372l-322 -59l-11 69l333 61v326h74v-312z" />
    <glyph glyph-name="uni4E07" unicode="&#x4e07;" 
d="M62 749h876v-69h-515v-44q-2 -97 -10 -171h431q-3 -399 -35 -475q-36 -78 -120 -78q-33 0 -145 4l-18 69l145 -5q63 3 81 70q16 71 19 349h-366q-22 -142 -65 -239q-78 -166 -253 -258l-40 63q170 92 238 250q62 161 67 421v44h-290v69z" />
    <glyph glyph-name="uni4E09" unicode="&#x4e09;" 
d="M113 741h776v-70h-776v70zM186 395h629v-70h-629v70zM51 25h898v-72h-898v72z" />
    <glyph glyph-name="uni4E0A" unicode="&#x4e0a;" 
d="M416 817h74v-309h371v-70h-371v-428h456v-70h-890v70h360v807z" />
    <glyph glyph-name="uni4E0B" unicode="&#x4e0b;" 
d="M55 764h889v-71h-434v-151q186 -93 378 -216l-43 -64q-197 131 -335 204v-568h-73v795h-382v71z" />
    <glyph glyph-name="uni4E0E" unicode="&#x4e0e;" 
d="M315 620l-17 -158h556q0 -420 -46 -489q-45 -63 -194 -63q-63 0 -134 3l-19 66q116 -7 138 -7q129 0 156 61q27 63 27 361h-565l46 427l73 -6l-13 -125h565v-70h-573zM58 230h623v-70h-623v70z" />
    <glyph glyph-name="uni4E13" unicode="&#x4e13;" 
d="M51 512h286q13 49 31 124h-249v67h264q9 41 25 121l74 -6l-23 -115h431v-67h-446q-14 -62 -30 -124h535v-70h-554q-14 -48 -43 -132h476v-62q-74 -114 -226 -223q83 -30 173 -73l-40 -63q-222 110 -464 175l38 56q100 -27 216 -67q137 90 218 190h-494q39 105 68 199
h-266v70z" />
    <glyph glyph-name="uni4E16" unicode="&#x4e16;" 
d="M49 579h128v226h73v-226h204v235h71v-235h203v235h71v-235h151v-69h-151v-315h-345v315h-204v-498h666v-73h-739v571h-128v69zM525 510v-245h203v245h-203z" />
    <glyph glyph-name="uni4E1A" unicode="&#x4e1a;" 
d="M355 807h73v-795h142v795h73v-795h300v-70h-886v70h298v795zM916 607q-60 -262 -151 -457l-65 23q88 178 152 452zM143 627q79 -206 140 -465l-66 -17q-54 240 -135 462z" />
    <glyph glyph-name="uni4E1C" unicode="&#x4e1c;" 
d="M78 696h247q28 61 55 131l71 -16q-21 -53 -48 -115h510v-70h-542q-72 -141 -157 -247h270v148h73v-148h315v-67h-315v-318q0 -92 -95 -92h-104l-15 71q55 -5 94 -5q47 0 47 44v300h-346l-17 63q93 100 171 251h-214v70zM338 189q-99 -136 -244 -239l-46 60
q143 97 240 223zM721 234q134 -115 229 -236l-53 -52q-78 110 -224 242z" />
    <glyph glyph-name="uni4E1D" unicode="&#x4e1d;" 
d="M57 12h886v-69h-886v69zM368 776q-94 -192 -191 -309q74 7 171 20q23 39 63 110l67 -22q-135 -238 -268 -374q135 12 264 38l13 -66q-169 -30 -381 -45l-13 68q90 39 213 225q-97 -13 -200 -24l-17 65q15 6 29 26q104 137 181 316zM793 777q-93 -192 -191 -310
q77 7 172 20l61 106l68 -22q-133 -236 -263 -369q146 12 271 36l14 -66q-168 -28 -388 -43l-13 68q90 40 209 224l-202 -24l-18 64q17 8 30 27q103 136 182 316z" />
    <glyph glyph-name="uni4E25" unicode="&#x4e25;" 
d="M135 778h772v-68h-263v-248h283v-69h-713v-140q-6 -223 -123 -356l-54 48q99 111 105 308v209h255v248h-262v68zM464 462h113v248h-113v-248zM847 657q-27 -91 -71 -161l-59 21q41 63 71 156zM243 671q44 -71 75 -151l-58 -26q-35 89 -78 157z" />
    <glyph glyph-name="uni4E2D" unicode="&#x4e2d;" 
d="M463 821h74v-180h359v-470h-72v63h-287v-341h-74v341h-286v-63h-72v470h358v180zM177 304h286v267h-286v-267zM537 304h287v267h-287v-267z" />
    <glyph glyph-name="uni4E30" unicode="&#x4e30;" 
d="M146 446h317v161h-363v70h363v138h74v-138h371v-70h-371v-161h325v-72h-325v-159h395v-71h-395v-243h-74v243h-392v71h392v159h-317v72z" />
    <glyph glyph-name="uni4E34" unicode="&#x4e34;" 
d="M251 815h72v-912h-72v912zM915 368v-461h-69v52h-350v-52h-69v461h488zM496 27h144v274h-144v-274zM707 301v-274h139v274h-139zM668 589q86 -89 131 -150l-56 -40q-49 72 -132 155zM82 690h70v-623h-70v623zM532 623q-54 -105 -122 -185l-50 59q108 124 177 326l72 -17
q-24 -66 -43 -111h377v-72h-411z" />
    <glyph glyph-name="uni4E39" unicode="&#x4e39;" 
d="M57 370h192l1 19v387h546v-406h147v-69h-147v-298q0 -92 -95 -92h-114l-19 70q60 -3 112 -3q42 0 42 51v272h-404q-24 -243 -157 -401l-55 50q116 143 139 351h-188v69zM722 370v340h-399v-328l-1 -12h400zM468 654q99 -109 154 -192l-56 -40q-56 87 -156 196z" />
    <glyph glyph-name="uni4E3B" unicode="&#x4e3b;" 
d="M464 576h-372v71h378q-25 77 -62 153l70 19q36 -83 58 -157l-39 -15h412v-71h-372v-236h324v-67h-324v-268h407v-71h-887v71h407v268h-324v67h324v236z" />
    <glyph glyph-name="uni4E3D" unicode="&#x4e3d;" 
d="M58 764h884v-68h-884v68zM294 -95l-18 66l71 -3q38 0 38 42v513h-199v-624h-67v692h333v-596q0 -90 -83 -90h-75zM267 430q54 -122 89 -253l-58 -25q-39 149 -85 256zM729 -94l-18 66l65 -3q37 0 37 36v518h-199v-623h-67v691h333v-600q0 -85 -82 -85h-69zM698 431
q51 -118 91 -258l-58 -25q-39 150 -87 261z" />
    <glyph glyph-name="uni4E45" unicode="&#x4e45;" 
d="M80 -99l-41 71q400 162 606 626h-305q-93 -145 -238 -255l-48 63q228 171 309 420l79 -9q-24 -78 -60 -146h349v-62q-65 -162 -153 -292q113 -217 380 -347l-56 -66q-254 141 -370 349q-184 -238 -452 -352z" />
    <glyph glyph-name="uni4E4B" unicode="&#x4e4b;" 
d="M458 821q46 -77 90 -179h312v-54q-174 -332 -512 -506l7 -7q65 -72 168 -81q69 -3 199 -3q63 0 220 5l-17 -72h-192q-132 0 -189 3q-160 3 -245 110q-28 33 -50 33q-41 0 -125 -167l-58 40q99 202 185 202q21 0 34 -9l10 -6q312 164 477 442h-646v70h344q-41 92 -94 165z
" />
    <glyph glyph-name="uni4E50" unicode="&#x4e50;" 
d="M105 356q50 231 70 390q27 -4 58 -6q354 1 576 71l34 -61q-227 -65 -609 -71q-20 -119 -49 -253h286v192h74v-192h365v-70h-365v-351q0 -101 -94 -101h-134l-15 71q72 -5 124 -5q45 0 45 53v333h-366zM298 248q-79 -178 -181 -305l-62 44q105 124 180 292zM745 285
q94 -147 174 -314l-67 -34q-80 179 -171 317z" />
    <glyph glyph-name="uni4E54" unicode="&#x4e54;" 
d="M72 552h297q45 68 74 135q-153 -10 -293 -10l-22 64q416 2 689 73l35 -61q-143 -41 -331 -59q-31 -78 -69 -142h475v-70h-256q86 -119 288 -214l-47 -60q-226 123 -316 274h-190q-122 -167 -315 -278l-47 57q165 95 272 221h-244v70zM622 353h72v-454h-72v454zM314 354
h71v-67q-4 -156 -62 -251q-58 -86 -188 -136l-38 60q121 46 169 121q45 81 48 206v67z" />
    <glyph glyph-name="uni4E5D" unicode="&#x4e5d;" 
d="M364 815h72v-216h298v-568q0 -45 49 -45h49q41 0 50 55q6 68 6 144l68 -20q-9 -139 -18 -171q-18 -79 -106 -79h-61q-111 0 -111 105v507h-226q-12 -239 -85 -385q-80 -151 -260 -235l-43 67q179 85 247 224q58 129 69 329h-253v72h255v216z" />
    <glyph glyph-name="uni4E61" unicode="&#x4e61;" 
d="M876 428q-33 -218 -199 -351q-143 -118 -514 -187l-31 72q338 57 488 165q58 43 99 98q-198 -28 -515 -49l-22 64q154 77 322 233q-175 -19 -334 -26l-18 64q174 134 304 318l71 -26q-115 -163 -269 -288q146 7 312 23q67 68 144 158l70 -34q-253 -288 -453 -412
q230 17 428 43q31 67 44 142z" />
    <glyph glyph-name="uni4E66" unicode="&#x4e66;" 
d="M409 821h72v-175h293v-35l-20 -234h142q-1 -287 -47 -337q-20 -22 -60 -31q-38 -7 -65 -7h-66l-19 68l97 -1q45 1 64 25q20 25 25 214h-344v-409h-72v409h-355v69h355v200h-298v69h298v175zM481 377h203l19 200h-222v-200zM733 817q112 -58 203 -135l-38 -60
q-100 91 -202 141z" />
    <glyph glyph-name="uni4E70" unicode="&#x4e70;" 
d="M154 499q115 -47 209 -111l-37 -58q-103 77 -207 118zM246 639q113 -46 206 -112l-37 -57q-103 78 -203 118zM522 639h71v-210q-3 -79 -20 -151h372v-70h-396q-14 -32 -22 -46q218 -97 396 -210l-49 -54q-189 120 -383 210l-16 -20q-110 -119 -357 -185l-41 64
q248 64 347 171q28 34 45 70h-397v70h426q21 69 24 151v210zM110 758h762v-45q-21 -86 -59 -178l-68 19q30 59 52 137h-687v67z" />
    <glyph glyph-name="uni4E7E" unicode="&#x4e7e;" 
d="M57 723h175v93h73v-93h179v-66h-179v-85h149v-360h-149v-89h182v-65h-182v-160h-73v160h-190v65h190v89h-146v360h146v85h-175v66zM386 272v92h-232v-92h232zM154 422h232v90h-232v-90zM602 617q-37 -68 -78 -119l-46 56q83 101 135 264l67 -15q-22 -67 -45 -118h309v-68
h-342zM534 466h358v-63q-118 -123 -186 -212q-62 -77 -84 -116q-21 -37 -21 -56q0 -38 50 -38h160q32 0 51 25q14 25 22 164l64 -22q-12 -165 -42 -198q-30 -32 -95 -34h-175q-111 0 -111 90q0 30 23 70q23 42 97 140q64 87 151 182h-262v68z" />
    <glyph glyph-name="uni4E8B" unicode="&#x4e8b;" 
d="M168 636h296v62h-392v62h392v60h72v-60h392v-62h-392v-62h296v-195h-296v-62h310v-135h109v-59h-109v-131h-310v-66q0 -84 -89 -84h-123l-15 68q67 -5 114 -5q41 0 41 38v49h-329v58h329v73h-419v59h419v77h-329v58h329v62h-296v195zM760 496v85h-224v-85h224zM464 496
v85h-224v-85h224zM536 321v-77h241v77h-241zM777 185h-241v-73h241v73z" />
    <glyph glyph-name="uni4E8E" unicode="&#x4e8e;" 
d="M121 778h751v-70h-327v-272h397v-72h-397v-355q0 -98 -101 -98h-156l-15 69q102 -4 146 -4q53 0 53 51v337h-414v72h414v272h-351v70z" />
    <glyph glyph-name="uni4E91" unicode="&#x4e91;" 
d="M149 759h712v-70h-712v70zM53 480h897v-72h-480q-136 -280 -241 -394q269 15 538 51q-54 96 -120 198l58 36q136 -204 213 -361l-64 -45q-26 56 -52 106q-289 -37 -664 -62l-19 73q6 2 17 7q97 73 254 391h-337v72z" />
    <glyph glyph-name="uni4E92" unicode="&#x4e92;" 
d="M74 774h850v-70h-526l-41 -165h432l-80 -534h241v-70h-894v70h582l28 176h-470l129 523h-251v70zM677 248l35 224h-372l-56 -224h393z" />
    <glyph glyph-name="uni4E94" unicode="&#x4e94;" 
d="M145 443h227l52 246h-330v70h813v-70h-411l-52 -246h337v-429h164v-71h-889v71h226l75 359h-212v70zM354 14h354v359h-279z" />
    <glyph glyph-name="uni4E9A" unicode="&#x4e9a;" 
d="M89 758h822v-69h-269v-675h301v-71h-886v71h299v675h-267v69zM427 14h144v675h-144v-675zM885 534q-50 -224 -133 -399l-62 24q73 148 131 391zM171 540q73 -166 129 -383l-63 -17q-51 195 -129 379z" />
    <glyph glyph-name="uni4EA4" unicode="&#x4ea4;" 
d="M58 698h413q-26 60 -60 112l80 14q34 -64 58 -126h394v-69h-885v69zM658 599q169 -134 279 -263l-53 -53q-96 122 -275 269zM734 383q-72 -138 -175 -238q160 -116 395 -176l-45 -67q-245 70 -405 194q-168 -135 -408 -198l-44 66q236 60 394 180q-108 98 -180 226l62 35
q65 -121 173 -214q104 98 167 221zM388 552q-115 -150 -282 -260l-46 61q165 106 276 245z" />
    <glyph glyph-name="uni4EA6" unicode="&#x4ea6;" 
d="M255 484q-50 -212 -145 -371l-64 41q96 156 138 345zM794 502q89 -174 156 -367l-69 -30q-71 213 -156 374zM490 815q28 -57 54 -127h387v-70h-275v-606q0 -104 -101 -104h-109l-15 69q57 -5 99 -5q54 0 54 58v588h-159v-154q-6 -387 -239 -563l-53 47q218 162 221 516
v154h-283v70h396q-24 60 -56 114z" />
    <glyph glyph-name="uni4EA7" unicode="&#x4ea7;" 
d="M502 830q25 -54 47 -116h351v-69h-174q-19 -83 -49 -152h244v-69h-718v-148q-6 -235 -109 -375l-55 49q88 118 91 326v217h205l-42 152h-183v69h366q-19 51 -49 103zM406 493h202q35 75 49 152h-293z" />
    <glyph glyph-name="uni4EA8" unicode="&#x4ea8;" 
d="M196 592h607v-206h-607v206zM734 446v85h-469v-85h469zM497 824q24 -51 40 -96h393v-68h-860v68h393q-21 45 -45 84zM478 162q86 30 224 83h-585v65h735v-51q-138 -64 -303 -128v-138q0 -89 -86 -89h-138l-20 67q110 -4 129 -4q44 0 44 46v149z" />
    <glyph glyph-name="uni4EAB" unicode="&#x4eab;" 
d="M201 605h599v-202h-599v202zM731 465v78h-461v-78h461zM489 819q26 -41 45 -86h400v-68h-868v68h389q-25 43 -48 73zM44 150h438v39q110 43 219 88h-560v65h702v-52q-117 -54 -290 -121v-19h403v-66h-403v-93q0 -91 -89 -91h-141l-19 66q93 -5 132 -5q46 0 46 51v72h-438
v66z" />
    <glyph glyph-name="uni4EAC" unicode="&#x4eac;" 
d="M182 545h637v-280h-279v-267q0 -90 -91 -90h-108l-16 69q57 -5 99 -5q44 0 44 44v249h-286v280zM747 334v142h-493v-142h493zM488 822q25 -53 45 -113h410v-67h-886v67h403q-23 60 -46 100zM716 201q138 -115 230 -225l-53 -53q-82 107 -224 231zM333 154
q-99 -135 -236 -232l-45 58q135 92 231 220z" />
    <glyph glyph-name="uni4EAD" unicode="&#x4ead;" 
d="M208 216h583v-60h-252v-161q0 -89 -95 -89h-101l-15 67q53 -5 93 -5q44 0 44 45v143h-257v60zM81 732h384q-21 51 -38 80l74 12q19 -43 35 -92h383v-64h-838v64zM215 606h570v-186h-570v186zM713 477v72h-426v-72h426zM913 352v-172h-72v112h-682v-114h-72v174h826z" />
    <glyph glyph-name="uni4EAE" unicode="&#x4eae;" 
d="M57 738h408q-22 43 -48 77l78 12q23 -39 45 -89h403v-64h-886v64zM227 609h546v-195h-546v195zM702 472v79h-404v-79h404zM913 352v-171h-72v107h-683v-107h-72v171h827zM306 220h384v-209q0 -39 38 -39h87q22 0 37 10q15 12 27 120l65 -21q-12 -110 -32 -138
q-21 -33 -85 -33h-117q-91 0 -91 87v161h-241v-20q-8 -196 -274 -242l-41 60q243 39 243 192v72z" />
    <glyph glyph-name="uni4EB2" unicode="&#x4eb2;" 
d="M652 177q159 -75 291 -183l-38 -61q-142 121 -289 190zM378 126q-117 -113 -295 -188l-30 65q169 66 280 174zM504 822q21 -48 39 -111h328v-65h-740v65h339q-19 54 -42 99zM83 470h230q-29 68 -64 121l67 25q36 -55 71 -146h236q38 69 67 148l69 -24q-29 -70 -62 -124
h221v-68h-378v-115h346v-65h-346v-229q0 -93 -94 -93h-114l-15 69q60 -5 104 -5q48 0 48 48v210h-355v65h355v115h-386v68z" />
    <glyph glyph-name="uni4EBF" unicode="&#x4ebf;" 
d="M166 463q-44 -60 -112 -131l-23 75q167 185 241 419l67 -32q-39 -116 -99 -220v-676h-74v565zM384 721h505v-63q-213 -213 -297 -311q-92 -105 -125 -178q-28 -59 -28 -97q0 -28 18 -49q20 -22 80 -22h267q47 2 66 36q18 36 18 164l69 -21q0 -153 -30 -200t-101 -47h-302
q-85 0 -121 34q-36 42 -36 105q0 49 28 111q38 85 137 196q97 116 250 272h-398v70z" />
    <glyph glyph-name="uni4EC1" unicode="&#x4ec1;" 
d="M371 655h528v-70h-528v70zM315 76h638v-69h-638v69zM167 458q-49 -65 -111 -130l-23 75q167 185 241 420l67 -32q-42 -120 -100 -221v-668h-74v556z" />
    <glyph glyph-name="uni4ECB" unicode="&#x4ecb;" 
d="M630 480h72v-572h-72v572zM293 477h72v-181q-4 -272 -179 -398l-53 47q157 109 160 351v181zM526 812q185 -219 427 -345l-35 -64q-244 130 -418 341q-158 -201 -416 -350l-35 64q256 143 425 354h52z" />
    <glyph glyph-name="uni4ED1" unicode="&#x4ed1;" 
d="M527 813q187 -242 434 -384l-38 -67q-248 146 -423 385q-159 -227 -422 -393l-37 68q258 155 432 391h54zM374 -83q-129 0 -129 142v407h71v-209q228 53 440 154l43 -59q-253 -111 -483 -162v-119q0 -88 77 -88h278q43 0 73 18q37 24 48 173l69 -22q-18 -170 -59 -204
q-38 -29 -113 -31h-315z" />
    <glyph glyph-name="uni4ED3" unicode="&#x4ed3;" 
d="M526 813q186 -225 432 -354l-36 -64q-250 136 -422 353q-164 -207 -425 -356l-36 65q260 142 435 356h52zM673 392h-351v-349q0 -59 64 -59h296q85 0 106 30q22 34 32 132l67 -22q-15 -146 -52 -179q-37 -28 -134 -28h-344q-108 0 -108 102v439h496v-231q-2 -93 -86 -98
q-75 0 -144 3l-19 69q75 -6 137 -6q40 0 40 54v143z" />
    <glyph glyph-name="uni4ED5" unicode="&#x4ed5;" 
d="M338 787q-38 -115 -101 -219v-670h-72v563q-53 -70 -111 -128l-22 75q163 177 239 411zM301 523h289v295h74v-295h289v-70h-289v-448h252v-71h-575v71h249v448h-289v70z" />
    <glyph glyph-name="uni4ED8" unicode="&#x4ed8;" 
d="M332 794q-31 -97 -82 -197v-699h-72v580q-51 -76 -122 -151l-22 75q159 185 231 424zM353 600h383v215h72v-215h144v-70h-144v-522q0 -102 -94 -102h-145l-16 71q78 -5 136 -5q47 0 47 54v504h-383v70zM445 421q115 -136 176 -236l-61 -43q-64 110 -174 243z" />
    <glyph glyph-name="uni4ED9" unicode="&#x4ed9;" 
d="M338 795q-39 -118 -101 -224v-673h-72v564q-53 -70 -109 -128l-23 77q163 180 239 416zM611 813h73v-779h159v598h73v-727h-73v59h-399v-59h-71v726h71v-597h167v779z" />
    <glyph glyph-name="uni4EDF" unicode="&#x4edf;" 
d="M319 795q-30 -98 -77 -193v-701h-74v573q-55 -82 -112 -145l-23 75q151 185 218 423zM319 405h282v256q-95 -15 -221 -28l-15 68q284 24 503 90l25 -66q-102 -30 -219 -51v-269h279v-70h-279v-432h-73v432h-282v70z" />
    <glyph glyph-name="uni4EE3" unicode="&#x4ee3;" 
d="M911 578l11 -69l-330 -42q9 -96 24 -165q36 -156 100 -242q58 -80 110 -82q40 1 61 191l63 -36q-20 -124 -52 -183q-27 -43 -68 -45q-74 0 -152 95q-85 104 -127 273q-20 76 -30 185l-217 -28l-11 69l222 29q-10 126 -12 291h74q0 -160 9 -282zM168 461
q-44 -60 -112 -131l-23 75q163 180 239 416l67 -32q-40 -117 -97 -215v-676h-74v563zM686 812q92 -77 155 -152l-50 -49q-52 71 -151 156z" />
    <glyph glyph-name="uni4EEC" unicode="&#x4eec;" 
d="M722 -92l-18 67l98 -2q45 0 45 56v654h-243v69h314v-743q0 -101 -101 -101h-95zM462 817q69 -86 109 -156l-57 -40q-39 73 -107 161zM338 793q-38 -116 -101 -225v-670h-72v561q-53 -70 -108 -127l-23 73q164 182 239 418zM360 647h70v-746h-70v746z" />
    <glyph glyph-name="uni4EF0" unicode="&#x4ef0;" 
d="M320 98q24 9 24 38v586q126 36 198 83l41 -58q-66 -41 -173 -74v-546q81 27 156 60l13 -67q-94 -39 -241 -85zM159 475q-42 -70 -100 -144l-23 77q131 181 191 413l66 -30q-25 -91 -67 -186v-703h-67v573zM753 24l-18 70l61 -3q47 0 47 59v529h-151v-775h-70v842h289
v-611q0 -111 -92 -111h-66z" />
    <glyph glyph-name="uni4EF6" unicode="&#x4ef6;" 
d="M330 792q-39 -118 -99 -225v-668h-71v558q-48 -66 -105 -126l-23 77q157 178 230 415zM501 748q-12 -77 -33 -142h147v208h72v-208h230v-70h-230v-241h267v-69h-267v-322h-72v322h-294v69h294v241h-170q-37 -99 -93 -177l-46 60q91 137 124 338z" />
    <glyph glyph-name="uni4EF7" unicode="&#x4ef7;" 
d="M167 470q-46 -68 -106 -134l-24 76q149 179 214 405l68 -31q-31 -100 -78 -192v-691h-74v567zM708 467h70v-558h-70v558zM451 464h69v-151q-3 -283 -147 -415l-54 47q129 114 132 368v151zM643 812q92 -199 322 -352l-41 -61q-210 140 -314 344q-120 -229 -301 -355
l-40 61q201 140 309 363h65z" />
    <glyph glyph-name="uni4F01" unicode="&#x4f01;" 
d="M526 814q191 -210 438 -330l-39 -69q-246 126 -425 335q-162 -195 -429 -336l-38 69q262 131 441 331h52zM492 550h73v-225h273v-69h-273v-246h345v-70h-832v70h151v396h71v-396h192v540z" />
    <glyph glyph-name="uni4F0A" unicode="&#x4f0a;" 
d="M871 250h-269q-15 -85 -45 -149q-70 -136 -212 -200l-39 61q123 57 185 172q25 50 38 116h-166v68h177q7 77 7 146h-225v68h225v148h-169v67h493v-215h85v-68h-85v-214zM619 680v-148h180v148h-180zM619 464v-4q0 -65 -7 -142h187v146h-180zM167 474q-47 -70 -112 -144
l-24 76q152 183 221 421l67 -32q-33 -103 -78 -194v-703h-74v576z" />
    <glyph glyph-name="uni4F0D" unicode="&#x4f0d;" 
d="M358 438h159l32 249h-191v69h555v-69h-293l-32 -249h251v-431h112v-69h-650v69h162l45 361h-150v70zM534 7h236v361h-191zM338 791q-38 -116 -100 -225v-668h-72v559q-42 -57 -106 -125l-24 76q163 183 236 415z" />
    <glyph glyph-name="uni4F17" unicode="&#x4f17;" 
d="M527 814q183 -231 421 -363l-38 -67q-240 140 -410 365q-158 -212 -417 -367l-37 67q257 147 427 365h54zM351 463q0 -102 -14 -189q93 -87 159 -174l-51 -51q-45 70 -122 155l-9 -31q-48 -156 -218 -254l-45 55q146 85 194 214q37 111 37 275h69zM702 472q0 -90 -9 -167
q75 -210 262 -333l-47 -55q-155 110 -235 273l-4 -16q-42 -159 -197 -261l-44 54q130 89 172 221q31 111 33 284h69z" />
    <glyph glyph-name="uni4F18" unicode="&#x4f18;" 
d="M173 467q-51 -70 -116 -138l-21 72q161 181 235 415l65 -30q-35 -105 -91 -207v-679h-72v567zM317 573h196q2 40 2 60v181h70v-181q0 -20 -2 -60h345v-70h-203v-494q0 -27 28 -27h83q18 0 31 16q14 23 19 159l65 -21q-10 -158 -33 -191q-23 -28 -64 -29h-121
q-77 0 -77 80v507h-77q-33 -401 -241 -600l-53 46q194 184 224 554h-192v70zM722 798q95 -65 162 -134l-49 -50q-57 65 -159 139z" />
    <glyph glyph-name="uni4F19" unicode="&#x4f19;" 
d="M174 461q-53 -70 -103 -121l-24 76q156 174 229 401l67 -31q-39 -117 -99 -219v-665h-70v559zM481 633q-17 -177 -79 -311l-65 20q62 128 77 299zM668 809q0 -87 -4 -251q0 -43 -5 -93q66 -336 299 -509l-49 -55q-208 172 -275 424q-66 -251 -278 -426l-49 54
q282 222 288 591l1 265h72zM923 640q-36 -173 -90 -304l-65 23q51 117 90 299z" />
    <glyph glyph-name="uni4F1A" unicode="&#x4f1a;" 
d="M526 817q191 -213 438 -336l-39 -69q-246 129 -425 341q-162 -198 -429 -342l-38 69q265 135 441 337h52zM256 510h491v-68h-491v68zM99 309h804v-70h-471q-72 -141 -174 -246q251 14 466 43q-60 78 -112 136l56 36q138 -154 210 -265l-60 -42q-27 42 -55 82
q-235 -38 -592 -59l-20 63q26 7 38 19q99 114 161 233h-251v70z" />
    <glyph glyph-name="uni4F1F" unicode="&#x4f1f;" 
d="M345 701h234v112h74v-112h262v-67h-262v-125h219v-68h-219v-123h280q0 -219 -33 -267q-33 -46 -116 -49h-46l-19 65h46q64 3 80 34q15 33 18 149h-210v-350h-74v350h-264v68h264v123h-196v68h196v125h-234v67zM167 461q-53 -68 -111 -128l-23 77q163 178 239 411l68 -32
q-38 -113 -101 -221v-670h-72v563z" />
    <glyph glyph-name="uni4F26" unicode="&#x4f26;" 
d="M652 814q91 -186 313 -325l-41 -62q-203 129 -304 318q-119 -208 -303 -323l-41 63q203 127 312 329h64zM530 -84q-102 0 -102 100v440h73v-176q159 47 309 132l42 -59q-187 -97 -351 -143v-179q0 -46 52 -46h206q44 0 64 22q23 24 32 153l69 -23q-14 -158 -50 -191
q-31 -30 -102 -30h-242zM335 793q-40 -119 -97 -219v-676h-74v563q-51 -68 -107 -127l-23 77q162 181 233 413z" />
    <glyph glyph-name="uni4F2F" unicode="&#x4f2f;" 
d="M182 475q-51 -69 -121 -141l-24 76q167 179 243 409l66 -32q-36 -103 -92 -203v-684h-72v575zM902 667v-762h-71v50h-371v-50h-71v762h159q30 72 45 152l74 -10q-18 -75 -48 -142h283zM460 24h371v258h-371v-258zM460 349h371v249h-371v-249z" />
    <glyph glyph-name="uni4F30" unicode="&#x4f30;" 
d="M328 790q-39 -121 -99 -227v-665h-72v554q-46 -63 -102 -123l-23 76q156 182 228 417zM324 618h273v198h74v-198h285v-69h-285v-209h220v-439h-71v44h-365v-44h-72v439h214v209h-273v69zM455 14h365v257h-365v-257z" />
    <glyph glyph-name="uni4F34" unicode="&#x4f34;" 
d="M433 760q45 -83 83 -203l-67 -17q-32 99 -83 198zM902 761q-37 -132 -92 -225l-66 23q52 89 89 220zM341 490h253v325h74v-325h261v-69h-261v-164h288v-70h-288v-287h-74v287h-283v70h283v164h-253v69zM326 791q-39 -117 -96 -223v-670h-71v558q-48 -67 -100 -123l-24 77
q155 182 223 412z" />
    <glyph glyph-name="uni4F4F" unicode="&#x4f4f;" 
d="M325 646h277q-26 80 -60 152l72 19q35 -85 55 -158l-34 -13h297v-71h-264v-239h236v-69h-236v-263h285v-71h-644v71h285v263h-238v69h238v239h-269v71zM333 791q-39 -117 -99 -223v-670h-71v562q-47 -64 -105 -124l-23 76q159 178 231 410z" />
    <glyph glyph-name="uni4F51" unicode="&#x4f51;" 
d="M339 780q-39 -118 -102 -225v-652h-72v545q-44 -60 -106 -124l-24 76q163 181 236 411zM881 375v-471h-70v60h-270v-60h-70v378q-70 -105 -155 -174l-36 65q173 149 253 416h-186v67h204q18 78 30 162l72 -9q-12 -81 -30 -153h314v-67h-331q-33 -117 -81 -214h356z
M541 30h270v280h-270v-280z" />
    <glyph glyph-name="uni4F53" unicode="&#x4f53;" 
d="M161 439q-45 -65 -101 -129l-21 72q156 192 225 439l65 -30q-40 -128 -97 -236v-656h-71v540zM312 646h265v172h71v-172h273v-70h-211q71 -250 250 -441l-47 -59q-184 223 -255 500h-10v-401h155v-69h-155v-206h-71v206h-153v69h153v401h-11q-76 -312 -261 -510l-37 61
q171 174 246 449h-202v70z" />
    <glyph glyph-name="uni4F5B" unicode="&#x4f5b;" 
d="M316 794q-35 -115 -92 -224v-672h-69v559q-45 -64 -96 -123l-23 74q148 185 215 416zM384 438l-17 -134h100q7 56 10 134h-93zM546 438q-3 -77 -10 -134h118v134h-108zM723 438v-134h210q0 -194 -20 -246q-22 -55 -96 -57q-19 0 -49 2l-18 66q40 -4 55 -4q42 0 51 42
q9 36 9 133h-142v-341h-69v341h-127q-16 -84 -38 -141q-52 -130 -173 -204l-39 62q112 72 157 192q14 44 23 91h-162l29 261h154v133h-153v65h153v114h69v-114h107v114h69v-114h176v-261h-176zM547 634v-133h107v133h-107zM723 634v-133h111v133h-111z" />
    <glyph glyph-name="uni4F5C" unicode="&#x4f5c;" 
d="M484 605q-68 -144 -159 -253l-51 61q133 158 217 410l72 -16q-26 -74 -48 -131h432v-71h-336v-165h292v-70h-292v-169h298v-69h-298v-233h-73v706h-54zM164 461q-48 -63 -105 -120l-24 76q163 177 236 403l68 -32q-40 -115 -101 -219v-670h-74v562z" />
    <glyph glyph-name="uni4F73" unicode="&#x4f73;" 
d="M375 696h217v121h74v-121h221v-70h-221v-148h272v-70h-615v70h269v148h-217v70zM364 245h228v127h74v-127h230v-70h-230v-170h288v-71h-648v71h286v170h-228v70zM164 457q-48 -64 -105 -123l-23 77q161 177 235 410l68 -31q-40 -115 -101 -222v-668h-74v557z" />
    <glyph glyph-name="uni4F9D" unicode="&#x4f9d;" 
d="M327 792q-35 -108 -85 -202v-689h-74v568q-51 -73 -114 -141l-23 77q158 184 228 419zM620 816q20 -58 43 -151h260v-69h-230q15 -137 55 -258q87 64 143 132l45 -57q-60 -66 -166 -136q70 -174 191 -291l-43 -69q-244 245 -292 679h-14q-40 -117 -105 -216v-373
q102 33 189 75l13 -69q-120 -54 -288 -102l-15 62q30 12 30 39v272q-63 -72 -138 -132l-39 64q194 148 280 380h-223v69h275q-21 75 -48 139z" />
    <glyph glyph-name="uni4FA8" unicode="&#x4fa8;" 
d="M359 755q269 16 484 59l23 -64q-98 -19 -235 -37q-14 -69 -38 -132h336v-69h-186q74 -121 224 -190l-31 -65q-185 99 -262 255h-110q-8 -17 -26 -49q-76 -114 -225 -204l-45 58q142 75 212 183l7 12h-176v69h210q24 59 36 124q-69 -7 -184 -16zM514 245q0 -197 -149 -348
l-57 51q137 129 137 297v111h69v-111zM161 466q-53 -73 -108 -133l-24 77q157 182 229 418l67 -31q-35 -111 -91 -215v-684h-73v568zM700 356h69v-457h-69v457z" />
    <glyph glyph-name="uni4FDD" unicode="&#x4fdd;" 
d="M326 792q-34 -106 -89 -209v-685h-73v567q-54 -75 -109 -134l-24 77q156 180 227 415zM385 772h472v-315h-201v-109h288v-70h-217q86 -151 234 -261l-46 -63q-148 131 -246 324h-13v-378h-72v378h-12q-100 -208 -253 -325l-40 65q147 101 235 260h-208v70h278v109h-199
v315zM786 526v177h-330v-177h330z" />
    <glyph glyph-name="uni4FE1" unicode="&#x4fe1;" 
d="M154 460q-48 -70 -99 -127l-23 77q146 180 214 416l67 -31q-36 -117 -88 -217v-680h-71v562zM309 685h308q-22 60 -52 116l69 19q30 -64 49 -121l-38 -14h315v-68h-651v68zM401 536h473v-65h-473v65zM401 395h473v-66h-473v66zM892 247v-347h-70v54h-370v-54h-70v347h510
zM452 22h370v158h-370v-158z" />
    <glyph glyph-name="uni4FEA" unicode="&#x4fea;" 
d="M282 791q-27 -102 -66 -191v-701h-65v573q-43 -73 -95 -140l-23 75q128 182 184 414zM306 759h648v-68h-648v68zM463 -96l-17 61l46 -3q36 0 36 46v524h-140v-629h-61v693h261v-601q0 -91 -75 -91h-50zM439 421q40 -109 74 -230l-45 -22q-33 129 -72 231zM791 -95l-16 61
l50 -3q32 0 32 42v527h-141v-628h-60v692h263v-604q0 -87 -73 -87h-55zM769 430q41 -117 74 -243l-45 -23q-32 133 -71 245z" />
    <glyph glyph-name="uni5047" unicode="&#x5047;" 
d="M387 291v-130h186v-67h-186v-195h-70v878h275v-293h-205v-124h185v-69h-185zM911 484h-270v67h200v159h-198v67h268v-293zM609 391h314v-63q-33 -148 -107 -250q71 -77 154 -120l-34 -61q-98 50 -164 127q-74 -80 -182 -130l-39 61q106 50 177 127l-1 1q-69 107 -90 241
h-28v67zM700 324q16 -109 71 -189q57 83 87 189h-158zM387 550h137v160h-137v-160zM137 453q-33 -55 -80 -118l-24 77q122 179 178 412l67 -31q-29 -108 -69 -200v-695h-72v555z" />
    <glyph glyph-name="uni505C" unicode="&#x505c;" 
d="M308 791q-35 -114 -84 -211v-680h-73v555q-43 -65 -92 -121l-24 76q141 180 206 412zM613 822q10 -24 29 -86h285v-64h-619v64h262q-14 41 -30 74zM374 614h476v-189h-476v189zM780 480v79h-336v-79h336zM929 367v-171h-54v-45h-216v-162q0 -82 -88 -82h-113l-15 70
q72 -4 103 -4q39 0 39 34v144h-219v45h-67v171h630zM369 213h491v91h-491v-91z" />
    <glyph glyph-name="uni5065" unicode="&#x5065;" 
d="M893 397h-166v-78h185v-57h-185v-74h216v-60h-216v-102h-69v102h-167v60h167v74h-136v57h136v78h-126v58h126v81h-167v59h167v81h-126v58h126v77h69v-77h166v-139h64v-59h-64v-139zM727 676v-81h102v81h-102zM727 536v-81h102v81h-102zM275 722h198v-59
q-63 -132 -118 -216h124v-41q-4 -183 -60 -309q47 -52 105 -77q80 -35 250 -39q117 0 186 3l-13 -67h-128q-260 2 -353 57q-41 22 -80 61q-52 -81 -124 -131l-35 61q68 49 114 125q-61 86 -97 219l58 22q24 -99 71 -174q37 102 43 229h-145v52q71 99 126 216h-122v68z
M134 455q-38 -62 -76 -111l-23 76q118 172 173 396l65 -30q-28 -102 -69 -197v-690h-70v556z" />
    <glyph glyph-name="uni50A8" unicode="&#x50a8;" 
d="M134 457q-34 -57 -75 -111l-24 77q119 173 171 394l65 -30q-26 -97 -67 -194v-694h-70v558zM339 777q90 -77 147 -149l-53 -53q-54 74 -143 154zM244 506h181v-424q33 35 82 93l17 -71q-71 -90 -160 -169l-29 66q21 18 21 39v399h-112v67zM537 700h120v115h65v-115h113
v-59q30 60 57 123l60 -31q-49 -122 -118 -225h115v-66h-164q-44 -53 -89 -94h204v-446h-68v42h-187v-42h-67v358q-24 -14 -72 -38l-36 57q129 59 227 163h-182v66h142v129h-120v63zM752 508q44 60 81 129h-111v-129h30zM645 117v-110h187v110h-187zM832 177v108h-187v-108
h187z" />
    <glyph glyph-name="uni50B2" unicode="&#x50b2;" 
d="M264 790q-22 -90 -61 -187v-705h-66v568q-37 -66 -81 -126l-24 76q116 178 168 404zM397 801h69v-72h134v-64h-134v-94h115v-62h-115v-98h120l-6 7q82 146 112 396l68 -12q-15 -97 -26 -148h212v-68h-54q-6 -249 -80 -421q64 -128 155 -199l-41 -60q-84 69 -148 188
q-63 -112 -158 -189l-38 60q99 77 160 202q-51 115 -83 259l-35 -63l-28 35v-50h-192q-10 -93 -11 -98h182q-2 -244 -28 -290q-27 -48 -92 -48q-27 0 -66 3l-18 62l70 -5q42 2 54 37q10 33 13 181h-124q-9 -52 -23 -104q-33 -105 -97 -187l-44 56q54 74 81 162q25 90 38 231
h-95v63h153v98h-109v62h109v94h-122v64h122v72zM717 586l-18 -61q31 -163 76 -277q49 147 53 338h-111z" />
    <glyph glyph-name="uni5112" unicode="&#x5112;" 
d="M152 459q-48 -71 -96 -127l-24 75q141 178 208 412l64 -30q-33 -111 -83 -211v-679h-69v560zM936 660v-148h-62v94h-220v-225h-64v225h-219v-93h-62v147h281v63h-245v59h557v-59h-248v-63h282zM517 157h-106v-257h-66v316h207q13 38 20 69h-273v58h648v-58h-307
q-8 -31 -23 -69h295v-234q0 -80 -80 -80h-55l-15 56l52 -2q34 0 34 41v160h-118v-236h-60v236h-94v-236h-59v236zM376 548h168v-47h-168v47zM376 449h168v-47h-168v47zM701 548h168v-47h-168v47zM701 449h168v-47h-168v47z" />
    <glyph glyph-name="uni5143" unicode="&#x5143;" 
d="M150 761h691v-70h-691v70zM73 467h855v-70h-276v-373q0 -43 44 -43h111q33 0 45 23q17 25 23 162l66 -21q-11 -164 -40 -198q-26 -31 -80 -31h-145q-94 0 -94 93v388h-180v-15q-4 -195 -80 -314q-75 -110 -241 -171l-39 61q162 60 226 158q61 104 64 266v15h-259v70z" />
    <glyph glyph-name="uni5146" unicode="&#x5146;" 
d="M661 -75q-101 0 -101 103v783h72v-400q96 -37 149 -66q47 -23 125 -76l-31 -71q-67 53 -134 89q-55 32 -109 51v-295q0 -50 51 -50h130q36 0 52 18q19 24 25 132l68 -22q-11 -141 -43 -170q-28 -26 -89 -26h-165zM157 703q100 -121 148 -204l-59 -41q-51 89 -148 208z
M362 809h72v-337q-4 -227 -84 -365q-78 -126 -257 -197l-40 64q171 69 241 185q38 71 55 168q-119 -75 -263 -138l-21 73q162 62 293 141q2 23 4 69v337zM887 684q-61 -135 -146 -237l-60 43q84 93 144 225z" />
    <glyph glyph-name="uni5148" unicode="&#x5148;" 
d="M237 595q-38 -78 -87 -145l-69 43q111 142 158 310l73 -15q-18 -60 -44 -124h204v152h73v-152h330v-69h-330v-189h399v-69h-273v-293q0 -60 49 -60h96q24 0 39 17q19 23 25 165l69 -22q-12 -164 -40 -200q-28 -28 -74 -29h-136q-102 0 -102 116v306h-186
q-15 -176 -75 -263q-70 -102 -236 -174l-50 64q151 59 217 145q56 74 70 228h-276v69h411v189h-235z" />
    <glyph glyph-name="uni5149" unicode="&#x5149;" 
d="M463 816h74v-371h400v-71h-287v-335q0 -45 42 -45h121q33 0 48 21q18 27 24 155l69 -22q-10 -158 -41 -192q-27 -30 -87 -30h-156q-92 0 -92 98v350h-169v-7q-4 -187 -81 -301q-74 -104 -245 -163l-41 64q165 57 230 149q61 98 64 251v7h-272v71h399v371zM862 736
q-51 -123 -134 -239l-65 33q81 118 132 238zM208 759q73 -104 139 -229l-67 -33q-63 123 -140 230z" />
    <glyph glyph-name="uni514B" unicode="&#x514b;" 
d="M463 819h74v-107h391v-70h-391v-105h277v-291h-172v-211q0 -47 48 -47h121q26 0 44 12q23 17 29 112l68 -22q-14 -124 -42 -149q-29 -22 -80 -23h-161q-98 0 -98 104v224h-162q-15 -138 -74 -208q-70 -79 -238 -140l-46 59q153 48 216 114q54 57 69 175h-150v291h277v105
h-391v70h391v107zM743 314v155h-486v-155h486z" />
    <glyph glyph-name="uni514D" unicode="&#x514d;" 
d="M175 522q-39 -28 -78 -54l-46 55q189 114 310 299l72 -17q-24 -39 -51 -75h345v-55q-64 -80 -124 -132h245v-303h-228v-204q0 -50 43 -50h161q25 0 38 19q14 23 19 136l69 -22q-11 -145 -37 -176q-24 -27 -76 -27h-196q-93 0 -93 105v219h-52q-7 -19 -23 -55
q-80 -173 -373 -286l-46 57q262 96 346 241q4 8 19 43h-244v282zM510 543q65 54 123 121h-304q-58 -66 -127 -121h308zM779 308v168h-243q-3 -96 -20 -168h263zM441 308q20 79 23 168h-219v-168h196z" />
    <glyph glyph-name="uni5168" unicode="&#x5168;" 
d="M526 814q187 -196 435 -311l-36 -64q-248 120 -425 310q-163 -181 -429 -315l-35 63q263 127 438 317h52zM221 498h558v-69h-242v-174h289v-69h-289v-185h380v-71h-833v71h379v185h-290v69h290v174h-242v69z" />
    <glyph glyph-name="uni516C" unicode="&#x516c;" 
d="M395 781q-111 -316 -293 -480l-56 49q187 171 283 457zM672 278q108 -162 188 -346l-67 -31q-20 48 -48 107q-268 -44 -576 -64l-13 69q120 60 302 463l71 -24q-130 -277 -259 -434q245 16 445 50q-54 106 -109 189zM655 814q87 -280 301 -456l-51 -59q-224 186 -311 481
z" />
    <glyph glyph-name="uni516D" unicode="&#x516d;" 
d="M668 382q171 -241 265 -430l-64 -44q-95 193 -263 435zM394 348q-104 -283 -278 -434l-61 52q178 150 269 410zM56 549h888v-70h-888v70zM407 809q115 -81 202 -169l-53 -53q-72 82 -199 175z" />
    <glyph glyph-name="uni5170" unicode="&#x5170;" 
d="M171 308h658v-70h-658v70zM57 19h886v-70h-886v70zM96 577h501q65 117 110 244l71 -25q-46 -119 -109 -219h235v-69h-808v69zM286 811q57 -81 107 -173l-64 -32q-54 99 -111 172z" />
    <glyph glyph-name="uni5171" unicode="&#x5171;" 
d="M104 614h182v208h73v-208h282v204h73v-204h183v-70h-183v-241h232v-70h-892v70h232v241h-182v70zM359 303h282v241h-282v-241zM413 149q-128 -143 -309 -247l-50 64q181 99 305 232zM649 196q172 -115 296 -236l-56 -57q-107 115 -292 243z" />
    <glyph glyph-name="uni5173" unicode="&#x5173;" 
d="M310 813q62 -81 114 -170l-65 -33q-55 98 -115 171zM755 803q-36 -109 -90 -194h206v-70h-334v-47q-3 -83 -14 -139h406v-70h-364q74 -203 388 -315l-42 -67q-329 133 -410 362q-29 -87 -76 -150q-103 -133 -333 -206l-39 63q230 74 320 194q37 55 57 119h-359v70h377
q14 66 15 139v47h-335v70h457q55 84 101 213z" />
    <glyph glyph-name="uni5174" unicode="&#x5174;" 
d="M47 365h559q109 200 185 447l72 -25q-85 -251 -181 -422h271v-70h-906v70zM178 754q74 -132 141 -293l-68 -34q-69 174 -140 295zM421 812q74 -142 137 -310l-66 -33q-68 178 -139 311zM385 208q-100 -170 -244 -298l-59 42q141 121 239 288zM684 244q148 -162 232 -287
l-64 -45q-84 132 -228 294z" />
    <glyph glyph-name="uni5178" unicode="&#x5178;" 
d="M860 689v-471h93v-69h-909v69h97v471h214v135h69v-135h154v135h69v-135h213zM211 218h144v176h-144v-176zM424 218h154v176h-154v-176zM647 218h143v176h-143v-176zM211 459h144v163h-144v-163zM424 622v-163h154v163h-154zM647 622v-163h143v163h-143zM632 126
q169 -70 311 -171l-38 -61q-151 114 -309 177zM410 74q-129 -109 -318 -182l-32 67q184 62 306 166z" />
    <glyph glyph-name="uni517B" unicode="&#x517b;" 
d="M88 710h239q-29 45 -58 79l64 31q37 -49 74 -110h188q37 55 65 113l70 -25q-25 -51 -54 -88h239v-63h-381l-24 -79h352v-61h-376q-18 -40 -41 -80h489v-63h-251q90 -106 277 -168l-31 -66q-143 58 -229 132v-360h-74v366h67q-51 45 -84 96h-205q-120 -163 -321 -232
l-38 63q167 53 270 169h-249v63h297q22 33 46 80h-268v61h293l25 79h-371v63zM329 268h74v-75q-4 -115 -63 -186q-57 -66 -185 -102l-40 61q122 32 169 85q42 54 45 142v75z" />
    <glyph glyph-name="uni5180" unicode="&#x5180;" 
d="M603 45q162 -30 309 -90l-23 -57q-148 65 -310 100zM421 4q-118 -62 -303 -103l-28 59q178 33 293 87zM365 815h65v-236h-65v37q-105 -18 -284 -30l-9 61q176 6 293 24v51h-281v54h281v39zM188 553h629v-264h-126v-58h187v-57h-187v-66h240v-57h-862v57h240v66h-182v57
h182v58h-121v264zM377 108h246v66h-246v-66zM623 231v58h-246v-58h246zM749 339v59h-214v-59h214zM469 339v59h-213v-59h213zM256 445h213v56h-213v-56zM535 501v-56h214v56h-214zM902 758q-126 -41 -297 -70v-23q0 -28 55 -28h145q30 0 43 9q16 10 22 60l59 -19
q-9 -73 -37 -92q-25 -14 -75 -14h-175q-105 0 -105 70v165h68v-74q141 25 261 65z" />
    <glyph glyph-name="uni5185" unicode="&#x5185;" 
d="M262 123l-48 59q168 111 222 277q17 59 27 127h-285v-685h-73v755h366q8 82 8 164h73q0 -76 -7 -164h351v-644q0 -101 -97 -101h-157l-20 72l153 -4q48 0 48 49v558h-286q-8 -63 -19 -107q153 -144 262 -290l-54 -55q-85 126 -229 273q-61 -170 -235 -284z" />
    <glyph glyph-name="uni518C" unicode="&#x518c;" 
d="M46 418h118v360h284v-360h112v360h286v-360h108v-69h-108v-357q0 -81 -88 -81h-93l-19 68q48 -3 90 -3q39 0 39 42v331h-146v-51q-3 -246 -91 -397l-53 47q72 135 75 345v56h-112v-355q0 -83 -78 -83h-94l-18 68q48 -3 90 -3q31 0 31 42v331h-145v-49q-3 -247 -102 -400
l-53 49q82 134 85 345v55h-118v69zM775 418v294h-146v-294h146zM379 418v294h-145v-294h145z" />
    <glyph glyph-name="uni518D" unicode="&#x518d;" 
d="M84 771h833v-68h-381v-105h295v-377h115v-68h-115v-146q0 -104 -91 -104h-94l-19 70l90 -3q44 0 44 53v130h-522v-253h-70v253h-115v68h115v377h295v105h-380v68zM239 221h225v127h-225v-127zM536 221h225v127h-225v-127zM239 411h225v121h-225v-121zM536 532v-121h225
v121h-225z" />
    <glyph glyph-name="uni5199" unicode="&#x5199;" 
d="M345 494q-16 -62 -38 -132h537q-5 -367 -49 -414q-37 -40 -162 -42h-87l-20 67q80 -2 110 -2q80 1 104 29q28 32 32 295h-556q64 214 95 371l71 -7q-9 -45 -21 -97h408v-68h-424zM73 175h600v-69h-600v69zM899 775v-217h-71v149h-656v-148h-71v216h798z" />
    <glyph glyph-name="uni519C" unicode="&#x519c;" 
d="M888 666v-220h-71v152h-270q30 -184 111 -328q93 65 163 147l55 -49q-74 -86 -182 -156q93 -139 242 -241l-42 -67q-338 245 -410 675q-63 -150 -159 -264v-318q130 38 241 94l12 -68q-134 -64 -334 -121l-15 65q26 12 26 42v232q-79 -75 -174 -128l-36 65
q255 152 372 420h-234v-152h-71v220h332q26 76 42 155l71 -9q-20 -84 -40 -146h371z" />
    <glyph glyph-name="uni51A0" unicode="&#x51a0;" 
d="M134 564h330v-66h-330v66zM88 376h407v-69h-77v-273q0 -49 46 -49h318q43 0 60 19q23 20 32 127l64 -20q-12 -135 -47 -166q-31 -26 -96 -26h-352q-94 0 -94 101v287h-81q-9 -165 -42 -246q-40 -92 -134 -162l-45 57q79 55 116 136q31 72 38 215h-113v69zM513 522h224
v106h69v-106h105v-68h-105v-302q0 -95 -87 -95h-109l-15 67q58 -5 100 -5t42 50v285h-224v68zM580 401q51 -71 94 -166l-55 -29q-41 91 -95 170zM909 773v-179h-70v112h-678v-112h-70v179h818z" />
    <glyph glyph-name="uni51B6" unicode="&#x51b6;" 
d="M111 784q107 -125 170 -225l-61 -41q-60 100 -170 228zM291 340q-76 -214 -175 -413l-68 30q103 202 177 409zM868 326v-427h-70v61h-351v-61h-71v427h492zM447 28h351v232h-351v-232zM763 706q97 -135 182 -293l-67 -33q-10 21 -43 82q-224 -27 -502 -42l-12 65
q96 44 237 334l72 -24q-98 -191 -200 -306q191 10 370 35q-46 78 -100 152z" />
    <glyph glyph-name="uni51C6" unicode="&#x51c6;" 
d="M111 784q105 -135 157 -228l-60 -41q-56 101 -158 231zM273 323q-65 -210 -154 -416l-68 29q93 209 157 413zM445 374v-137h207v137h-207zM445 170v-149h207v149h-207zM445 -46v-55h-70v590q-42 -68 -95 -135l-24 76q130 176 184 389l69 -14q-22 -82 -54 -159h213
q-24 86 -58 160l69 20q34 -88 55 -170l-27 -10h225v-68h-211v-137h190v-67h-190v-137h192v-67h-192v-149h232v-67h-508zM652 578h-207v-137h207v137z" />
    <glyph glyph-name="uni51C9" unicode="&#x51c9;" 
d="M291 713h296q-19 48 -47 98l76 12q24 -51 44 -110h292v-67h-661v67zM374 561h499v-286h-213v-277q0 -94 -91 -94h-109l-16 69q58 -5 100 -5q43 0 43 49v258h-213v286zM803 341v156h-360v-156h360zM472 182q-64 -128 -154 -224l-60 42q90 91 152 213zM798 213
q99 -124 148 -210l-60 -42q-57 103 -146 215zM109 782q94 -123 152 -227l-60 -42q-55 103 -153 232zM263 343q-67 -222 -147 -416l-68 29q85 201 150 413z" />
    <glyph glyph-name="uni51CF" unicode="&#x51cf;" 
d="M435 528h198v-62h-198v62zM441 386h194v-295h-194v295zM581 145v187h-86v-187h86zM920 503q-45 -210 -125 -355q12 -50 27 -88q33 -79 60 -82q20 2 23 180l59 -27q-2 -223 -77 -223q-52 0 -97 83q-20 34 -37 90q-79 -112 -180 -173l-43 55q118 68 200 202q-12 45 -26 128
q-25 149 -34 322h-285v-278q-6 -272 -115 -435l-53 47q98 139 103 388v345h346q-2 45 -2 135h67q0 -67 3 -135h102q-24 54 -54 99l59 10q26 -46 51 -109h48v-67h-203q6 -138 22 -265q6 -55 15 -101q56 126 85 280zM108 776q94 -125 144 -221l-57 -40q-57 107 -146 224z
M266 342q-66 -214 -154 -417l-67 30q90 199 159 412z" />
    <glyph glyph-name="uni51E1" unicode="&#x51e1;" 
d="M49 -43q107 105 147 222q33 102 33 271v325h496v-744q0 -37 36 -37h61q21 0 38 7q16 8 20 28q8 35 8 186l70 -21q0 -105 -7 -173q-7 -57 -37 -79q-28 -17 -84 -17h-70q-108 0 -108 99v681h-351v-255q0 -180 -40 -303q-43 -129 -151 -245zM403 538q129 -147 201 -260
l-60 -41q-74 120 -199 265z" />
    <glyph glyph-name="uni51E4" unicode="&#x51e4;" 
d="M338 459q101 -94 175 -174q62 108 91 234h-301v65h370v-62q-32 -165 -109 -292q72 -82 141 -175l-54 -54q-59 85 -129 167q-100 -132 -251 -206l-39 61q149 76 241 201q-81 89 -184 188zM156 777h662v-400q0 -248 17 -313q15 -67 39 -67q20 2 33 141l58 -27
q-17 -118 -37 -159q-22 -37 -47 -37q-69 0 -101 93q-33 92 -33 369v331h-521v-319q-4 -289 -131 -486l-57 46q113 175 118 440v388z" />
    <glyph glyph-name="uni51EF" unicode="&#x51ef;" 
d="M423 -52q67 94 94 199q22 94 22 243v387h274v-762q0 -27 25 -27h22q15 0 25 7q10 10 14 30q5 37 5 184l56 -18q0 -113 -6 -172t-25 -79q-22 -17 -62 -17h-29q-92 0 -92 86v703h-139v-322q0 -158 -28 -270q-28 -113 -104 -219zM178 27q133 35 265 85l12 -67
q-159 -60 -356 -111l-20 61q30 12 30 49v228h259v119h-308v65h374v-250h-256v-179zM397 600v170h64v-234h-388v231h63v-167h99v213h65v-213h97z" />
    <glyph glyph-name="uni51F0" unicode="&#x51f0;" 
d="M276 613h153q18 37 26 70l70 -9q-9 -29 -26 -61h192v-287h-415v287zM627 380v64h-286v-64h286zM341 497h286v61h-286v-61zM256 267h454v-57h-192v-81h169v-57h-169v-80h236v-60h-542v60h237v80h-170v57h170v81h-193v57zM135 775h694v-458q0 -209 15 -269q12 -59 32 -59
t35 137l56 -26q-18 -116 -37 -156q-21 -36 -47 -36q-63 0 -92 83q-31 80 -31 326v393h-556v-321q-3 -290 -108 -488l-57 46q92 177 96 442v386z" />
    <glyph glyph-name="uni51FA" unicode="&#x51fa;" 
d="M771 469v273h72v-343h-306v-367h282v273h73v-398h-73v56h-638v-56h-73v398h73v-273h282v367h-306v343h72v-273h234v349h74v-349h234z" />
    <glyph glyph-name="uni51FB" unicode="&#x51fb;" 
d="M136 669h327v141h74v-141h323v-69h-323v-166h405v-70h-405v-353h236v266h69v-379h-69v46h-545v-46h-69v379h69v-266h235v353h-404v70h404v166h-327v69z" />
    <glyph glyph-name="uni5206" unicode="&#x5206;" 
d="M424 761q-70 -129 -141 -208q-73 -83 -200 -172l-39 63q105 62 185 155q75 85 134 198zM188 351v69h607q-4 -182 -20 -304q-15 -117 -50 -160q-35 -44 -112 -48h-186l-19 69q90 -3 170 -3q83 0 110 70q25 70 34 307h-267q-36 -166 -99 -262q-73 -105 -222 -189l-44 57
q134 75 201 162q61 85 92 232h-195zM650 809q85 -228 305 -361l-48 -57q-229 149 -319 384z" />
    <glyph glyph-name="uni5212" unicode="&#x5212;" 
d="M643 730h70v-624h-70v624zM677 -91l-16 69q80 -5 135 -5q47 0 47 47v794h72v-812q0 -93 -94 -93h-144zM543 594l11 -70l-290 -45q9 -84 22 -146q13 -63 30 -115q89 101 150 237l63 -33q-75 -169 -185 -283q13 -32 32 -67q55 -88 101 -90q26 4 56 157l61 -39
q-21 -77 -45 -130q-30 -64 -68 -64q-69 0 -138 96q-29 42 -50 88q-99 -83 -211 -130l-43 65q128 50 224 139q-20 53 -37 121q-19 72 -32 183l-130 -20l-11 70l134 21q-12 123 -12 276h74q0 -146 9 -265zM381 821q54 -66 107 -151l-61 -30q-51 86 -105 152z" />
    <glyph glyph-name="uni5219" unicode="&#x5219;" 
d="M525 776v-616h-70v546h-286v-555h-70v625h426zM391 133q99 -82 176 -175l-54 -53q-59 78 -172 179zM277 641h70v-315q-4 -174 -68 -280q-64 -99 -203 -152l-41 64q135 51 189 137q50 89 53 231v315zM639 730h70v-624h-70v624zM683 -90l-16 70q88 -4 126 -4q50 0 50 50
v788h72v-806q0 -98 -97 -98h-135z" />
    <glyph glyph-name="uni521B" unicode="&#x521b;" 
d="M429 432h-213v-413q0 -35 38 -35h191q52 0 64 25q14 30 20 111l68 -22q-10 -126 -38 -157q-24 -24 -95 -24h-238q-83 0 -83 77v502h356v-266q-1 -81 -84 -84q-57 0 -110 3l-18 68q57 -6 102 -6q40 0 40 41v180zM355 808q133 -141 251 -291l-47 -50q-129 171 -225 273
q-113 -168 -257 -303l-42 58q148 134 267 313h53zM665 729h70v-623h-70v623zM677 -91l-16 69q87 -5 150 -5q34 0 34 41v800h72v-818q0 -87 -81 -87h-159z" />
    <glyph glyph-name="uni5229" unicode="&#x5229;" 
d="M58 547h199v136q-95 -17 -174 -22l-22 67q246 20 408 85l35 -61q-84 -33 -174 -54v-151h185v-69h-185v-46q96 -83 192 -184l-43 -64q-85 108 -149 174v-458h-73v450q-71 -144 -189 -265l-32 83q154 136 221 309v1h-199v69zM598 723h72v-618h-72v618zM666 -91l-15 70
q96 -4 138 -4q44 0 44 49v790h73v-808q0 -97 -93 -97h-147z" />
    <glyph glyph-name="uni522B" unicode="&#x522b;" 
d="M97 459v318h425v-318h-196q-3 -64 -9 -122h215q0 -260 -15 -323q-15 -100 -145 -100q-20 0 -68 3l-17 64q58 -4 75 -4q76 0 88 65q8 33 11 228h-153q-17 -94 -40 -149q-55 -127 -183 -219l-46 57q116 80 164 191q20 46 34 120h-178v67h187q8 74 10 122h-159zM635 729h70
v-623h-70v623zM679 -91l-16 69q78 -5 133 -5q47 0 47 54v787h72v-805q0 -100 -94 -100h-142zM453 525v187h-287v-187h287z" />
    <glyph glyph-name="uni524D" unicode="&#x524d;" 
d="M745 800q-30 -58 -68 -108h270v-70h-895v70h274q-31 64 -65 113l76 13q33 -55 66 -126h195q45 65 77 132zM320 -94l-19 71l75 -3q39 0 39 50v93h-223v-219h-70v643h363v-533q0 -102 -86 -102h-79zM192 181h223v114h-223v-114zM192 359h223v115h-223v-115zM655 -91l-15 69
q70 -5 123 -5q42 0 42 46v550h72v-568q0 -92 -89 -92h-133zM597 494h70v-431h-70v431z" />
    <glyph glyph-name="uni5251" unicode="&#x5251;" 
d="M612 75v-67q-221 -48 -506 -86l-19 67q137 17 312 46q66 152 114 372l68 -18q-44 -190 -111 -341zM164 360q58 -119 102 -269l-62 -15q-44 143 -104 264zM323 404q45 -111 81 -252l-62 -16q-33 131 -82 247zM191 520h326v-67h-326v67zM650 725h69v-619h-69v619zM703 -93
l-15 70q80 -4 113 -4q44 0 44 54v785h73v-803q0 -102 -92 -102h-123zM371 814q115 -107 242 -255l-44 -58q-135 167 -216 245q-98 -160 -274 -318l-41 58q171 150 284 328h49z" />
    <glyph glyph-name="uni5272" unicode="&#x5272;" 
d="M145 449h151v71h-195v53h-25v164h214q-17 39 -35 73l70 12q18 -35 37 -85h239v-163h-42v-54h-193v-71h151v-57h-151v-73h220v-58h-220v-55h-70v55h-216v58h216v73h-151v57zM533 578v96h-389v-96h152v52h70v-52h167zM662 723h68v-617h-68v617zM709 -90l-15 68
q67 -5 114 -5q39 0 39 44v798h70v-816q0 -89 -85 -89h-123zM556 181v-282h-68v42h-297v-38h-68v278h433zM191 1h297v119h-297v-119z" />
    <glyph glyph-name="uni529E" unicode="&#x529e;" 
d="M232 434q-51 -181 -135 -275l-53 47q82 94 124 253zM372 814h74v-193h319l-5 -188l63 31q72 -136 139 -301l-66 -32q-66 171 -136 300q-7 -157 -14 -233q-15 -160 -48 -225q-33 -60 -108 -66h-113l-20 70q51 -3 97 -3q78 0 105 106q24 111 33 472h-249q-15 -243 -83 -394
q-77 -163 -257 -257l-39 63q172 93 241 249q53 135 65 339h-248v69h250v193z" />
    <glyph glyph-name="uni52A0" unicode="&#x52a0;" 
d="M907 691v-776h-70v66h-180v-66h-70v776h320zM657 51h180v570h-180v-570zM215 814h74v-174h205q0 -491 -15 -607q-15 -124 -149 -124l-76 4l-18 66q64 -4 84 -4q79 0 91 86q9 84 12 509h-134v-19q-5 -449 -196 -657l-58 52q177 187 180 605v19h-159v70h159v174z" />
    <glyph glyph-name="uni52A1" unicode="&#x52a1;" 
d="M417 810q-15 -36 -38 -76h436v-58q-96 -111 -234 -189q170 -72 378 -93l-33 -67q-237 27 -423 120q-184 -85 -427 -122l-33 68q217 30 382 96q-82 48 -156 113q-59 -53 -125 -93l-44 58q182 104 244 253zM712 666h-382l-13 -16q83 -73 185 -126q119 59 210 142zM512 375
q0 -54 -10 -114h352q-3 -254 -46 -303q-44 -50 -150 -50q-25 0 -117 4l-18 65l118 -5q89 1 113 38q23 36 27 186h-296q-11 -37 -32 -75q-77 -136 -352 -223l-48 59q247 72 325 182q21 31 31 57h-298v65h318q12 54 12 114h71z" />
    <glyph glyph-name="uni52A8" unicode="&#x52a8;" 
d="M90 747h362v-69h-362v69zM51 477h439v-70h-231q-59 -226 -105 -326q117 24 236 68q-41 86 -77 149l61 30q73 -130 135 -280l-62 -32q-13 35 -30 73q-158 -57 -346 -90l-17 68l16 6q45 62 120 334h-139v70zM639 814h73v-182h219q0 -489 -14 -610q-15 -112 -136 -112
q-26 0 -92 3l-16 64q76 -4 99 -4q64 0 75 77q10 80 13 513h-148v-18q-3 -443 -210 -649l-57 50q191 186 194 599v18h-124v69h124v182z" />
    <glyph glyph-name="uni52B1" unicode="&#x52b1;" 
d="M263 526h-98v-157q-4 -292 -78 -469l-51 46q60 152 63 423v407h446v-66h-380v-118h354v-66h-192v-148h186q-3 -288 -22 -377q-19 -85 -102 -88q-16 0 -60 4l-19 60q56 -4 71 -4q45 3 55 67q8 59 10 276h-120q-12 -275 -118 -411l-51 44q103 131 106 422v155zM669 813h70
v-211h179q0 -464 -16 -579q-15 -110 -135 -110q-23 0 -77 3l-15 61q62 -4 82 -4q68 0 80 71q13 81 14 492h-113q-9 -433 -174 -637l-51 45q149 188 156 592h-114v66h114v211z" />
    <glyph glyph-name="uni52B2" unicode="&#x52b2;" 
d="M478 -4q-192 -32 -410 -49l-9 70q114 9 184 16v199h-161v70h389v-70h-159v-192q129 17 166 23v-67zM637 813h70v-207h210q0 -468 -16 -583q-15 -111 -133 -111q-27 0 -93 3l-16 64q76 -4 98 -4q64 0 76 70q11 73 14 491h-141q-11 -434 -195 -638l-53 47q169 187 178 591
h-123v70h124v207zM94 349l-43 57q228 99 317 280h-286v69h367v-57q-34 -85 -83 -146q95 -73 160 -146l-52 -51q-57 70 -151 148q-92 -92 -229 -154z" />
    <glyph glyph-name="uni52BF" unicode="&#x52bf;" 
d="M72 717h142v99h70v-99h121v-68h-121v-99l122 24v-67l-122 -24v-117q0 -80 -81 -80h-93l-15 68q48 -5 84 -5q35 0 35 34v88q-92 -14 -139 -20l-16 67q104 12 155 20v111h-142v68zM462 577q37 -15 86 -41q17 52 22 113h-119v68h120v100h69v-100h184v-194q2 -159 44 -159
q24 0 39 122l58 -29q-11 -89 -36 -131q-28 -34 -63 -34q-46 0 -76 47q-31 50 -31 184v126h-120q-6 -85 -29 -146q53 -29 112 -73l-36 -57q-61 45 -103 70q-45 -82 -126 -136l-54 47q78 50 120 124q-47 26 -97 46zM518 302q-7 -44 -13 -69h361q0 -209 -35 -267
q-36 -57 -129 -57q-65 0 -107 3l-19 69q66 -6 122 -6q73 3 85 60q10 67 10 128h-312q-31 -69 -83 -121q-94 -88 -311 -137l-29 68q195 41 282 114q39 35 61 76h-322v70h352q9 33 15 69h72z" />
    <glyph glyph-name="uni52D0" unicode="&#x52d0;" 
d="M552 10q119 193 125 552h-96v65h96v183h70v-183h174q0 -484 -14 -602q-14 -109 -118 -109q-19 0 -64 3l-17 63q42 -3 72 -3q53 0 62 74q9 81 12 509h-107q-9 -448 -189 -656l-50 44q18 21 39 52q-206 -40 -489 -68l-9 66l42 4v291h424v-235q13 3 37 7v-57zM455 50v187
h-67v-197zM334 237h-64v-213q44 6 64 8v205zM216 17v220h-64v-227zM74 580h226v51q59 38 105 83h-277v64h374v-52q-54 -57 -134 -117v-29h179v-63h-179v-91q0 -86 -75 -86h-96l-17 63q60 -5 86 -5q34 0 34 46v73h-226v63z" />
    <glyph glyph-name="uni5316" unicode="&#x5316;" 
d="M412 790q-51 -123 -132 -230v-662h-72v574q-64 -70 -146 -138l-23 75q210 180 306 413zM619 -84q-107 0 -107 106v305q-58 -33 -129 -67l-32 68q94 44 161 83v401h72v-357q156 104 276 239l50 -57q-139 -149 -326 -267v-338q0 -47 52 -47h160q39 0 58 25q16 23 22 173
l67 -22q-11 -173 -36 -209q-27 -36 -99 -36h-189z" />
    <glyph glyph-name="uni5317" unicode="&#x5317;" 
d="M342 811h74v-904h-74v176q-123 -57 -275 -101l-17 71q152 34 292 102v313h-275v69h275v274zM660 -84q-94 0 -94 96v800h73v-337q134 47 261 129l41 -58q-162 -95 -302 -140v-383q0 -39 37 -39h133q36 0 54 23q14 24 20 170l68 -22q-9 -169 -35 -204q-27 -35 -95 -35h-161
z" />
    <glyph glyph-name="uni532F" unicode="&#x532f;" 
d="M286 673q76 -56 126 -112l-46 -47q-46 54 -127 115zM264 500q65 -58 114 -121l-46 -45q-45 62 -113 122zM403 269q-52 -131 -104 -226l-63 27q63 111 107 222zM468 417q-31 -36 -65 -71l-20 65q108 117 154 260l64 -13q-18 -54 -47 -112h130q-17 54 -41 105l69 12
q18 -46 37 -117h148v-59h-156v-81h134v-55h-134v-79h136v-55h-136v-81h170v-60h-443v341zM677 487h-143v-81h143v81zM677 351h-143v-79h143v79zM677 217h-143v-81h143v81zM114 783h790v-69h-718v-712h744v-69h-816v850z" />
    <glyph glyph-name="uni533A" unicode="&#x533a;" 
d="M329 615q142 -108 257 -210q84 108 148 252l65 -35q-68 -154 -157 -267q117 -108 213 -213l-56 -56q-90 107 -205 213q-132 -141 -304 -216l-42 65q166 68 291 202q-126 111 -262 215zM118 776h794v-69h-725v-696h754v-69h-823v834z" />
    <glyph glyph-name="uni533B" unicode="&#x533b;" 
d="M395 519q-41 -63 -93 -109l-54 49q100 89 148 222l66 -18q-17 -47 -31 -78h399v-66h-217v-56q-2 -49 -7 -84h283v-68h-298q-20 -68 -61 -125q-76 -95 -247 -149l-39 61q165 51 234 136q27 40 40 77h-270v68h287q7 45 8 84v56h-148zM620 262q144 -65 270 -163l-40 -60
q-126 105 -266 170zM112 782h791v-68h-722v-710h754v-70h-823v848z" />
    <glyph glyph-name="uni5343" unicode="&#x5343;" 
d="M58 406h410v257q-162 -13 -323 -13l-23 66q427 0 714 80l36 -63q-141 -42 -330 -63v-264h400v-70h-400v-433h-74v433h-410v70z" />
    <glyph glyph-name="uni534A" unicode="&#x534a;" 
d="M211 781q76 -100 140 -213l-67 -33q-66 120 -139 214zM122 489h341v329h74v-329h334v-70h-334v-178h405v-70h-405v-275h-74v275h-405v70h405v178h-341v70zM842 747q-46 -105 -127 -215l-64 33q80 105 127 213z" />
    <glyph glyph-name="uni534E" unicode="&#x534e;" 
d="M68 221h394v98h74v-98h398v-70h-398v-252h-74v252h-394v70zM618 334q-90 0 -90 87v78q-54 -23 -147 -56l-40 60q96 31 187 71v229h69v-197q151 74 252 166l49 -50q-130 -110 -301 -192v-95q0 -35 42 -35h150q40 0 56 15q22 22 29 119l68 -22q-12 -126 -46 -154
q-30 -24 -94 -24h-184zM206 562q-61 -53 -129 -98l-23 74q188 123 274 281l61 -28q-47 -89 -113 -161v-331h-70v263z" />
    <glyph glyph-name="uni5353" unicode="&#x5353;" 
d="M448 816h69v-73h369v-63h-369v-73h310v-369h-292v-90h396v-66h-396v-183h-72v183h-397v66h397v90h-277v369h262v209zM757 301v92h-501v-92h501zM256 453h501v91h-501v-91z" />
    <glyph glyph-name="uni5355" unicode="&#x5355;" 
d="M166 661h191q-46 74 -94 129l63 30q47 -57 95 -135l-46 -24h207q47 78 79 163l69 -25q-34 -78 -75 -138h180v-416h-298v-91h408v-69h-408v-188h-73v188h-409v69h409v91h-298v416zM763 309v112h-226v-112h226zM464 309v112h-227v-112h227zM237 484h227v111h-227v-111z
M537 595v-111h226v111h-226z" />
    <glyph glyph-name="uni5357" unicode="&#x5357;" 
d="M55 723h414l12 100l73 -10q-3 -34 -11 -90h402v-68h-412q-9 -54 -21 -101h380v-552q0 -95 -89 -95h-98l-19 70l93 -2q42 0 42 43v468h-640v-585h-71v653h329q14 68 20 101h-404v68zM388 454q32 -54 59 -125h105q34 63 60 130l66 -24q-26 -57 -57 -106h114v-63h-200v-105
h230v-64h-230v-181h-70v181h-229v64h229v105h-197v63h110q-23 55 -54 101z" />
    <glyph glyph-name="uni535A" unicode="&#x535a;" 
d="M453 435v-65h159v65h-159zM679 435v-65h160v65h-160zM839 486v66h-160v-66h160zM612 486v66h-159v-66h159zM453 319v-93h-67v382h226v66h-257v62h257v81h67v-81h121q-15 35 -40 76l62 10q22 -45 37 -86h80v-62h-260v-66h227v-382h-67v93h-160v-84h-67v84h-159zM329 180
h428v57h70v-57h117v-62h-117v-140q0 -76 -81 -76h-103l-15 67q53 -5 94 -5q35 0 35 31v123h-428v62zM56 571h105v244h71v-244h101v-70h-101v-600h-71v600h-105v70zM461 112q89 -61 149 -122l-45 -46q-54 60 -147 126z" />
    <glyph glyph-name="uni5361" unicode="&#x5361;" 
d="M414 814h74v-124h325v-70h-325v-150h456v-70h-456v-101q175 -79 358 -186l-41 -61q-193 118 -317 177v-328h-74v499h-359v70h359v344z" />
    <glyph glyph-name="uni5362" unicode="&#x5362;" 
d="M537 657v-109h317v-287h-614q-12 -209 -140 -364l-53 48q119 137 121 355v248h295v270h74v-95h389v-66h-389zM784 481h-543v-154h543v154z" />
    <glyph glyph-name="uni5370" unicode="&#x5370;" 
d="M184 388v-293q125 26 276 68l19 -66q-188 -52 -368 -86l-29 60q30 15 30 47v617q189 32 339 82l45 -57q-138 -48 -312 -80v-223h287v-69h-287zM723 34l-20 70l93 -2q44 0 44 45v546h-226v-794h-73v862h372v-629q0 -98 -93 -98h-97z" />
    <glyph glyph-name="uni5373" unicode="&#x5373;" 
d="M169 516v-138h237v138h-237zM406 581v131h-237v-131h237zM65 -1q33 12 33 39v739h376v-466h-305v-288q141 42 234 80q-29 53 -62 103l55 35q94 -144 144 -254l-55 -40q-21 47 -48 96q-154 -65 -347 -113zM738 38l-19 70l86 -2q41 0 41 41v562h-182v-806h-72v874h326v-646
q0 -93 -89 -93h-91z" />
    <glyph glyph-name="uni5385" unicode="&#x5385;" 
d="M928 774v-70h-702v-306q-6 -309 -129 -495l-54 48q105 162 111 447v376h774zM287 544h628v-69h-252v-460q0 -102 -97 -102h-104l-16 68q66 -4 96 -4q49 0 49 56v442h-304v69z" />
    <glyph glyph-name="uni539F" unicode="&#x539f;" 
d="M303 612h209q14 42 22 93h-342v-320q-6 -303 -97 -483l-54 48q75 158 78 435v391h814v-71h-327q-9 -48 -24 -93h278v-382h-232v-248q0 -79 -81 -79h-101l-15 71q53 -5 91 -5q34 0 34 30v231h-253v382zM790 295v96h-417v-96h417zM373 453h417v93h-417v-93zM438 153
q-68 -128 -160 -221l-60 42q90 85 157 209zM781 184q102 -122 159 -215l-60 -41q-57 98 -157 220z" />
    <glyph glyph-name="uni53A6" unicode="&#x53a6;" 
d="M927 783v-63h-733v-342q-6 -300 -106 -479l-53 48q86 155 89 431v405h803zM253 662h648v-56h-300q-11 -33 -20 -52h252v-336h-338q-21 -27 -42 -51h361v-46q-52 -70 -132 -117q121 -29 279 -35l-16 -60q-196 9 -344 56q-153 -60 -383 -60l-25 57q187 0 319 36
q-89 38 -156 88q-53 -34 -112 -52l-40 52q132 38 219 132h-100v336h189q14 31 20 52h-279v56zM733 115h-322q81 -53 186 -88q83 36 136 88zM769 266v51h-383v-51h383zM386 362h383v48h-383v-48zM386 455h383v51h-383v-51z" />
    <glyph glyph-name="uni53BF" unicode="&#x53bf;" 
d="M44 249h192v529h557v-529h160v-69h-539q-63 -108 -152 -194q237 13 466 44q-42 48 -90 99l56 35q131 -129 200 -227l-61 -43q-34 50 -59 81q-237 -36 -602 -57l-21 64q26 6 38 18q90 90 145 180h-290v69zM721 249v111h-414v-111h414zM307 426h414v107h-414v-107zM307 599
h414v112h-414v-112z" />
    <glyph glyph-name="uni53C2" unicode="&#x53c2;" 
d="M62 517h337q29 39 45 81q-96 -4 -276 -10l-11 63q98 24 246 171l70 -24q-85 -88 -173 -145q172 5 380 19q-37 33 -93 79l55 35q150 -117 227 -201l-60 -42q-24 29 -68 71l-224 -13q-16 -41 -41 -84h456v-66h-249q91 -91 276 -143l-31 -66q-226 81 -321 209h-181
q-116 -130 -351 -214l-33 64q190 56 296 150h-276v66zM559 382q-100 -125 -312 -199l-31 56q196 66 287 177zM825 233q-138 -246 -599 -344l-41 56q452 96 576 316zM686 295q-175 -199 -445 -247l-41 55q276 45 430 230z" />
    <glyph glyph-name="uni53CA" unicode="&#x53ca;" 
d="M297 702h-172v71h596v-47q-27 -123 -56 -225h202v-42q-44 -205 -189 -346q117 -86 267 -151l-47 -64q-163 74 -276 166q-129 -103 -326 -170l-42 67q187 63 309 154q-140 133 -207 296q-50 -334 -257 -508l-55 49q249 205 253 658v92zM792 436h-217q33 99 67 266h-271
v-115l-1 -24q54 -235 248 -402q129 118 174 275z" />
    <glyph glyph-name="uni53CB" unicode="&#x53cb;" 
d="M74 679h275l16 137h72q-9 -88 -16 -137h519v-70h-529q-15 -91 -28 -150h458v-63q-60 -164 -191 -285q123 -94 305 -142l-36 -66q-196 57 -324 161q-132 -99 -319 -164l-38 68q179 55 304 143q-118 117 -168 281h-7q-16 -64 -40 -129q-77 -196 -234 -353l-45 58
q141 145 213 323q48 129 78 318h-265v70zM441 392q51 -139 156 -237q116 102 168 237h-324z" />
    <glyph glyph-name="uni53CC" unicode="&#x53cc;" 
d="M128 598q93 -109 174 -219q49 148 61 309h-292v69h361v-55q-12 -220 -79 -394q60 -86 124 -193l-55 -56q-38 70 -103 170q-85 -172 -227 -296l-49 56q146 128 228 310q-87 122 -195 249zM494 757h411v-64q-33 -243 -163 -458q85 -139 215 -268l-50 -59q-129 132 -208 261
q-96 -136 -231 -261l-49 60q143 127 240 269q-119 219 -132 451h-33v69zM592 688q12 -196 110 -383q102 180 135 383h-245z" />
    <glyph glyph-name="uni53D1" unicode="&#x53d1;" 
d="M116 510l79 278l71 -12l-57 -197h175q30 118 48 245l73 -9q-18 -118 -47 -236h468v-69h-487q-21 -71 -38 -114h409v-62q-41 -130 -163 -234q121 -72 296 -132l-37 -67q-192 71 -318 153q-121 -85 -305 -157l-38 67q167 61 280 135q-116 89 -166 195q-109 -236 -281 -376
l-37 66q218 191 323 526h-248zM413 330q51 -102 171 -189q111 87 153 189h-324zM673 816q105 -80 179 -165l-51 -51q-61 77 -176 169z" />
    <glyph glyph-name="uni53D6" unicode="&#x53d6;" 
d="M55 778h480v-68h-81v-560l95 24v-71l-95 -24v-183h-70v167q-159 -34 -319 -59l-17 71l84 11v624h-77v68zM202 97q96 17 182 36v137h-182v-173zM202 335h182v153h-182v-153zM202 554h182v156h-182v-156zM639 654q18 -218 104 -396q82 175 109 396h-213zM573 654h-34v70
h381v-66q-33 -277 -136 -476q72 -123 179 -227l-48 -55q-99 101 -169 216q-81 -129 -194 -218l-49 56q121 96 203 234q-112 212 -133 466z" />
    <glyph glyph-name="uni53D7" unicode="&#x53d7;" 
d="M892 748q-297 -46 -773 -46l-21 65q458 0 759 42zM918 509v-228h-70v160h-696v-160h-70v228h569q59 85 102 187l72 -27q-48 -96 -97 -160h190zM223 677q54 -64 98 -135l-62 -31q-48 77 -99 134zM461 688q54 -69 94 -136l-64 -33q-47 82 -95 138zM204 343h586v-62
q-67 -122 -207 -208q149 -67 363 -111l-42 -64q-235 52 -393 134q-168 -84 -415 -135l-38 68q228 42 381 109q-136 87 -195 203h-40v66zM318 277q62 -96 192 -168q130 71 200 168h-392z" />
    <glyph glyph-name="uni53E0" unicode="&#x53e0;" 
d="M911 344v-170h-67v120h-688v-120h-67v170h822zM760 246v-277h183v-53h-882v53h179v277h520zM307 -31h386v49h-386v-49zM307 60h386v48h-386v-48zM307 150h386v49h-386v-49zM75 572h384v-43q-51 -48 -110 -82q61 -19 118 -42l-29 -46q-69 30 -147 58q-103 -46 -227 -62
l-20 48q100 9 178 36q-53 18 -124 35l25 36q77 -17 164 -44q53 27 94 58h-306v48zM508 573h388v-44q-49 -48 -105 -80q70 -20 143 -45l-29 -45q-96 36 -173 59q-96 -41 -209 -56l-18 45q88 9 153 32q-74 20 -134 32l26 36q84 -17 176 -41q45 21 92 58h-310v49zM203 793h583
v-43q-67 -38 -161 -74q83 -12 250 -46l-22 -49q-151 38 -288 62l-28 5q-173 -48 -391 -66l-19 45q165 9 310 37q-122 17 -213 25l16 38q174 -18 303 -38q79 23 153 56h-493v48z" />
    <glyph glyph-name="uni53E4" unicode="&#x53e4;" 
d="M58 637h405v181h75v-181h404v-70h-404v-195h268v-467h-71v58h-469v-58h-71v467h268v195h-405v70zM266 31h469v274h-469v-274z" />
    <glyph glyph-name="uni53EF" unicode="&#x53ef;" 
d="M55 757h892v-70h-132v-680q0 -100 -96 -100h-167l-16 70q110 -4 158 -4q49 0 49 52v662h-688v70zM560 534v-367h-319v-88h-70v455h389zM241 233h250v236h-250v-236z" />
    <glyph glyph-name="uni53F0" unicode="&#x53f0;" 
d="M834 316v-417h-73v50h-522v-50h-73v417h668zM239 18h522v229h-522v-229zM81 487q132 45 327 332l74 -25q-135 -192 -271 -304q269 11 546 37q-61 86 -117 151l65 31q128 -149 240 -332l-70 -34q-19 32 -74 119q-307 -28 -706 -43z" />
    <glyph glyph-name="uni53F3" unicode="&#x53f3;" 
d="M852 381v-482h-71v55h-413v-55h-72v406q-94 -118 -221 -198l-38 68q237 153 342 428h-309v69h333q21 68 37 150l73 -9q-16 -79 -34 -141h466v-69h-488q-46 -127 -107 -222h502zM368 23h413v289h-413v-289z" />
    <glyph glyph-name="uni53F7" unicode="&#x53f7;" 
d="M207 781h586v-270h-586v270zM719 576v140h-438v-140h438zM279 356h-229v69h899v-69h-597l-34 -117h489q-9 -239 -46 -287q-36 -45 -138 -45q-74 0 -133 6l-24 66q80 -6 141 -6q81 0 100 33q18 33 27 168h-502z" />
    <glyph glyph-name="uni53F8" unicode="&#x53f8;" 
d="M148 390h441v-308h-441v308zM520 146v179h-302v-179h302zM625 -93l-18 69l140 -2q46 0 46 60v671h-680v70h752v-761q0 -107 -102 -107h-138zM73 578h615v-65h-615v65z" />
    <glyph glyph-name="uni5408" unicode="&#x5408;" 
d="M526 818q191 -221 440 -347l-39 -69q-250 135 -427 351q-162 -202 -431 -353l-38 69q266 140 443 349h52zM816 304v-403h-70v60h-492v-60h-70v403h632zM254 30h492v206h-492v-206zM240 500h520v-69h-520v69z" />
    <glyph glyph-name="uni5409" unicode="&#x5409;" 
d="M464 816h73v-124h400v-70h-400v-154h351v-70h-775v70h351v154h-400v70h400v124zM830 297v-396h-73v43h-513v-43h-73v396h659zM244 13h513v214h-513v-214z" />
    <glyph glyph-name="uni540C" unicode="&#x540c;" 
d="M681 -96l-20 72l130 -3q38 0 38 45v690h-658v-807h-72v877h802v-776q0 -98 -87 -98h-133zM244 593h513v-67h-513v67zM300 418h401v-322h-401v322zM631 160v193h-261v-193h261z" />
    <glyph glyph-name="uni540D" unicode="&#x540d;" 
d="M355 -38v-59h-72v353q-90 -29 -197 -55l-38 69q263 55 432 140q-66 56 -180 120l62 39q116 -72 179 -126q153 91 223 214h-370q-102 -94 -260 -169l-48 62q255 109 346 269l79 -9q-23 -43 -54 -85h390v-64q-108 -206 -389 -336h417v-422h-73v59h-447zM802 32v226h-447
v-226h447z" />
    <glyph glyph-name="uni541B" unicode="&#x541b;" 
d="M809 355h-421q-29 -57 -59 -100h512v-352h-71v52h-415v-52h-71v296q-85 -97 -210 -167l-42 66q183 95 275 257h-169v66h201q21 54 36 114h-315v66h327q7 48 10 113h-236v65h648v-178h142v-66h-142v-180zM470 714q-3 -59 -9 -113h276v113h-267zM449 535q-13 -60 -33 -114
h321v114h-288zM355 22h415v167h-415v-167z" />
    <glyph glyph-name="uni542C" unicode="&#x542c;" 
d="M928 742q-171 -61 -376 -70v-180h399v-68h-153v-525h-71v525h-175v-38q-11 -299 -172 -478l-51 54q141 153 153 424v347q227 4 410 74zM364 730v-605h-201v-75h-72v680h273zM163 193h131v469h-131v-469z" />
    <glyph glyph-name="uni542F" unicode="&#x542f;" 
d="M873 281v-385h-70v52h-440v-52h-70v385h580zM363 16h440v197h-440v-197zM813 641h-585v-157h585v157zM228 417v-43q-2 -278 -133 -475l-56 50q117 164 118 425v335h333q-21 57 -48 105l75 12q20 -45 46 -117h321v-292h-656z" />
    <glyph glyph-name="uni5434" unicode="&#x5434;" 
d="M80 228h370q10 39 13 89v23h-314v67h701v-67h-315v-23q-3 -53 -11 -89h399v-68h-351q120 -120 370 -189l-34 -70q-286 94 -411 245q-27 -55 -69 -99q-99 -94 -321 -147l-39 63q220 49 308 131q30 31 47 66h-343v68zM201 770h593v-282h-593v282zM723 555v148h-452v-148
h452z" />
    <glyph glyph-name="uni543E" unicode="&#x543e;" 
d="M94 777h810v-67h-436l-30 -111h349v-202h156v-70h-886v70h255l37 135h-189v67h207l30 111h-303v67zM384 397h333v135h-297zM826 241v-343h-72v46h-483v-46h-71v343h626zM271 13h483v162h-483v-162z" />
    <glyph glyph-name="uni5448" unicode="&#x5448;" 
d="M196 777h610v-293h-610v293zM736 550v159h-469v-159h469zM129 391h744v-68h-335v-123h303v-66h-303v-129h390v-69h-854v69h393v129h-303v66h303v123h-338v68z" />
    <glyph glyph-name="uni5468" unicode="&#x5468;" 
d="M477 679h69v-83h180v-60h-180v-99h213v-63h-495v63h213v99h-183v60h183v83zM885 777v-790q0 -80 -92 -80h-125l-19 69q88 -4 122 -4q42 0 42 40v699h-602v-352q-3 -283 -102 -458l-54 49q81 159 84 404v423h746zM308 301h400v-247h-400v247zM639 116v124h-262v-124h262z
" />
    <glyph glyph-name="uni548C" unicode="&#x548c;" 
d="M910 749v-809h-70v79h-243v-89h-69v819h382zM597 87h243v595h-243v-595zM71 542h175v144q-75 -12 -153 -18l-23 64q223 18 373 75l34 -60q-83 -30 -161 -47v-158h171v-67h-171v-50q87 -76 175 -175l-42 -62q-83 113 -133 170v-451h-70v445q-64 -143 -171 -259l-30 78
q141 132 201 300v4h-175v67z" />
    <glyph glyph-name="uni54A8" unicode="&#x54a8;" 
d="M483 662q-45 -83 -109 -146l-45 57q105 105 141 254l72 -9q-11 -41 -27 -86h385v-59q-46 -101 -98 -166l-53 42q40 50 72 113h-161q-4 -59 -8 -88q63 -166 304 -221l-30 -68q-231 63 -299 214q-72 -143 -296 -209l-31 65q242 63 281 216q6 33 9 91h-107zM136 795
q99 -64 164 -129l-51 -50q-60 61 -163 130zM339 513q-112 -137 -230 -226l-48 53q121 90 221 216zM829 262v-363h-70v49h-513v-49h-71v363h654zM246 16h513v178h-513v-178z" />
    <glyph glyph-name="uni54C1" unicode="&#x54c1;" 
d="M224 775h551v-327h-551v327zM703 516v191h-407v-191h407zM443 349v-434h-70v51h-211v-51h-71v434h352zM162 34h211v246h-211v-246zM908 349v-434h-72v51h-219v-51h-71v434h362zM617 34h219v246h-219v-246z" />
    <glyph glyph-name="uni54C8" unicode="&#x54c8;" 
d="M867 302v-403h-70v57h-293v-57h-69v403h432zM504 23h293v213h-293v-213zM683 808q96 -185 283 -306l-42 -62q-170 113 -274 302q-115 -190 -275 -307l-33 48v-467h-67v54h-125v-75h-68v738h260v-230q167 120 276 305h65zM150 138h125v529h-125v-529zM475 499h346v-67
h-346v67z" />
    <glyph glyph-name="uni54CD" unicode="&#x54cd;" 
d="M544 507h229v-392h-229v392zM711 175v272h-105v-272h105zM686 812q-13 -71 -31 -126h271v-663q0 -115 -94 -115h-118l-19 70l113 -2q47 0 47 62v580h-391v-714h-70v782h186q20 69 29 137zM329 731v-733h-70v61h-110v-85h-70v757h250zM149 126h110v537h-110v-537z" />
    <glyph glyph-name="uni54E5" unicode="&#x54e5;" 
d="M96 775h822v-66h-111v-289h-73v289h-638v66zM203 642h379v-199h-379v199zM515 495v94h-245v-94h245zM57 376h885v-67h-133v-310q0 -96 -99 -96h-117l-15 67q63 -5 108 -5q50 0 50 51v293h-679v67zM194 236h391v-213h-391v213zM517 79v102h-255v-102h255z" />
    <glyph glyph-name="uni5510" unicode="&#x5510;" 
d="M524 259h-238v60h240v72h-314q-9 -292 -117 -472l-54 49q97 164 101 454v316h364q-18 43 -36 73l77 12q17 -35 34 -85h337v-68h-705v-216h313v72h-231v60h231v46h65v-46h246v-132h107v-63h-107v-132h-244v-78h263v-281h-68v37h-425v-40h-68v284h229v78zM363 -1h425v120
h-425v-120zM591 319h176v72h-176v-72zM767 454v72h-176v-72h176z" />
    <glyph glyph-name="uni552E" unicode="&#x552e;" 
d="M853 188v-292h-71v49h-530v-49h-71v292h672zM252 9h530v117h-530v-117zM181 557q-54 -63 -118 -118l-22 71q156 143 221 311l70 -14q-19 -47 -40 -88h248q-22 50 -49 92l74 12q23 -45 45 -104h291v-60h-304v-73h260v-57h-260v-70h262v-57h-262v-75h320v-61h-736v291z
M526 327v75h-276v-75h276zM526 459v70h-276v-70h276zM526 586v73h-269l-7 -11v-62h276z" />
    <glyph glyph-name="uni5546" unicode="&#x5546;" 
d="M314 268h371v-246h-371v246zM616 86v117h-233v-117h233zM597 463q125 -88 207 -172l-54 -53q-76 86 -202 179zM506 827q21 -50 35 -92h402v-70h-216q-24 -59 -58 -121h222v-534q0 -105 -88 -105h-102l-18 66l97 -3q42 0 42 58v454h-646v-573h-69v637h211q-21 60 -53 121
h-208v70h407q-19 45 -37 79zM591 544q32 62 57 121h-303q24 -51 48 -121h198zM447 417q-85 -103 -212 -180l-46 60q123 69 207 165z" />
    <glyph glyph-name="uni559C" unicode="&#x559c;" 
d="M128 630h337v65h-369v59h369v64h70v-64h370v-59h-370v-65h337v-58h-744v58zM282 339h-95v180h626v-180h-84l-41 -73h258v-60h-892v60h260zM653 339h-296l32 -73h224zM744 392v74h-488v-74h488zM828 148v-248h-69v41h-517v-41h-70v248h656zM242 0h517v89h-517v-89z" />
    <glyph glyph-name="uni5609" unicode="&#x5609;" 
d="M875 163v-263h-65v38h-197v-38h-66v263h328zM613 -4h197v110h-197v-110zM137 638h328v61h-369v58h369v61h71v-61h369v-58h-369v-61h329v-58h-728v58zM283 353h-96v176h625v-176h-85l-39 -71h256v-59h-623q-6 -29 -17 -70h181q-3 -179 -34 -213q-33 -35 -114 -35
q-22 0 -52 3l-15 58l52 -4q60 0 76 22q15 19 18 107h-133q-14 -35 -28 -57q-49 -76 -150 -138l-42 54q87 51 132 114q6 9 16 27h-123v62h148q10 31 18 70h-198v59h259zM651 353h-293l32 -71h222zM744 407v69h-489v-69h489z" />
    <glyph glyph-name="uni56DB" unicode="&#x56db;" 
d="M909 753v-838h-73v58h-672v-58h-73v838h818zM164 38h672v174h-167q-96 0 -96 92v384h-146v-214q-4 -211 -174 -309l-59 52q159 81 162 257v214h-192v-650zM644 688v-368q0 -41 44 -41h148v409h-192z" />
    <glyph glyph-name="uni56E2" unicode="&#x56e2;" 
d="M241 534h336v122h69v-122h124v-65h-124v-303q0 -89 -85 -89h-114l-15 67q62 -5 105 -5q40 0 40 45v275q-117 -200 -315 -316l-38 64q186 95 297 262h-280v65zM905 773v-874h-70v45h-670v-45h-70v874h810zM165 10h670v697h-670v-697z" />
    <glyph glyph-name="uni56ED" unicode="&#x56ed;" 
d="M909 772v-872h-72v40h-674v-40h-72v872h818zM163 4h674v702h-674v-702zM290 614h421v-64h-421v64zM233 443h534v-64h-160v-205q0 -36 32 -36h38q20 0 32 9q17 10 23 104l60 -20q-12 -113 -32 -133q-19 -17 -69 -19h-73q-37 0 -57 22q-20 23 -20 58v220h-95
q-13 -123 -58 -191q-50 -76 -157 -122l-34 58q92 36 136 102q36 57 48 153h-148v64z" />
    <glyph glyph-name="uni56FD" unicode="&#x56fd;" 
d="M252 612h495v-65h-210v-144h179v-64h-179v-159h239v-66h-551v66h238v159h-179v64h179v144h-211v65zM911 771v-869h-73v43h-676v-43h-73v869h822zM162 13h676v690h-676v-690zM655 318q38 -52 65 -110l-56 -26q-30 68 -66 117z" />
    <glyph glyph-name="uni56FE" unicode="&#x56fe;" 
d="M468 679q-14 -34 -26 -55h264v-50q-43 -81 -127 -140q105 -50 229 -79l-38 -54q-146 39 -250 97q-116 -62 -286 -99l-32 58q154 27 260 77q-60 40 -101 84q-45 -42 -102 -78l-40 52q137 81 185 195zM634 570h-227q-6 -6 -9 -12q52 -50 122 -93q74 45 114 105zM322 196
q198 -37 383 -107l-24 -58q-186 72 -387 111zM426 336q114 -38 215 -94l-34 -52q-101 61 -214 98zM908 773v-873h-70v41h-676v-41h-70v873h816zM162 5h676v704h-676v-704z" />
    <glyph glyph-name="uni5706" unicode="&#x5706;" 
d="M723 422v-241h-69v185h-310v-186h-70v242h449zM318 651h365v-176h-365v176zM616 526v75h-231v-75h231zM547 196q124 -41 231 -104l-39 -59q-110 71 -226 112zM539 322q-15 -117 -79 -187q-61 -64 -208 -100l-26 63q124 28 180 80q54 54 67 151zM909 773v-873h-73v42h-672
v-42h-73v873h818zM164 8h672v699h-672v-699z" />
    <glyph glyph-name="uni5723" unicode="&#x5723;" 
d="M125 228h339v118h72v-118h340v-67h-340v-160h403v-67h-878v67h403v160h-339v67zM113 763h709v-64q-76 -128 -240 -223q162 -73 379 -104l-36 -72q-246 44 -417 138q-179 -84 -436 -138l-38 69q239 43 403 111q-139 91 -221 215h-103v68zM290 695q86 -106 219 -182
q153 77 226 182h-445z" />
    <glyph glyph-name="uni5728" unicode="&#x5728;" 
d="M359 351h229v186h73v-186h239v-70h-239v-276h284v-71h-627v71h270v276h-229v70zM198 307q-60 -62 -118 -110l-45 59q187 154 292 354h-257v71h291q33 75 52 143l75 -9q-24 -80 -47 -134h503v-71h-535q-58 -118 -140 -221v-492h-71v410z" />
    <glyph glyph-name="uni5730" unicode="&#x5730;" 
d="M920 647q0 -320 -15 -389q-14 -67 -115 -67h-17l-22 72l54 -1q31 0 38 36q7 39 7 255l-139 -41v-397h-69v377l-127 -38v-418q0 -50 48 -50h257q32 0 45 21q17 24 23 149l67 -21q-11 -156 -40 -188q-27 -29 -81 -29h-293q-96 0 -96 104v411l-72 -21v71l72 22v210h70v-189
l127 38v253h69v-232zM375 129q-143 -64 -317 -110l-18 72q61 13 131 32v354h-118v70h118v266h72v-266h112v-70h-112v-330q68 24 132 54v-72z" />
    <glyph glyph-name="uni5733" unicode="&#x5733;" 
d="M55 551h128v258h71v-258h120v-70h-120v-331q58 20 138 55v-71q-150 -67 -331 -113l-17 72q76 16 139 34v354h-128v70zM658 748h65v-782h-65v782zM856 797h67v-897h-67v897zM462 794h68v-397q-3 -343 -157 -503l-54 48q140 140 143 455v397z" />
    <glyph glyph-name="uni573A" unicode="&#x573a;" 
d="M417 403v67q177 102 334 224h-322v66h427v-63q-137 -117 -316 -230h384q-9 -349 -33 -450q-25 -101 -136 -104q-34 0 -96 2l-20 70q72 -4 105 -4q59 2 80 55q19 47 28 367h-72q-35 -179 -106 -286q-77 -112 -234 -202l-44 56q142 79 216 176q67 96 99 256h-79
q-55 -188 -191 -294l-45 55q120 93 168 239h-147zM51 540h120v255h74v-255h125v-69h-125v-349q69 20 127 43v-75q-145 -55 -314 -93l-19 76q49 9 132 28v370h-120v69z" />
    <glyph glyph-name="uni5740" unicode="&#x5740;" 
d="M663 818h73v-320h190v-69h-190v-419h219v-70h-630v70h116v596h72v-596h150v808zM375 116q-155 -56 -325 -91l-19 76q69 12 135 27v361h-125v70h125v254h74v-254h123v-70h-123v-341q75 21 135 43v-75z" />
    <glyph glyph-name="uni5747" unicode="&#x5747;" 
d="M770 213q-130 -89 -319 -156l-30 68q191 63 330 155zM551 492q92 -66 160 -139l-50 -50q-57 68 -156 144zM597 814q-17 -79 -42 -149h366q0 -516 -18 -635q-17 -122 -147 -122l-136 4l-18 68q108 -4 141 -4q78 0 91 78q14 81 17 541h-325q-50 -108 -126 -196l-48 62
q128 149 173 362zM47 551h110v262h73v-262h103v-70h-103v-337q78 23 140 47v-75q-148 -56 -314 -92l-20 76q67 11 121 25v356h-110v70z" />
    <glyph glyph-name="uni574A" unicode="&#x574a;" 
d="M59 551h121v260h72v-260h118v-70h-118v-329q72 25 137 54v-73q-154 -66 -332 -111l-17 73q80 17 140 34v352h-121v70zM529 592h-133v69h253q-26 77 -61 151l78 13q34 -82 58 -164h220v-69h-344v-72q0 -36 -4 -100h298q-3 -322 -22 -420q-26 -87 -127 -90q-50 0 -118 3
l-20 63q104 -4 130 -4q60 3 75 68q8 63 11 312h-234q-39 -296 -205 -450l-56 49q198 177 201 569v72z" />
    <glyph glyph-name="uni5757" unicode="&#x5757;" 
d="M391 665h184v151h69v-151h217v-291h87v-69h-284q92 -216 294 -345l-49 -58q-201 145 -295 365q-66 -252 -266 -368l-44 58q196 107 250 348h-205v69h217q9 65 9 135v87h-184v69zM644 596v-70q0 -72 -10 -152h157v222h-147zM49 551h116v260h72v-260h110v-70h-110v-332
q62 23 132 56v-71q-153 -72 -317 -115l-18 73q69 16 131 33v356h-116v70z" />
    <glyph glyph-name="uni5761" unicode="&#x5761;" 
d="M42 551h120v261h73v-261h102v-70h-102v-329q29 10 87 34v-71q-118 -51 -266 -89l-18 72q57 11 124 31v352h-120v70zM628 817h72v-126h235v-35q-16 -87 -51 -171l-67 18q26 55 44 121h-161v-200h173v-61q-37 -154 -134 -266q90 -77 223 -134l-40 -63q-139 66 -230 148
q-99 -91 -246 -152l-46 56q145 55 242 144q-110 118 -146 262h-37q-9 -268 -133 -459l-56 49q116 172 122 440v303h236v126zM628 624h-168v-200h168v200zM801 358h-239q34 -119 126 -214q80 93 113 214z" />
    <glyph glyph-name="uni5764" unicode="&#x5764;" 
d="M53 551h116v262h72v-262h110v-70h-110v-329q57 21 129 55v-72q-143 -68 -313 -114l-18 72q71 16 130 34v354h-116v70zM484 390v-144h145v144h-145zM629 181h-145v-64h-68v544h213v152h70v-152h216v-540h-68v60h-148v-280h-70v280zM699 246h148v144h-148v-144zM847 455
v141h-148v-141h148zM629 596h-145v-141h145v141z" />
    <glyph glyph-name="uni577B" unicode="&#x577b;" 
d="M486 376v-355q37 13 82 34l13 -60q-87 -38 -173 -67l-19 61q28 12 28 40v665q291 47 450 103l42 -61q-67 -24 -159 -45q2 -152 7 -245h184v-70h-179q5 -67 12 -116q21 -133 51 -203q27 -64 44 -64q20 1 37 167l60 -33q-30 -218 -85 -218q-42 0 -89 81q-50 87 -79 245
q-14 72 -19 141h-208zM486 640v-194h202q-8 112 -8 230q-96 -19 -194 -36zM639 120q75 -108 112 -183l-54 -37q-42 87 -108 183zM56 551h108v262h72v-262h113v-70h-113v-334q63 26 124 56v-72q-137 -69 -295 -114l-17 72q70 18 116 32v360h-108v70z" />
    <glyph glyph-name="uni578B" unicode="&#x578b;" 
d="M93 772h470v-64h-101v-150h123v-66h-123v-220h-70v220h-131q-16 -154 -115 -232l-54 47q84 63 99 185h-124v66h128v150h-102v64zM264 708v-150h128v150h-128zM644 749h69v-344h-69v344zM117 174h351v87h72v-87h344v-66h-344v-117h399v-66h-878v66h407v117h-351v66z
M680 263l-15 68q73 -5 125 -5q35 0 35 42v436h69v-453q0 -88 -80 -88h-134z" />
    <glyph glyph-name="uni57A3" unicode="&#x57a3;" 
d="M49 551h116v257h72v-257h110v-70h-110v-329q73 28 132 55v-72q-142 -66 -314 -112l-18 72q61 14 128 33v353h-116v70zM368 776h562v-68h-562v68zM433 599h444v-489h-444v489zM808 177v145h-305v-145h305zM503 388h305v144h-305v-144zM348 1h602v-68h-602v68z" />
    <glyph glyph-name="uni57CE" unicode="&#x57ce;" 
d="M44 559h90v253h70v-253h89v-68h-89v-304q40 19 84 47v-70q-108 -64 -238 -110l-18 68q51 15 102 33v336h-90v68zM417 394v-2q-6 -301 -138 -481l-53 47q115 155 121 434v272h290q-2 48 -2 152h66q0 -81 3 -152h225v-65h-223q9 -194 29 -295q3 -20 11 -56q55 111 88 258
l59 -25q-45 -191 -123 -322q13 -45 34 -85q36 -71 58 -71q20 1 37 146l60 -33q-30 -201 -84 -201q-50 0 -106 90q-23 36 -43 88q-85 -116 -200 -178l-43 55q132 68 218 199q-15 47 -28 111q-25 124 -34 319h-222v-144h173q0 -267 -22 -330q-21 -57 -77 -60h-68l-18 59h69
q32 3 41 50q8 45 10 220h-108zM821 824q40 -57 70 -124l-53 -23q-34 74 -70 126z" />
    <glyph glyph-name="uni57DF" unicode="&#x57df;" 
d="M320 681h354q-1 44 -1 135h70q0 -92 1 -135h102q-23 62 -44 103l65 11q20 -49 39 -114h49v-68h-210q5 -232 21 -377q60 129 92 293l62 -26q-50 -227 -138 -376q30 -142 68 -148q29 3 59 151l54 -44q-48 -180 -113 -180q-49 0 -88 78q-17 37 -28 71q-73 -95 -167 -153
l-44 57q113 65 190 183q-7 32 -14 89q-19 150 -24 382h-355v68zM360 514h254v-282h-254v282zM550 291v163h-127v-163h127zM623 105q-147 -57 -318 -96l-17 69q173 30 335 92v-65zM55 551h98v264h71v-264h95v-70h-95v-302q43 19 94 46v-72q-118 -63 -254 -105l-18 73
q61 15 107 31v329h-98v70z" />
    <glyph glyph-name="uni57FA" unicode="&#x57fa;" 
d="M80 742h177v76h70v-76h345v76h70v-76h177v-61h-177v-331h192v-64h-208q72 -90 223 -141l-29 -62q-186 78 -264 203h-314q-78 -125 -252 -206l-37 61q148 57 220 145h-208v64h192v331h-177v61zM327 350h345v72h-345v-72zM327 479h345v71h-345v-71zM327 607h345v74h-345
v-74zM465 251h70v-80h203v-64h-203v-106h343v-67h-763v67h350v106h-205v64h205v80z" />
    <glyph glyph-name="uni5802" unicode="&#x5802;" 
d="M158 167h307v91h-206v236h486v-236h-208v-91h318v-67h-318v-100h400v-69h-874v69h402v100h-307v67zM675 323v106h-346v-106h346zM465 812h72v-163h119q43 77 71 149l69 -24q-31 -72 -63 -125h180v-242h-72v172h-682v-174h-72v244h183q-27 62 -65 119l68 25
q40 -62 71 -144h121v163z" />
    <glyph glyph-name="uni5821" unicode="&#x5821;" 
d="M135 161h332v97h70v-97h331v-64h-331v-102h397v-66h-868v66h401v102h-332v64zM392 781h462v-200h-197v-72h266v-63h-203q75 -84 227 -132l-29 -61q-183 75 -261 193v-190h-70v189q-70 -113 -248 -193l-36 59q161 60 224 135h-206v63h266v72h-195v200zM786 639v84h-326
v-84h326zM178 536q-50 -54 -119 -112l-21 71q164 142 238 321l63 -29q-33 -81 -91 -164v-383h-70v296z" />
    <glyph glyph-name="uni5824" unicode="&#x5824;" 
d="M422 780h434v-349h-434v349zM786 491v87h-294v-87h294zM492 634h294v86h-294v-86zM343 362h591v-66h-258v-112h220v-64h-220v-133q45 -6 104 -6q102 0 185 5l-21 -74q-65 0 -159 2q-174 1 -236 37q-50 30 -89 113q-36 -91 -99 -169l-53 47q114 139 126 314l66 -8
q-3 -53 -16 -109q42 -98 94 -125q11 -5 29 -12v294h-264v66zM46 551h117v261h73v-261h107v-70h-107v-344q59 17 119 41v-74q-131 -52 -294 -89l-19 76q76 15 121 26v364h-117v70z" />
    <glyph glyph-name="uni5858" unicode="&#x5858;" 
d="M880 261h-172v-75h188v-279h-66v35h-290v-39h-65v283h164v75h-158v59h159v75h-206v59h206v74h-148v60h148v54h67v-54h173v-134h77v-59h-77v-134zM707 528v-74h111v74h-111zM707 395v-75h111v75h-111zM540 4h290v121h-290v-121zM665 820q10 -24 29 -83h240v-64h-502v-298
q-6 -296 -111 -475l-55 48q95 152 100 427v362h253q-11 36 -27 71zM46 547h103v266h69v-266h103v-69h-103v-329q49 19 92 39v-71q-118 -51 -250 -87l-18 69q56 13 107 27v352h-103v69z" />
    <glyph glyph-name="uni585E" unicode="&#x585e;" 
d="M201 599h147v81h-186v-128h-70v188h374q-25 43 -49 74l77 12q23 -36 45 -86h369v-188h-70v128h-186v-81h148v-59h-148v-73h138v-57h-138v-73h274v-60h-228q81 -83 250 -131l-30 -64q-204 75 -291 195h-260q-88 -118 -280 -196l-37 61q166 53 247 135h-221v60h272v73h-137
v57h137v73h-147v59zM581 680h-163v-81h163v81zM418 337h163v73h-163v-73zM581 467v73h-163v-73h163zM260 159h205v76h70v-76h203v-61h-203v-96h357v-65h-784v65h357v96h-205v61z" />
    <glyph glyph-name="uni5883" unicode="&#x5883;" 
d="M374 741h228q-18 50 -29 73l76 13q13 -33 26 -86h240v-60h-105q-15 -58 -37 -106h171v-61h-600v61h157q-16 60 -36 106h-91v60zM703 575q29 56 40 106h-206q20 -58 32 -106h134zM406 452h469v-315h-126v-128q0 -32 28 -32h82q17 0 27 13q10 18 14 97l64 -20
q-9 -108 -30 -132q-21 -21 -63 -21h-114q-79 0 -79 81v142h-97q-18 -91 -75 -146q-63 -59 -208 -92l-27 64q126 26 181 70q47 41 62 104h-108v315zM808 196v74h-336v-74h336zM472 321h336v73h-336v-73zM348 141q-140 -69 -292 -113l-19 78q52 11 111 29v368h-104v70h104v238
h73v-238h89v-70h-89v-343q62 23 127 54v-73z" />
    <glyph glyph-name="uni5885" unicode="&#x5885;" 
d="M104 781h383v-298h-159v-62h168v-56h-168v-66q120 9 193 16v-54q-177 -22 -440 -38l-9 61l192 11v70h-170v56h170v62h-160v298zM426 537v70h-98v-70h98zM264 537v70h-99v-70h99zM165 658h99v69h-99v-69zM328 727v-69h98v69h-98zM646 692l59 -55q53 33 109 82h-276v61h361
v-52q-68 -75 -154 -132q10 -10 24 -26h158v-53q-43 -86 -97 -146l-46 36q41 44 74 101h-115v-192q0 -86 -90 -86h-86l-14 66q43 -5 77 -5q45 0 45 42v175h-153v62h173q-42 42 -99 90zM119 151h350v71h70v-71h343v-66h-343v-93h400v-66h-878v66h408v93h-350v66z" />
    <glyph glyph-name="uni58A8" unicode="&#x58a8;" 
d="M185 121h280v83h70v-83h286v-58h-286v-80h389v-63h-850v63h391v80h-280v58zM156 781h690v-255h-311v-57h349v-52h-349v-65h405v-59h-878v59h403v65h-344v52h344v57h-309v255zM779 582v144h-249v-144h99l-36 35q50 47 81 95l43 -32q-43 -60 -84 -98h146zM470 582v144h-247
v-144h147q-37 54 -86 100l37 35q52 -52 87 -100l-35 -35h97zM234 247q-52 -79 -122 -136l-52 37q68 54 117 126zM375 276q29 -54 49 -107l-56 -21q-19 54 -50 112zM622 276q37 -63 56 -113l-55 -21q-24 62 -58 118zM803 273q78 -61 138 -127l-44 -45q-52 62 -137 130z" />
    <glyph glyph-name="uni58A8" unicode="&#xfa3a;" 
d="M185 121h280v83h70v-83h286v-58h-286v-80h389v-63h-850v63h391v80h-280v58zM156 781h690v-255h-311v-57h349v-52h-349v-65h405v-59h-878v59h403v65h-344v52h344v57h-309v255zM779 582v144h-249v-144h99l-36 35q50 47 81 95l43 -32q-43 -60 -84 -98h146zM470 582v144h-247
v-144h147q-37 54 -86 100l37 35q52 -52 87 -100l-35 -35h97zM234 247q-52 -79 -122 -136l-52 37q68 54 117 126zM375 276q29 -54 49 -107l-56 -21q-19 54 -50 112zM622 276q37 -63 56 -113l-55 -21q-24 62 -58 118zM803 273q78 -61 138 -127l-44 -45q-52 62 -137 130z" />
    <glyph glyph-name="uni58C1" unicode="&#x58c1;" 
d="M467 277h70v-88h332v-66h-332v-119h408v-65h-891v65h413v119h-331v66h331v88zM192 497h268v-198h-268v198zM396 355v85h-140v-85h140zM506 732h158q-13 34 -34 74l72 12q17 -43 30 -86h172v-58h-59q-12 -56 -35 -110h120v-60h-194v-84h164v-59h-164v-93h-69v93h-148v59
h148v84h-181v60h114q-19 62 -39 110h-55v58zM746 564q26 54 38 110h-155q17 -48 34 -110h83zM381 714h-195v-93h195v93zM184 562q-12 -157 -91 -272l-51 45q79 107 80 274v165h324v-212h-262z" />
    <glyph glyph-name="uni58F0" unicode="&#x58f0;" 
d="M68 736h395v82h74v-82h394v-66h-394v-91h342v-65h-756v65h340v91h-395v66zM473 377h-252v-75q0 -15 -2 -47h254v122zM545 255h244v122h-244v-122zM213 191q-23 -169 -109 -297l-59 53q104 138 105 355v139h709v-250h-646z" />
    <glyph glyph-name="uni58F9" unicode="&#x58f9;" 
d="M210 398h580v-56h-580v56zM205 281h590v-196h-97l-43 -90h286v-61h-883v61h282l-38 90h-97v196zM413 -5h167l43 90h-248zM724 141v85h-448v-85h448zM91 759h375v59h69v-59h377v-60h-377v-62h325v-58h-706v58h312v62h-375v60zM913 519v-146h-67v88h-693v-88h-67v146h827z
" />
    <glyph glyph-name="uni5907" unicode="&#x5907;" 
d="M816 336v-436h-69v44h-492v-44h-69v436h630zM255 6h211v106h-211v-106zM534 6h213v106h-213v-106zM255 170h211v106h-211v-106zM534 276v-106h213v106h-213zM438 813q-18 -30 -47 -67h407v-55q-91 -112 -225 -194q159 -68 383 -98l-31 -64q-247 38 -420 124
q-183 -91 -431 -132l-31 63q222 31 392 107q-89 53 -159 125q-62 -57 -141 -107l-46 56q169 98 278 258zM319 663q74 -75 183 -133q120 66 207 153h-370z" />
    <glyph glyph-name="uni590D" unicode="&#x590d;" 
d="M278 680q-22 -36 -48 -69h588v-316h-396q-18 -29 -50 -68h448v-52q-74 -94 -198 -158q144 -42 322 -48l-17 -66q-222 11 -391 76q-174 -65 -428 -80l-29 63q218 9 372 54q-102 50 -183 120q-65 -44 -140 -79l-37 61q172 69 253 177h-128v299q-53 -61 -116 -108l-43 56
q155 117 210 284l71 -12q-13 -38 -27 -71h585v-63h-618zM731 168h-411q97 -75 217 -123q121 50 194 123zM748 353v74h-461v-74h461zM287 481h461v73h-461v-73z" />
    <glyph glyph-name="uni5916" unicode="&#x5916;" 
d="M636 815h74v-302q122 -89 253 -207l-44 -66q-132 132 -209 193v-532h-74v914zM232 418q84 -45 153 -105q70 133 92 293h-198q-71 -168 -193 -281l-49 61q172 160 232 430l72 -12q-15 -67 -36 -129h243v-63q-51 -455 -440 -687l-49 61q188 108 293 270q-80 68 -158 106z
" />
    <glyph glyph-name="uni591A" unicode="&#x591a;" 
d="M560 786q-27 -30 -57 -57h287v-57q-162 -288 -601 -323l-31 65q136 9 242 40q-47 57 -98 104l63 30q57 -54 102 -110q156 63 241 187h-292q-117 -69 -277 -105l-42 66q268 51 399 194zM458 195q61 -63 109 -126q165 71 262 205h-296q-134 -64 -313 -95l-43 64
q326 33 483 199l62 -34q-41 -41 -77 -68h274v-57q-213 -354 -794 -367l-29 69q236 2 404 58q-54 71 -106 122z" />
    <glyph glyph-name="uni5929" unicode="&#x5929;" 
d="M79 463h363q17 98 25 230h-362v70h790v-70h-355q-10 -137 -26 -230h410v-69h-368q105 -286 399 -439l-45 -58q-308 168 -415 477q-26 -105 -64 -172q-103 -178 -341 -305l-45 59q224 114 318 273q38 65 64 165h-348v69z" />
    <glyph glyph-name="uni592A" unicode="&#x592a;" 
d="M60 604h387q9 77 9 159v50h74v-34q0 -83 -10 -175h421v-70h-402q107 -373 424 -575l-45 -58q-306 198 -423 560q-39 -165 -119 -289q76 -70 172 -190l-51 -51q-78 104 -159 187q-103 -132 -257 -216l-45 60q331 168 401 572h-377v70z" />
    <glyph glyph-name="uni592B" unicode="&#x592b;" 
d="M135 661h327v155h74v-155h329v-69h-329v-62q-3 -78 -11 -128h417v-70h-382q123 -269 397 -366l-39 -63q-280 105 -414 398q-29 -104 -81 -179q-103 -144 -339 -222l-40 63q233 79 326 211q42 69 67 158h-378v70h392q10 64 11 128v62h-327v69z" />
    <glyph glyph-name="uni592E" unicode="&#x592e;" 
d="M820 675v-336h113v-69h-367q90 -183 386 -309l-45 -61q-313 135 -405 351q-72 -202 -402 -352l-47 62q310 136 388 309h-371v69h110v336h285v143h70v-143h285zM251 339h211q1 11 3 19v248h-214v-267zM750 339v267h-215v-248q1 -8 5 -19h210z" />
    <glyph glyph-name="uni5934" unicode="&#x5934;" 
d="M71 348h446q21 83 24 180v282h73v-282q-3 -100 -22 -180h343v-70h-363q-31 -88 -84 -156q-117 -141 -383 -221l-39 61q266 79 371 211q35 48 57 105h-423v70zM660 196q168 -120 282 -240l-54 -53q-103 117 -277 246zM144 603q129 -55 234 -135l-40 -61q-113 88 -232 139z
M256 764q109 -53 199 -128l-39 -60q-94 82 -198 131z" />
    <glyph glyph-name="uni5947" unicode="&#x5947;" 
d="M110 741h362l1 73h73q0 -52 -3 -73h351v-68h-371q-12 -25 -25 -43q211 -49 381 -112l-39 -60q-187 77 -385 124q-97 -87 -294 -126l-39 64q262 39 328 153h-340v68zM59 430h882v-70h-132v-365q0 -93 -104 -93h-103l-15 68q64 -4 94 -4q56 0 56 46v348h-678v70zM184 277
h386v-252h-386v252zM502 88v127h-250v-127h250z" />
    <glyph glyph-name="uni5948" unicode="&#x5948;" 
d="M263 470q-76 -46 -171 -81l-34 61q202 74 309 196h-255v67h305q30 49 48 104l71 -9q-19 -54 -41 -95h396v-67h-252q99 -122 304 -191l-30 -64q-248 98 -353 255h-106q-75 -104 -189 -175h468v-66h-470v65zM138 304h723v-66h-317v-238q0 -95 -88 -95h-122l-15 68
q67 -5 113 -5q41 0 41 49v221h-335v66zM683 187q144 -97 243 -195l-52 -51q-88 95 -238 201zM359 138q-100 -113 -248 -198l-45 58q142 77 243 184z" />
    <glyph glyph-name="uni5955" unicode="&#x5955;" 
d="M364 661h-291v70h389q-16 41 -40 84l75 13q22 -45 39 -97h391v-70h-262v-217q0 -92 -85 -92h-102l-15 67q55 -5 93 -5q39 0 39 47v200h-162v-61q-3 -195 -167 -285l-53 48q148 74 151 237v61zM281 564q-78 -94 -193 -167l-43 57q108 67 184 156zM761 610
q124 -89 202 -172l-52 -52q-70 82 -199 177zM538 317q-7 -48 -17 -82h417v-68h-368q125 -147 388 -204l-40 -62q-285 69 -422 266q-32 -69 -88 -123q-101 -92 -338 -145l-27 64q215 45 310 124q38 34 66 80h-356v68h387q14 44 19 82h69z" />
    <glyph glyph-name="uni5957" unicode="&#x5957;" 
d="M687 560q-72 50 -118 108h-113q-51 -60 -120 -108h351zM647 668q102 -99 309 -156l-32 -67q-112 40 -189 85v-30h-414v-61h464v-58h-464v-60h464v-58h-464v-63h608v-65h-521q-60 -99 -114 -153q227 12 433 45q-31 45 -58 78l62 21q80 -94 138 -199l-65 -29q-17 33 -39 70
q-273 -40 -581 -52l-18 60q74 6 158 159h-255v65h182v309q-81 -41 -169 -68l-34 61q207 63 318 166h-283v66h341q27 37 46 83l70 -8q-13 -34 -37 -75h413v-66h-269z" />
    <glyph glyph-name="uni5965" unicode="&#x5965;" 
d="M530 815q-12 -36 -33 -70h338v-492h-69v429h-531v-429h-69v492h252q21 39 33 81zM539 260q-8 -41 -14 -63h402v-68h-348q122 -118 381 -163l-42 -67q-285 60 -420 230h-2q-33 -61 -88 -107q-97 -79 -339 -125l-29 68q213 36 309 106q37 28 60 58h-335v68h372q14 37 19 70
zM290 512h72q-21 53 -48 96l53 20q25 -45 50 -116h52v135h62v-135h52q30 57 51 123l55 -19q-22 -56 -50 -104h74v-58h-182v-16q89 -43 188 -105l-36 -54q-91 74 -152 113v-101h-62v111q-74 -74 -163 -125l-34 57q112 46 197 120h-179v58z" />
    <glyph glyph-name="uni597D" unicode="&#x597d;" 
d="M284 822q-19 -112 -36 -196h173v-41q-13 -236 -98 -413q82 -64 142 -122l-49 -57q-43 45 -127 116q-75 -124 -191 -213l-49 60q114 82 184 199q-59 47 -154 117q45 128 82 285h-106v69h121q19 91 37 202zM265 216q71 147 85 341h-117q-36 -159 -75 -264zM455 397h226v126
q81 70 154 172h-351v70h433v-70q-71 -102 -163 -194v-104h204v-70h-204v-320q0 -96 -79 -96h-144l-19 68l134 -1q35 0 35 51v298h-226v70z" />
    <glyph glyph-name="uni5982" unicode="&#x5982;" 
d="M899 727v-783h-70v61h-205v-61h-70v783h345zM624 75h205v582h-205v-582zM293 814q-17 -100 -33 -179h208v-42q-15 -246 -115 -424q93 -71 149 -123l-49 -58q-57 56 -138 120q-82 -118 -207 -204l-48 59q121 78 200 189q-95 73 -171 127q45 129 82 286h-117v70h132
q22 112 34 185zM400 565h-155q-35 -155 -76 -265q66 -44 128 -89q86 153 103 354z" />
    <glyph glyph-name="uni59D1" unicode="&#x59d1;" 
d="M249 813q-21 -141 -29 -189h161v-41q-12 -239 -90 -412q85 -78 128 -128l-48 -55q-54 62 -112 118q-66 -117 -167 -202l-44 55q97 80 160 195q-66 60 -140 122q36 119 68 279h-85v69h98q17 95 30 195zM312 555h-104q-30 -154 -63 -258q58 -48 93 -79q62 147 74 337z
M417 616h227v196h71v-196h237v-69h-237v-209h178v-436h-70v46h-283v-46h-70v436h174v209h-227v69zM540 16h283v255h-283v-255z" />
    <glyph glyph-name="uni5A01" unicode="&#x5a01;" 
d="M235 471v63h322v-63h-134q-15 -62 -28 -110h165v-58q-25 -113 -77 -195q45 -27 81 -55l-38 -55q-36 29 -82 58q-78 -91 -204 -146l-35 62q110 45 180 120q-64 38 -133 72q22 55 52 135h-74v62h95q20 63 32 110h-122zM497 299h-122q-15 -47 -40 -108q43 -21 91 -48
q46 67 71 156zM891 524q-50 -248 -133 -401q5 -17 14 -39q39 -86 71 -88q26 6 51 166l67 -43q-21 -84 -45 -140q-30 -68 -68 -68q-53 0 -107 95q-12 21 -25 49q-58 -85 -133 -136l-40 58q83 57 144 159q-22 68 -38 151q-27 132 -36 342h-427v-212q-5 -318 -79 -507l-61 54
q68 163 71 453v280h494q-2 38 -2 117h73q0 -80 1 -117h115q-21 48 -45 90l67 11q24 -52 41 -101h70v-68h-246q6 -169 24 -288q9 -58 23 -120q62 142 97 330z" />
    <glyph glyph-name="uni5A31" unicode="&#x5a31;" 
d="M251 816q-14 -98 -30 -190h153v-41q-12 -229 -85 -403q70 -56 122 -108l-47 -56q-39 43 -105 101q-68 -129 -178 -222l-46 57q107 86 172 210q-60 51 -136 109q37 129 67 284h-92v69h105q17 98 30 196zM306 557h-98q-32 -159 -66 -263q51 -36 93 -69q59 143 71 332z
M381 255h235q10 56 11 111h-207v67h485v-67h-208q-3 -66 -10 -111h255v-68h-228q81 -144 251 -232l-48 -56q-171 101 -255 250q-17 -50 -39 -88q-70 -107 -223 -166l-38 61q149 57 207 153q21 38 32 78h-220v68zM449 777h427v-247h-427v247zM809 590v127h-293v-127h293z" />
    <glyph glyph-name="uni5B54" unicode="&#x5b54;" 
d="M695 -95q-102 0 -102 110v798h74v-783q0 -58 50 -58h97q35 0 51 25q20 31 26 175l68 -22q-12 -175 -43 -213q-27 -32 -89 -32h-132zM79 778h406v-63q-39 -76 -137 -194v-150q72 16 157 41v-72q-104 -28 -157 -41v-302q0 -94 -102 -94h-116l-17 69q88 -5 111 -5
q53 0 53 49v267q-100 -22 -217 -42l-18 76q122 15 235 39v192q67 72 125 163h-323v67z" />
    <glyph glyph-name="uni5B57" unicode="&#x5b57;" 
d="M924 714v-223h-72v154h-704v-154h-72v223h393q-20 52 -45 97l82 14q21 -48 42 -111h376zM230 537h537v-67q-89 -63 -218 -134v-67h394v-70h-394v-212q0 -83 -87 -83h-123l-17 66q70 -2 115 -2q39 0 39 44v187h-418v70h418v98q113 59 183 103h-429v67z" />
    <glyph glyph-name="uni5B63" unicode="&#x5b63;" 
d="M463 715q-144 -8 -293 -8l-21 62q389 0 656 46l32 -56q-129 -27 -300 -39v-79h392v-66h-317q108 -105 342 -165l-31 -67q-275 90 -383 232h-3v-154h-74v154h-2q-95 -137 -374 -236l-40 66q254 76 341 170h-317v66h392v74zM90 168h396v71q107 52 151 77h-384v64h481v-64
q-71 -49 -175 -106v-42h350v-65h-350v-119q0 -84 -97 -84h-143l-17 65q84 -2 135 -2q49 0 49 44v96h-396v65z" />
    <glyph glyph-name="uni5B66" unicode="&#x5b66;" 
d="M922 614v-224h-71v155h-703v-155h-70v224h573q65 95 114 209l73 -27q-52 -107 -109 -182h193zM231 460h539v-64q-102 -65 -221 -123v-51h381v-68h-381v-169q0 -81 -86 -81h-126l-17 66q72 -2 118 -2q38 0 38 42v144h-405v68h405v83q126 55 191 91h-436v64zM220 808
q59 -79 103 -157l-62 -31q-52 89 -106 156zM462 827q52 -78 95 -165l-64 -32q-45 93 -96 165z" />
    <glyph glyph-name="uni5B81" unicode="&#x5b81;" 
d="M917 703v-195h-73v126h-688v-125h-73v194h392q-23 66 -49 118l77 12q23 -55 46 -130h368zM73 446h854v-70h-375v-377q0 -93 -92 -93h-148l-16 70q80 -5 139 -5q44 0 44 46v359h-406v70z" />
    <glyph glyph-name="uni5B85" unicode="&#x5b85;" 
d="M891 353l10 -69l-417 -53v-212q0 -31 36 -31h273q32 0 48 19q19 24 25 134l68 -22q-11 -143 -42 -173q-27 -27 -85 -27h-309q-86 0 -86 84v219l-312 -40l-11 68l323 42v156q-103 -15 -194 -23l-15 68q300 24 541 91l23 -64q-123 -34 -283 -61v-158zM912 719v-214h-73v143
h-685v-153h-73v224h390q-17 49 -39 91l77 12q20 -47 38 -103h365z" />
    <glyph glyph-name="uni5B87" unicode="&#x5b87;" 
d="M216 531h573v-69h-237v-157h383v-70h-383v-234q0 -90 -99 -90h-152l-16 69q100 -4 143 -4q51 0 51 43v216h-412v70h412v157h-263v69zM914 730v-203h-73v133h-682v-135h-73v205h386q-22 56 -38 85l77 12q18 -38 38 -97h365z" />
    <glyph glyph-name="uni5B89" unicode="&#x5b89;" 
d="M915 719v-215h-74v145h-683v-144h-74v214h380q-21 50 -46 92l80 14q25 -49 45 -106h372zM60 441h280q54 99 86 163l74 -22q-39 -75 -75 -141h517v-70h-197q-61 -157 -141 -251q157 -67 314 -156l-48 -63q-167 97 -318 166q-167 -149 -446 -158l-42 67q256 2 415 123
q-143 61 -280 105q51 79 102 167h-241v70zM386 371q-45 -78 -84 -138q108 -31 232 -83q81 88 132 221h-280z" />
    <glyph glyph-name="uni5B8F" unicode="&#x5b8f;" 
d="M80 456h263q20 70 34 155l74 -10q-15 -69 -35 -145h506v-69h-527q-103 -313 -296 -473l-45 58q182 164 268 415h-242v69zM739 208q90 -123 163 -280l-64 -32l-34 72q-231 -30 -478 -50l-13 65q107 65 221 333l71 -21q-90 -206 -184 -308q248 26 351 42q-48 85 -96 152z
M900 721v-203h-71v135h-658v-135h-71v203h371q-24 53 -49 93l77 12q22 -43 46 -105h355z" />
    <glyph glyph-name="uni5B98" unicode="&#x5b98;" 
d="M916 725v-205h-74v135h-684v-134h-74v204h381q-23 47 -55 92l78 12q23 -39 50 -104h378zM774 556v-249h-480v-104h526v-303h-72v40h-454v-41h-72v657h552zM294 3h454v137h-454v-137zM294 370h409v122h-409v-122z" />
    <glyph glyph-name="uni5B9A" unicode="&#x5b9a;" 
d="M207 520h588v-68h-254v-176h298v-68h-298v-207q109 -16 254 -17q76 0 157 6l-13 -72h-112q-301 0 -434 56q-100 47 -161 144q-58 -129 -144 -216l-46 57q143 152 194 411l70 -12q-17 -86 -46 -171q72 -128 180 -163l29 -8v436h-262v68zM909 715v-213h-70v147h-678v-152
h-70v218h382q-21 51 -50 99l77 12q27 -56 46 -111h363z" />
    <glyph glyph-name="uni5B9C" unicode="&#x5b9c;" 
d="M763 546v-553h184v-67h-882v67h181v553h517zM319 -7h371v119h-371v-119zM319 176h371v118h-371v-118zM319 358h371v120h-371v-120zM899 718v-203h-70v137h-658v-137h-70v203h365q-18 50 -42 90l75 12q19 -41 40 -102h360z" />
    <glyph glyph-name="uni5B9D" unicode="&#x5b9d;" 
d="M464 446h-287v68h652v-68h-292v-172h259v-68h-259v-211h381v-67h-833v67h379v211h-264v68h264v172zM711 178q74 -83 111 -143l-56 -38q-41 67 -110 148zM902 714v-194h-72v125h-664v-131h-73v200h376q-18 44 -41 87l77 12q19 -40 40 -99h357z" />
    <glyph glyph-name="uni5B9E" unicode="&#x5b9e;" 
d="M908 713v-200h-73v133h-670v-138h-73v205h380q-21 59 -43 102l76 12q18 -43 38 -114h365zM215 454q115 -45 205 -106l-37 -57q-100 72 -204 110zM275 606q105 -40 200 -103l-36 -57q-101 72 -199 109zM578 595h73v-111q-5 -131 -43 -230h326v-67h-357q-12 -22 -32 -49
q206 -74 384 -182l-40 -62q-191 121 -387 194q-121 -118 -379 -188l-39 61q277 74 385 194l23 32h-429v67h466q44 98 49 230v111z" />
    <glyph glyph-name="uni5BAB" unicode="&#x5bab;" 
d="M243 554h516v-242h-516v242zM692 375v116h-382v-116h382zM842 215v-317h-71v43h-541v-43h-71v317h683zM230 6h541v143h-541v-143zM916 718v-219h-74v149h-684v-149h-74v219h382q-18 50 -44 97l77 12q23 -53 40 -109h377z" />
    <glyph glyph-name="uni5BB6" unicode="&#x5bb6;" 
d="M596 273q25 -75 26 -156q0 -118 -32 -164q-37 -52 -166 -52h-34l-24 63h48q89 2 111 27q27 33 27 126q-2 32 -4 50q-167 -131 -439 -214l-36 62q300 88 461 221q-14 44 -29 75q-141 -111 -384 -180l-36 62q255 67 389 170q-14 23 -40 52l-22 -11q-103 -48 -272 -96
l-37 59q145 32 260 81q67 30 103 50h-265v67h599v-67h-229q-51 -35 -82 -53q53 -54 84 -117q140 39 265 121l49 -49q-82 -54 -172 -89q70 -188 230 -301l-51 -59q-165 134 -237 339zM512 824q16 -36 34 -95h376v-174h-71v107h-702v-107h-71v174h396q-16 45 -35 82z" />
    <glyph glyph-name="uni5BB8" unicode="&#x5bb8;" 
d="M235 241q-30 -203 -136 -337l-52 46q124 151 130 418v208h662v88h-678v-109h-70v175h382q-24 48 -51 87l74 12q23 -41 49 -99h364v-175h-68v-42h-596v-145l-3 -63h658v-64h-326q44 -77 107 -134q73 51 128 109l52 -40q-67 -64 -133 -107q96 -70 222 -107l-36 -60
q-278 89 -407 339h-122v-238q105 26 191 61l12 -63q-117 -45 -282 -78l-18 61q31 14 31 48v209h-84zM312 434h489v-58h-489v58z" />
    <glyph glyph-name="uni5BB9" unicode="&#x5bb9;" 
d="M512 822q16 -34 34 -89h363v-178h-70v111h-678v-116h-70v183h380q-17 39 -36 76zM529 502q121 -151 419 -265l-39 -59q-60 24 -111 48v-327h-69v42h-447v-42h-70v331q-54 -26 -124 -53l-38 59q275 102 424 266h55zM282 7h447v160h-447v-160zM787 231q-183 90 -286 208
q-119 -125 -287 -208h573zM617 624q183 -95 304 -186l-50 -49q-108 89 -300 190zM428 582q-128 -111 -313 -195l-43 56q183 78 308 182z" />
    <glyph glyph-name="uni5BC6" unicode="&#x5bc6;" 
d="M918 735v-204h-70v139h-696v-139h-70v204h385q-16 39 -35 74l76 12q18 -40 32 -86h378zM467 205h72v-196h250v172h71v-282h-71v43h-563v-42h-71v272h71v-163h241v196zM453 649q70 -69 105 -118l-53 -37q-40 57 -105 122zM760 586q-139 -169 -356 -280q11 -6 26 -6h195
q34 0 50 14q20 18 26 108l68 -22q-12 -117 -43 -142q-29 -23 -88 -23h-228q-58 0 -79 36q-120 -52 -258 -90l-28 61q148 40 272 96v203h69v-169q195 103 322 254zM796 526q101 -116 157 -205l-57 -40q-61 101 -152 208zM282 564q-45 -136 -128 -236l-59 37q86 96 123 213z
" />
    <glyph glyph-name="uni5BCC" unicode="&#x5bcc;" 
d="M197 611h605v-58h-605v58zM231 497h538v-190h-538v190zM701 359v83h-402v-83h402zM858 252v-353h-69v36h-576v-37h-69v354h714zM213 -8h252v77h-252v-77zM535 -8h254v77h-254v-77zM213 123h252v73h-252v-73zM535 196v-73h254v73h-254zM921 738v-189h-69v125h-704v-125
h-69v189h389q-20 46 -37 74l76 12q17 -33 37 -86h377z" />
    <glyph glyph-name="uni5BD3" unicode="&#x5bd3;" 
d="M224 626h554v-313h-244v-68h346v-256q0 -85 -82 -85h-132l-16 61l128 -3q35 0 35 41v181h-284v-106q15 1 113 13q-17 39 -30 61l56 18q43 -80 75 -167l-56 -26q-25 68 -22 61q-134 -22 -398 -40l-9 65q86 2 208 10v111h-274v-285h-68v346h342v68h-242v313zM710 369v73
h-176v-73h176zM466 369v73h-174v-73h174zM292 495h174v74h-174v-74zM534 569v-74h176v74h-176zM902 748v-186h-68v124h-669v-124h-68v186h362q-20 37 -43 67l74 12q21 -34 43 -79h369z" />
    <glyph glyph-name="uni5BF0" unicode="&#x5bf0;" 
d="M173 642h654v-178h-654v178zM759 517v72h-130v-72h130zM567 517v72h-136v-72h136zM370 517v72h-129v-72h129zM57 415h886v-57h-886v57zM194 306h603v-172h-224q39 -59 111 -100l26 -14q81 63 110 98l53 -33q-39 -39 -104 -87q78 -22 186 -27l-21 -60q-165 9 -272 67
q-99 54 -156 156h-31q-72 -51 -156 -88v-74q104 24 199 51l11 -60q-149 -39 -282 -61l-21 52q26 8 26 23v44q-73 -23 -159 -37l-40 54q191 28 320 96h-179v172zM729 186v70h-468v-70h468zM907 758v-156h-71v96h-672v-99h-71v159h370q-20 37 -38 60l71 12q21 -33 39 -72h372z
" />
    <glyph glyph-name="uni5C0A" unicode="&#x5c0a;" 
d="M166 606h210v67h-296v62h222q-21 42 -45 78l72 12q25 -47 43 -90h246q26 41 40 89l74 -10q-15 -41 -39 -79h230v-62h-301v-67h212v-394h-71v-62h176v-63h-176v-88q0 -89 -81 -89h-139l-15 65q77 -5 130 -5q36 0 36 47v70h-428q100 -56 171 -116l-49 -49q-61 56 -170 123
l43 42h-202v63h635v62h-528v394zM554 606v67h-111v-67h111zM764 269v57h-528v-57h528zM236 380h528v54h-128q-82 0 -82 70v44h-118q-24 -96 -131 -145l-49 44q89 36 111 101h-131v-168zM622 548v-37q0 -26 33 -26h109v63h-142z" />
    <glyph glyph-name="uni5C14" unicode="&#x5c14;" 
d="M728 384q117 -181 199 -381l-66 -30q-90 221 -198 390zM292 630q-62 -129 -151 -217l-51 48q137 148 200 366l69 -19q-22 -70 -37 -109h553v-46q-23 -112 -58 -213l-71 20q32 79 53 170h-507zM326 -96l-15 71q68 -5 117 -5q42 0 42 47v523h74v-541q0 -95 -91 -95h-127z
M345 354q-90 -206 -215 -362l-60 42q123 147 213 351z" />
    <glyph glyph-name="uni5C16" unicode="&#x5c16;" 
d="M538 379q-6 -55 -18 -101h419v-70h-376q125 -178 395 -244l-39 -63q-288 79 -424 301q-33 -81 -87 -138q-103 -106 -337 -166l-29 66q214 51 309 146q40 40 68 98h-357v70h383q13 47 21 101h72zM337 706q-81 -179 -210 -274l-56 49q132 93 200 251zM710 750
q137 -156 213 -275l-61 -43q-72 122 -208 283zM464 805h74v-386h-74v386z" />
    <glyph glyph-name="uni5C1A" unicode="&#x5c1a;" 
d="M463 816h74v-282h357v-537q0 -94 -90 -94h-92l-20 71l88 -3q43 0 43 42v452h-642v-566h-71v635h353v282zM319 352h366v-294h-366v294zM616 124v161h-228v-161h228zM839 763q-42 -107 -108 -190l-58 33q63 80 101 181zM228 771q55 -78 95 -164l-63 -29q-45 96 -99 171z
" />
    <glyph glyph-name="uni5C3C" unicode="&#x5c3c;" 
d="M793 711h-561v-156h561v156zM232 487v-41q-1 -314 -131 -541l-53 48q113 192 114 493v333h702v-292h-632zM428 -71q-86 0 -86 94v403h70v-175q233 48 453 138l42 -59q-264 -101 -495 -148v-145q0 -39 38 -39h333q38 0 54 19q23 25 29 143l66 -22q-12 -149 -44 -181
q-30 -28 -91 -28h-369z" />
    <glyph glyph-name="uni5C40" unicode="&#x5c40;" 
d="M330 292h353v-252h-353v252zM618 101v131h-223v-131h223zM785 710h-548v-110h548v110zM237 535v-88h667q0 -371 -15 -458q-14 -83 -122 -83q-37 0 -129 3l-16 61q80 -3 136 -3q55 0 65 48q8 53 11 367h-597q-3 -277 -138 -477l-56 50q122 166 124 431v392h688v-243h-618z
" />
    <glyph glyph-name="uni5C42" unicode="&#x5c42;" 
d="M324 434h543v-64h-543v64zM254 271h678v-66h-383q-90 -147 -160 -211q200 15 389 43l-87 100l53 33q125 -133 190 -227l-58 -41q-24 39 -54 78q-238 -33 -521 -51l-16 61l15 7q65 38 173 208h-219v66zM810 710h-587v-116h587v116zM223 529v-83q-2 -315 -124 -539l-52 47
q104 191 105 492v331h728v-248h-657z" />
    <glyph glyph-name="uni5C45" unicode="&#x5c45;" 
d="M216 352q-18 -258 -120 -453l-56 50q107 194 108 498v330h736v-246h-280v-114h322v-65h-322v-121h254v-334h-69v49h-425v-49h-69v334h240v121h-319zM535 531h-316v-114h316v114zM364 12h425v153h-425v-153zM813 710h-594v-113h594v113z" />
    <glyph glyph-name="uni5C4B" unicode="&#x5c4b;" 
d="M548 232q-131 -10 -239 -14l-19 51q93 46 160 136h-185v64h615v-64h-354q-50 -72 -116 -124q161 7 326 29l-40 57l58 28q60 -82 114 -180l-61 -30l-38 70q-109 -13 -151 -16v-98h244v-64h-244v-89h302v-65h-684v65h312v89h-262v64h262v91zM805 713h-580v-107h580v107z
M225 540v-90q-2 -325 -120 -557l-56 49q107 197 108 508v329h717v-239h-649z" />
    <glyph glyph-name="uni5C4F" unicode="&#x5c4f;" 
d="M692 332h-185v-53q-1 -43 -6 -81h191v134zM692 132h-202q-16 -61 -38 -101q-51 -87 -166 -135l-40 63q107 45 148 119q12 26 21 54h-177v66h192q5 39 6 81v53h-162v66h162q-32 53 -57 88l61 29q41 -61 70 -117h156q45 59 77 123l69 -24q-31 -54 -69 -99h163v-66h-145
v-134h184v-66h-184v-224h-69v224zM823 714h-605v-103h605v103zM218 543v-94q-2 -320 -109 -547l-62 54q98 191 100 493v333h746v-239h-675z" />
    <glyph glyph-name="uni5C55" unicode="&#x5c55;" 
d="M255 437h146v101h-189v-98q0 -81 -10 -171h199v104h-146v64zM192 203q-30 -168 -99 -303l-58 52q103 190 104 488v338h742v-240h-139v-101h157v-64h-157v-104h190v-66h-321q37 -65 97 -119q69 37 129 113l50 -49q-56 -68 -123 -106q86 -55 200 -79l-35 -68
q-276 69 -390 308h-136v-218q90 22 169 55l14 -66q-111 -41 -270 -73l-20 63q36 14 36 50v189h-140zM672 538h-202v-101h202v101zM470 269h202v104h-202v-104zM809 712h-597v-109h597v109z" />
    <glyph glyph-name="uni5C79" unicode="&#x5c79;" 
d="M541 616q-45 -75 -94 -132l-40 49v-510h-62v53q-128 -27 -259 -43l-28 59q17 8 17 21v578h61v-588l71 10v703h64v-692l74 16v551h62v-146q92 105 154 275l66 -15q-26 -72 -50 -121h353v-68h-389zM482 466h383v-62q-127 -127 -197 -213q-60 -72 -87 -116q-22 -37 -22 -55
q0 -38 51 -38h180q45 0 67 25q20 25 31 165l66 -24q-12 -164 -51 -197q-35 -32 -113 -34h-195q-111 0 -111 90q0 31 24 70q27 48 102 139q59 77 161 184h-289v66z" />
    <glyph glyph-name="uni5C7F" unicode="&#x5c7f;" 
d="M217 816h66v-687q33 6 71 15v547h64v-661h-64v46q-103 -21 -260 -41l-30 63q17 8 17 23v570h64v-584q48 6 72 10v699zM600 625l-18 -163h332q0 -416 -28 -484q-27 -64 -114 -64q-36 0 -116 4l-20 64q97 -5 120 -5q63 0 75 59q12 63 12 358h-338l44 425l71 -6l-13 -118
h330v-70h-337zM466 241h322v-68h-322v68z" />
    <glyph glyph-name="uni5C9B" unicode="&#x5c9b;" 
d="M586 27v152h70v-210l60 -1q51 0 74 34q25 39 25 286h-623v437h198q24 52 36 104l72 -10q-11 -48 -35 -94h317q-12 -221 -35 -258q-24 -41 -91 -41h-64l-22 66q66 -2 86 -2q24 0 35 20q9 19 15 149h-439v-305h622q-3 -346 -42 -401q-39 -53 -131 -53h-63l-17 60h-515v218
h69v-151h164v204h70v-204h164zM379 609q81 -52 156 -130l-42 -49q-77 82 -160 137z" />
    <glyph glyph-name="uni5CAD" unicode="&#x5cad;" 
d="M192 816h62v-694l66 15v554h60v-207q163 128 250 329h64q78 -192 266 -335l-39 -60q-176 133 -259 325q-99 -212 -252 -326l-30 46v-433h-60v42q-111 -22 -249 -39l-28 58q22 9 22 24v576h61v-589l66 9v705zM625 559q63 -45 122 -111l-43 -49q-57 68 -126 118zM438 365
h450v-59q-78 -142 -182 -254q62 -51 111 -99l-53 -52q-101 107 -284 235l49 47q83 -56 124 -89q78 81 157 205h-372v66z" />
    <glyph glyph-name="uni5CB3" unicode="&#x5cb3;" 
d="M271 500v-158h340v158h-340zM200 342v395q354 12 607 70l38 -64q-250 -50 -574 -70v-107h597v-66h-188v-158h262v-69h-883v69h141zM465 231h70v-223h238v174h69v-284h-69v42h-545v-43h-69v285h69v-174h237v223z" />
    <glyph glyph-name="uni5CB8" unicode="&#x5cb8;" 
d="M281 355h599v-65h-264v-121h314v-68h-314v-204h-72v204h-309v68h309v121h-263v65zM466 821h71v-171h259v134h71v-200h-733v200h71v-134h261v171zM924 507v-67h-732v-149q-4 -242 -96 -389l-53 47q76 124 80 342v216h801z" />
    <glyph glyph-name="uni5CEA" unicode="&#x5cea;" 
d="M861 300v-400h-68v59h-224v-59h-68v400h360zM569 25h224v210h-224v-210zM762 804q105 -84 182 -174l-53 -52q-64 84 -177 180zM649 758q-81 -115 -171 -195l-50 49q97 87 167 187zM716 611q72 -156 244 -275l-39 -60q-158 107 -237 265q-96 -178 -243 -275l-38 58v-324
h-62v65q-116 -24 -254 -42l-28 59q18 8 18 23v573h62v-586q46 6 69 10v719h64v-708l69 14v553h62v-353q160 108 248 284h65z" />
    <glyph glyph-name="uni5CF0" unicode="&#x5cf0;" 
d="M69 692h58v-610q26 2 68 8v719h58v-710l67 11v582h58v-690h-58v46q-103 -20 -240 -34l-28 58q17 6 17 20v600zM442 360h200v71h71v-71h197v-64h-197v-82h175v-64h-175v-80h230v-63h-230v-106h-71v106h-225v63h225v80h-182v64h182v82h-200v64zM653 804q-11 -22 -35 -62
h258v-57q-42 -88 -135 -154q92 -38 218 -61l-25 -65q-156 29 -261 84q-109 -57 -260 -93l-34 63q135 27 230 70q-54 38 -90 88q-33 -32 -60 -53l-44 52q107 78 174 202zM800 680h-225l-15 -19q41 -56 114 -98q83 51 126 117z" />
    <glyph glyph-name="uni5CF6" unicode="&#x5cf6;" 
d="M224 559v-68h513v68h-513zM737 612v67h-513v-67h513zM224 310v-69h675q-9 -237 -40 -287q-31 -46 -117 -51h-60l-22 67q58 -2 82 -2q46 3 63 32q16 33 21 181h-424v-150h182v106h70v-167h-573v169h69v-108h182v150h-177v553h225q21 42 33 87l73 -10q-12 -42 -33 -77h354
v-301h-583v-65h716v-58h-716z" />
    <glyph glyph-name="uni5D58" unicode="&#x5d58;" 
d="M422 252v66h229v115h69v-115h231v-66h-177q57 -132 192 -234l-48 -60q-135 132 -189 294h-9v-352h-69v352h-9q-56 -181 -190 -301l-39 65q124 93 180 236h-171zM197 816h59v-693q27 5 67 14v553h57v-659h-57v43q-107 -21 -238 -36l-27 57q17 6 17 20v575h56v-586l66 9
v703zM926 545v-165h-67v100h-348v-109h-66v174h481zM428 726h115v90h70v-90h140v91h70v-91h120v-67h-120v-76h-70v76h-140v-76h-70v76h-115v67z" />
    <glyph glyph-name="uni5DBA" unicode="&#x5dba;" 
d="M281 594q103 -100 187 -195l-46 -49q-91 111 -159 177q-79 -111 -183 -204l-39 55q104 93 189 216h51zM88 270h337v-57q-58 -106 -132 -188q51 -40 93 -81l-49 -50q-81 86 -224 182l46 45q62 -41 85 -59q53 60 105 144h-261v64zM244 421q63 -67 96 -115l-51 -35
q-34 54 -95 119zM466 817h72v-113h260v85h72v-150h-743v150h71v-85h268v113zM499 454h139q14 31 22 69h-210v60h487v-60h-207q-7 -27 -22 -69h188v-412h-397v412zM830 100v63h-264v-63h264zM566 219h264v61h-264v-61zM566 336h264v61h-264v-61zM667 0q-77 -61 -194 -108
l-37 50q111 42 187 97zM777 39q96 -50 167 -103l-44 -45q-60 51 -166 107z" />
    <glyph glyph-name="uni5DDD" unicode="&#x5ddd;" 
d="M485 772h73v-797h-73v797zM784 812h73v-909h-73v909zM188 808h73v-387q-3 -357 -168 -522l-55 49q147 147 150 473v387z" />
    <glyph glyph-name="uni5DDE" unicode="&#x5dde;" 
d="M202 559q-20 -155 -73 -294l-65 22q55 133 76 289zM550 780h70v-847h-70v847zM826 812h69v-913h-69v913zM404 553q64 -119 110 -248l-59 -30q-46 136 -109 253zM269 804h69v-305q-3 -410 -190 -600l-53 47q171 173 174 553v305zM682 562q62 -113 108 -247l-58 -29
q-48 142 -108 251z" />
    <glyph glyph-name="uni5DE2" unicode="&#x5de2;" 
d="M305 797q-49 -57 -102 -96q48 -27 106 -80l-61 -35q-63 64 -143 113q83 59 135 125zM595 797q-53 -55 -110 -93q61 -30 122 -79l-61 -35q-76 66 -160 112q89 58 144 122zM166 585h666v-320h-297v-70h383v-65h-312q104 -88 332 -158l-46 -59q-246 97 -349 217h-8v-228h-70
v228h-5q-112 -132 -357 -216l-37 62q224 62 331 154h-315v65h383v70h-299v320zM762 326v69h-227v-69h227zM465 326v69h-228v-69h228zM237 453h228v70h-228v-70zM535 523v-70h227v70h-227zM867 797q-46 -53 -100 -93q53 -32 104 -83l-62 -35q-60 63 -141 116q82 57 133 122z
" />
    <glyph glyph-name="uni5DE6" unicode="&#x5de6;" 
d="M72 672h303q15 64 28 149l72 -9q-15 -91 -26 -140h496v-70h-513q-31 -117 -79 -229h512v-69h-244v-305h325v-70h-729v70h331v305h-228q-96 -182 -237 -295l-37 66q219 186 312 527h-286v70z" />
    <glyph glyph-name="uni5DE7" unicode="&#x5de7;" 
d="M176 640h-120v69h305v-69h-111v-471q74 29 134 59v-73q-153 -74 -322 -122l-17 73q69 15 131 36v498zM391 754h563v-69h-344q-26 -137 -57 -254h357q-6 -425 -55 -478q-39 -47 -175 -49h-99l-20 67q88 -2 122 -2q92 1 119 35q32 38 37 358h-374q44 166 74 323h-148v69z
" />
    <glyph glyph-name="uni5DE8" unicode="&#x5de8;" 
d="M831 193h-613v-191h714v-69h-785v844h761v-70h-690v-166h613v-348zM218 472v-210h543v210h-543z" />
    <glyph glyph-name="uni5DF7" unicode="&#x5df7;" 
d="M118 703h196v110h69v-110h234v109h69v-109h195v-64h-195v-124h244v-65h-239q84 -140 268 -218l-31 -66q-128 63 -209 147v-198h-398v-91q0 -40 43 -40h351q43 1 61 28q13 21 22 110l66 -21q-8 -82 -25 -125q-25 -56 -104 -59h-397q-86 0 -86 82v282q-71 -65 -178 -123
l-38 61q199 102 268 231h-234v65h244v124h-196v64zM685 351q-39 47 -66 99h-242q-24 -51 -60 -99h368zM383 515h234v124h-234v-124zM321 180h330v107h-330v-107z" />
    <glyph glyph-name="uni5E02" unicode="&#x5e02;" 
d="M57 702h409q-23 60 -54 113l78 12q23 -49 49 -125h404v-69h-406v-131h325v-363q0 -91 -91 -91h-100l-18 69l95 -4q42 0 42 42v278h-253v-531h-74v531h-241v-392h-71v461h312v131h-406v69z" />
    <glyph glyph-name="uni5E03" unicode="&#x5e03;" 
d="M529 554h69v-122h282v-336q0 -94 -94 -94h-94l-18 67l89 -2q48 0 48 44v254h-213v-465h-69v465h-214v-370h-69v383q-76 -78 -163 -144l-46 60q192 142 300 323h-267v70h305q33 65 55 134l73 -9q-22 -68 -48 -125h485v-70h-520q-55 -100 -126 -185h235v122z" />
    <glyph glyph-name="uni5E08" unicode="&#x5e08;" 
d="M394 776h561v-70h-245v-123h206v-490q0 -83 -76 -83h-68l-19 70l64 -4q30 0 30 32v408h-137v-612h-70v612h-137v-513h-69v580h206v123h-246v70zM87 681h70v-526h-70v526zM263 812h70v-476q-4 -298 -204 -436l-54 47q185 122 188 389v476z" />
    <glyph glyph-name="uni5E15" unicode="&#x5e15;" 
d="M920 665v-761h-70v53h-305v-52h-70v760h139q28 71 43 153l71 -10q-16 -80 -43 -143h235zM545 27h305v256h-305v-256zM545 351h305v245h-305v-245zM306 74l-18 64l30 -3q28 0 28 23v433h-73v-689h-69v689h-74v-528h-63v597h137v156h69v-156h137v-516q0 -70 -71 -70h-33z
" />
    <glyph glyph-name="uni5E1D" unicode="&#x5e1d;" 
d="M105 734h365q-14 38 -35 82l75 13q16 -40 33 -95h355v-66h-166q-14 -78 -40 -146h223v-183h-70v117h-685v-118h-70v184h227l-44 146h-168v66zM622 522q27 70 39 146h-316l43 -146h234zM466 427h70v-110h284v-235q0 -102 -92 -102h-77l-17 64l73 -2q44 0 44 56v152h-215
v-350h-70v350h-199v-272h-70v339h269v110z" />
    <glyph glyph-name="uni5E26" unicode="&#x5e26;" 
d="M55 707h149v102h67v-102h190v106h70v-106h193v102h68v-102h153v-69h-153v-106h-68v106h-193v-110h-70v110h-190v-106h-67v106h-149v69zM911 470v-193h-70v125h-307v-109h259v-236q0 -89 -83 -89h-89l-18 70l84 -4q36 0 36 38v154h-189v-327h-72v327h-181v-259h-70v326
h251v109h-304v-128h-70v196h823z" />
    <glyph glyph-name="uni5E2E" unicode="&#x5e2e;" 
d="M109 619h178v73h-197v64h197v59h71v-59h177v-64h-177v-73h149v-59h-150q-3 -44 -10 -73h187v-64h-207q-13 -30 -30 -54q-57 -75 -183 -117l-37 58q118 39 164 102l6 11h-186v64h213q9 35 12 73h-177v59zM473 328h72v-94h313v-196q0 -82 -86 -82h-84l-18 66l80 -3
q38 0 38 34v116h-243v-276h-72v276h-240v-215h-70v280h310v94zM587 776h327v-48q-37 -83 -85 -153q90 -70 90 -127q-2 -83 -82 -102q-41 -11 -105 -11l-24 66q40 -4 54 -4q84 2 84 51q0 40 -96 127q47 60 85 136h-177v-411h-71v476z" />
    <glyph glyph-name="uni5E38" unicode="&#x5e38;" 
d="M463 304h-220v220h516v-220h-222v-80h318v-182q0 -90 -93 -90h-78l-19 69l74 -3q45 0 45 40v100h-247v-260h-74v260h-242v-212h-71v278h313v80zM463 822h74v-153h127q48 69 80 139l67 -25q-33 -64 -71 -114h176v-202h-74v134h-684v-135h-74v203h163q-28 57 -68 107l68 25
q40 -57 71 -132h145v153zM690 365v98h-377v-98h377z" />
    <glyph glyph-name="uni5E73" unicode="&#x5e73;" 
d="M97 772h808v-70h-372v-378h410v-69h-410v-354h-74v354h-402v69h402v378h-362v70zM219 638q58 -107 108 -229l-67 -33q-50 127 -108 229zM852 612q-44 -115 -119 -232l-64 33q74 119 117 230z" />
    <glyph glyph-name="uni5E74" unicode="&#x5e74;" 
d="M252 635q-63 -107 -158 -178l-48 60q152 114 204 309l75 -14q-14 -50 -38 -107h621v-70h-314v-160h279v-69h-279v-216h346v-70h-346v-223h-73v223h-462v70h165v285h297v160h-269zM296 190h225v216h-225v-216z" />
    <glyph glyph-name="uni5E78" unicode="&#x5e78;" 
d="M465 819h70v-107h324v-65h-324v-117h383v-68h-186q-21 -71 -61 -139h187v-66h-323v-117h399v-68h-399v-171h-70v171h-399v68h399v117h-323v66h179q-26 78 -55 139h-184v68h383v117h-324v65h324v107zM598 323q42 65 60 139h-317q23 -54 52 -139h205z" />
    <glyph glyph-name="uni5E7C" unicode="&#x5e7c;" 
d="M415 291q51 -123 85 -251l-66 -30l-16 59q-171 -49 -340 -71l-19 64q18 7 32 20q78 87 199 309q-99 -16 -220 -31l-18 67q18 7 31 28q98 162 167 365l70 -28q-93 -226 -186 -360q102 11 192 28l79 159l65 -24q-190 -378 -309 -521q120 21 240 54q-23 76 -51 142zM631 818
h73v-182h221q0 -497 -15 -614q-15 -107 -143 -107l-84 4l-17 68q68 -4 90 -4q74 0 86 69q9 84 12 514h-150v-58q-4 -417 -201 -609l-58 51q183 174 186 558v58h-130v70h130v182z" />
    <glyph glyph-name="uni5E84" unicode="&#x5e84;" 
d="M294 366h261v207h74v-207h267v-69h-267v-287h316v-70h-710v70h320v287h-261v69zM530 822q29 -52 54 -120h361v-69h-741v-222q-6 -321 -103 -512l-59 53q85 167 88 459v291h376q-21 52 -55 106z" />
    <glyph glyph-name="uni5E86" unicode="&#x5e86;" 
d="M253 413h284q4 40 5 59l1 120h68q0 -85 -5 -162q2 -12 4 -17h315v-67h-296q83 -250 326 -388l-43 -57q-247 147 -331 400q-76 -244 -344 -406l-41 59q268 155 328 392h-271v67zM525 823q34 -56 58 -112h362v-69h-741v-222q-6 -325 -112 -519l-56 50q89 167 94 469v291
h375q-28 55 -59 98z" />
    <glyph glyph-name="uni5E8F" unicode="&#x5e8f;" 
d="M538 821q23 -43 41 -87h362v-66h-738v-257q-6 -319 -107 -509l-54 48q86 167 89 461v323h376q-19 41 -42 75zM451 478q68 -34 132 -74q89 52 165 122h-441v62h531v-52q-91 -97 -200 -168q21 -13 45 -32l-15 -15h254v-56q-61 -117 -138 -198l-54 43q62 59 115 144h-230
v-267q0 -89 -89 -89h-147l-15 68q80 -5 138 -5q41 0 41 43v250h-294v67h356q-82 57 -197 115z" />
    <glyph glyph-name="uni5E90" unicode="&#x5e90;" 
d="M827 464h-444v-142h444v142zM379 254q-18 -200 -113 -345l-53 48q100 146 101 376v199h259q-21 51 -42 88l72 12q20 -41 40 -100h253v-278h-517zM525 825q24 -44 46 -101h377v-70h-745v-249q-6 -314 -109 -502l-55 48q88 164 92 454v319h369q-24 52 -49 89z" />
    <glyph glyph-name="uni5E95" unicode="&#x5e95;" 
d="M553 118q70 -87 113 -163l-57 -40q-38 74 -109 170zM376 276v-269q57 16 107 33l13 -67q-93 -28 -204 -53l-16 65q29 8 29 28v529q279 15 541 64l37 -60q-94 -18 -230 -35q10 -110 20 -167h243v-68h-231q8 -43 20 -84q28 -98 69 -154q39 -50 68 -50q23 3 46 139l60 -39
q-44 -176 -99 -176q-48 0 -100 58q-54 58 -97 175q-20 53 -35 131h-241zM376 485v-141h229q-15 88 -22 159q-102 -10 -207 -18zM528 819q28 -49 47 -92h368v-70h-740v-227q-6 -329 -104 -525l-54 48q83 172 86 477v297h370q-22 45 -48 80z" />
    <glyph glyph-name="uni5E97" unicode="&#x5e97;" 
d="M523 607h73v-119h330v-68h-330v-146h263v-373h-71v50h-422v-50h-71v373h228v333zM366 19h422v188h-422v-188zM529 822q22 -41 48 -103h368v-70h-737v-219q-5 -328 -109 -525l-54 48q89 172 92 477v289h367q-21 45 -50 91z" />
    <glyph glyph-name="uni5E9C" unicode="&#x5e9c;" 
d="M467 611q-26 -87 -58 -157v-548h-72v420q-41 -60 -83 -109l-25 78q121 151 170 330zM479 467h294v142h71v-142h104v-70h-104v-391q0 -97 -91 -97h-135l-15 70q73 -5 125 -5q45 0 45 50v373h-294v70zM932 736v-66h-724v-245q-6 -326 -121 -522l-55 48q100 172 104 474v311
h371q-16 38 -38 78l77 12q16 -36 34 -90h352zM551 312q89 -102 141 -184l-55 -38q-52 86 -141 188z" />
    <glyph glyph-name="uni5EA6" unicode="&#x5ea6;" 
d="M261 267h586v-53q-86 -105 -205 -175q135 -57 313 -81l-31 -62q-209 35 -350 106q-154 -73 -350 -106l-31 63q177 26 310 82q-112 70 -181 164h-61v62zM398 205q69 -78 172 -132q105 56 183 132h-355zM203 491v-78q-6 -318 -108 -510l-54 48q87 167 90 462v326h385
q-19 41 -38 71l76 12q19 -40 35 -83h343v-68h-729v-114h168v81h70v-81h265v82h70v-82h154v-66h-154v-156h-405v156h-168zM441 491v-95h265v95h-265z" />
    <glyph glyph-name="uni5EA7" unicode="&#x5ea7;" 
d="M269 200h267v417h71v-417h287v-67h-287v-140h337v-69h-731v69h323v140h-267v67zM680 246l-44 55q91 113 124 308l65 -12q-12 -65 -32 -131q68 -68 141 -155l-40 -61q-67 101 -119 163q-39 -99 -95 -167zM275 240l-44 55q95 115 130 312l67 -12q-16 -82 -35 -138
q60 -60 111 -138l-40 -62q-45 89 -90 147q-41 -97 -99 -164zM935 733v-70h-732v-239q-6 -328 -113 -523l-54 48q91 172 95 475v309h369q-18 45 -39 84l76 12q18 -42 36 -96h362z" />
    <glyph glyph-name="uni5EAD" unicode="&#x5ead;" 
d="M541 375h148v141q-80 -7 -144 -7l-22 63q213 2 351 49l34 -59q-69 -25 -148 -38v-149h148v-64h-148v-165h170v-64h-416v64h175v165h-148v64zM241 594h233v-57q-69 -110 -128 -176h130v-39q-6 -153 -70 -257q29 -26 62 -41q103 -43 318 -43q52 0 170 4l-13 -70h-125
q-268 0 -388 56q-33 16 -63 41q-59 -65 -139 -106l-36 62q76 37 127 95q-50 65 -86 161l57 22q30 -78 69 -128q43 77 52 184h-155v51q78 83 138 176h-153v65zM532 827q24 -44 44 -95h367v-66h-751v-259q-5 -313 -96 -500l-54 48q76 164 79 452v325h383q-21 44 -47 83z" />
    <glyph glyph-name="uni5EB7" unicode="&#x5eb7;" 
d="M840 275h-246v-56q46 -48 95 -85q83 52 139 117l52 -45q-59 -59 -140 -108q95 -62 211 -105l-36 -63q-186 78 -321 213v-161q0 -77 -76 -77h-112l-14 65q60 -5 103 -5q30 0 30 34v115q-130 -94 -301 -168l-28 65q193 73 329 173v91h-249v59h249v76h-329
q-8 -316 -103 -507l-54 48q83 170 87 474v322h382q-17 34 -36 64l74 12q18 -34 35 -76h348v-65h-335v-75h246v-137h100v-60h-100v-135zM196 470h329v78h-243v59h243v75h-329v-212zM594 548v-78h177v78h-177zM771 410h-177v-76h177v76zM279 232q77 -31 136 -74l-34 -51
q-67 47 -137 74z" />
    <glyph glyph-name="uni5ECA" unicode="&#x5eca;" 
d="M927 743v-65h-731v-270q-4 -315 -100 -503l-53 48q79 163 83 455v335h369q-16 34 -41 71l72 12q20 -35 42 -83h359zM337 359v-85h165v85h-165zM502 418v82h-165v-82h165zM506 180q52 -101 94 -227l-60 -26q-13 42 -27 78q-103 -40 -247 -74l-22 64q27 8 27 24v543h114
q-16 44 -33 77l70 12q18 -38 33 -89h112v-350h-230v-200q90 25 154 49q-24 58 -46 99zM636 587h276v-57q-42 -114 -91 -221q86 -112 94 -205q-2 -68 -28 -97q-38 -37 -131 -38l-22 67q23 -3 37 -3q45 3 60 18q16 16 16 53q0 86 -95 195q58 122 91 221h-141v-619h-66v686z
" />
    <glyph glyph-name="uni5EF7" unicode="&#x5ef7;" 
d="M63 762h280v-58q-82 -140 -160 -233h167v-41q-6 -194 -83 -330q43 -41 90 -62q131 -56 416 -58q90 0 183 6l-13 -71h-138q-341 0 -492 71q-45 21 -84 57q-66 -84 -163 -138l-36 62q92 51 150 127q-70 87 -118 218l61 22q42 -109 96 -179q57 108 66 255h-195v52
q93 104 173 234h-200v66zM625 670q-115 -7 -213 -7l-22 68q302 2 498 46l37 -63q-102 -26 -228 -38v-207h194v-70h-194v-226h223v-70h-522v70h227v226h-191v70h191v201z" />
    <glyph glyph-name="uni5EFA" unicode="&#x5efa;" 
d="M874 407h-214v-80h234v-59h-234v-83h263v-61h-263v-99h-70v99h-227v61h227v83h-196v59h196v80h-175v60h175v80h-224v60h224v79h-175v60h175v73h70v-73h214v-139h67v-60h-67v-140zM660 686v-79h144v79h-144zM660 547v-80h144v80h-144zM952 -6l-12 -69h-296q-270 0 -387 78
q-22 17 -34 29q-47 -69 -118 -123l-47 61q69 50 118 120q-59 85 -95 213l60 22q29 -104 70 -173q51 107 60 249h-185v56q90 115 160 240h-164v68h245v-59q-69 -127 -148 -239h157v-43q-6 -196 -79 -336q24 -25 49 -40q100 -56 307 -59q146 0 339 5z" />
    <glyph glyph-name="uni5F00" unicode="&#x5f00;" 
d="M112 757h779v-70h-167v-265h219v-69h-219v-443h-73v443h-289q-14 -155 -58 -256q-57 -126 -189 -195l-39 62q122 69 170 183q31 85 43 206h-231v69h235l1 35v230h-182v70zM368 687v-248l-1 -17h284v265h-283z" />
    <glyph glyph-name="uni5F17" unicode="&#x5f17;" 
d="M206 440l-24 -131h148q7 55 10 131h-134zM410 440q-3 -76 -10 -131h159v131h-149zM630 440v-131h275q0 -197 -25 -250q-27 -57 -118 -58q-21 0 -53 2l-17 66q33 -5 58 -5q58 0 73 44q10 36 12 136h-205v-343h-71v343h-169q-16 -84 -47 -148q-63 -127 -203 -198l-39 61
q133 70 187 187q18 44 30 98h-209l39 259h193v130h-241v66h241v118h70v-118h148v118h71v-118h230v-259h-230zM411 633v-130h148v130h-148zM630 633v-130h162v130h-162z" />
    <glyph glyph-name="uni5F18" unicode="&#x5f18;" 
d="M800 411q76 -205 137 -486l-67 -17q-12 57 -22 98q-200 -41 -384 -70l-13 70q26 6 30 18l184 783l72 -9l-187 -776q170 28 281 52q-44 172 -95 316zM172 487l-19 -160h255q0 -245 -19 -329q-21 -85 -169 -91q-23 0 -75 4l-17 66q50 -4 76 -4q101 0 118 55q14 58 14 233
h-258l31 293h220v156h-243v67h314v-290h-228z" />
    <glyph glyph-name="uni5F3A" unicode="&#x5f3a;" 
d="M419 442h212v85h-176v250h425v-250h-177v-85h211v-270h-211v-152l133 19q-12 30 -38 90l65 18q53 -118 85 -226l-63 -24q-8 27 -26 79q-193 -30 -450 -56l-17 69q88 7 239 22v161h-212v270zM848 234v146h-145v-146h145zM631 234v146h-147v-146h147zM160 488l-20 -162h213
q0 -245 -16 -328q-18 -85 -149 -91q-25 0 -77 4l-17 66q52 -4 78 -4q84 0 98 55q13 62 13 235h-216l31 290h175v157h-197v67h265v-289h-181zM814 588v129h-292v-129h292z" />
    <glyph glyph-name="uni5F53" unicode="&#x5f53;" 
d="M123 491h341v316h76v-316h337v-584h-73v39h-687v70h687v172h-634v69h634v164h-681v70zM880 734q-47 -104 -126 -202l-65 34q78 99 126 198zM194 755q80 -100 127 -182l-61 -42q-48 86 -127 186z" />
    <glyph glyph-name="uni5F55" unicode="&#x5f55;" 
d="M172 779h577v-325h180v-65h-399v-114q37 -44 77 -79q107 60 185 171l55 -46q-85 -109 -191 -165q118 -93 276 -161l-36 -64q-231 108 -366 264v-206q0 -90 -79 -90h-115l-15 68q62 -5 106 -5q31 0 31 44v183q-151 -138 -368 -254l-29 67q231 110 397 262v125h-386v65h604
v97h-470v63h470v100h-504v65zM180 351q89 -61 153 -127l-46 -47q-60 63 -155 128z" />
    <glyph glyph-name="uni5F69" unicode="&#x5f69;" 
d="M570 745q-189 -60 -503 -60l-21 64q293 0 490 56zM552 661q-30 -119 -76 -208l-58 21q40 76 74 202zM889 771q-108 -137 -272 -229l-31 66q153 80 255 217zM932 500q-120 -149 -298 -246l-32 66q171 88 283 233zM963 225q-142 -193 -356 -321l-33 68q207 115 340 307z
M77 361h218v99h72v-99h198v-70h-198v-62q99 -58 191 -124l-42 -64q-79 71 -149 122v-262h-72v309q-92 -148 -209 -242l-43 62q151 112 236 261h-202v70zM310 661q39 -82 59 -146l-61 -22q-23 73 -59 151zM130 642q44 -78 77 -176l-59 -15q-31 93 -75 172z" />
    <glyph glyph-name="uni5F71" unicode="&#x5f71;" 
d="M102 783h430v-270h-195l14 -62h230v-57h-534v57h237l-15 62h-167v270zM466 562v61h-299v-61h299zM167 669h299v64h-299v-64zM111 337h414v-193h-173v-164q0 -71 -73 -71h-72l-14 63q44 -4 64 -4q26 0 26 27v149h-172v193zM459 195v91h-282v-91h282zM189 84
q-44 -101 -98 -169l-51 37q55 67 95 159zM464 109q57 -80 86 -138l-51 -36q-34 69 -85 143zM911 757q-120 -118 -296 -196l-30 62q169 68 282 184zM936 494q-120 -138 -300 -228l-30 62q173 81 286 216zM962 249q-127 -243 -371 -347l-29 65q229 99 344 324z" />
    <glyph glyph-name="uni5F7C" unicode="&#x5f7c;" 
d="M630 817h72v-126h231v-35q-19 -92 -53 -171l-67 18q26 53 45 121h-156v-200h171v-61q-38 -157 -133 -267q94 -77 225 -133l-39 -63q-138 65 -232 147q-97 -93 -243 -153l-45 56q145 56 239 144q-112 119 -149 264h-38q-15 -267 -128 -459l-56 49q112 187 118 477v266h238
v126zM630 624h-170v-200h170v200zM801 358h-239q36 -121 128 -216q78 95 111 216zM179 313q-54 -51 -110 -90l-21 69q161 122 235 272l62 -29q-40 -81 -96 -148v-489h-70v415zM327 788q-81 -164 -267 -292l-21 70q155 111 225 252z" />
    <glyph glyph-name="uni5F85" unicode="&#x5f85;" 
d="M315 794q-77 -168 -256 -300l-21 70q149 116 214 260zM348 564q-37 -81 -92 -156v-505h-69v423q-49 -51 -119 -107l-21 69q164 134 239 305zM619 819h73v-109h223v-65h-223v-124h264v-68h-594v68h257v124h-221v65h221v109zM365 332h387v73h74v-73h116v-67h-116v-268
q0 -91 -96 -91h-144l-16 69q78 -5 135 -5q47 0 47 46v249h-387v67zM472 224q95 -92 139 -151l-56 -39q-51 69 -139 154z" />
    <glyph glyph-name="uni5F97" unicode="&#x5f97;" 
d="M178 320q-56 -53 -115 -95l-21 69q160 119 232 269l62 -28q-36 -74 -88 -139v-496h-70v420zM330 790q-82 -162 -270 -288l-21 70q159 108 231 246zM401 782h473v-319h-473v319zM805 521v74h-335v-74h335zM470 650h335v74h-335v-74zM357 392h577v-63h-121v-85h144v-63
h-144v-192q0 -83 -87 -83h-111l-15 68q60 -5 101 -5t41 37v175h-421v63h421v85h-385v63zM462 151q87 -84 131 -147l-55 -38q-51 71 -128 148z" />
    <glyph glyph-name="uni5FA1" unicode="&#x5fa1;" 
d="M250 771q-55 -153 -180 -273l-21 70q97 103 140 232zM279 532q-31 -80 -74 -145v-487h-66v401q-36 -39 -75 -75l-21 69q120 116 174 265zM383 639q-23 -47 -53 -93l-60 37q73 106 106 235l67 -14q-18 -62 -32 -100h213v-65h-109v-162h127v-66h-127v-123h110v-65h-110
v-176q63 17 117 33l12 -64q-140 -41 -344 -73l-18 57q33 12 33 44v286h62v-312q55 11 73 14v379h-157v66h157v162h-67zM791 16l-18 71l39 -4q37 0 37 39v560h-102v-784h-66v849h236v-639q0 -92 -82 -92h-44z" />
    <glyph glyph-name="uni5FB7" unicode="&#x5fb7;" 
d="M602 822l69 -10l-7 -66h260v-63h-269q-7 -39 -15 -75h260v-240h-525v240h197q5 25 13 75h-234v63h243zM353 300h568v-66h-568v66zM837 428v119h-96v-119h96zM684 428v119h-93v-119h93zM534 428v119h-96v-119h96zM313 792q-77 -167 -248 -296l-21 70q142 112 205 256z
M334 537q-33 -71 -86 -139v-499h-70v422q-47 -46 -108 -91l-21 68q154 118 223 268zM872 193q54 -95 93 -206l-59 -27q-40 117 -94 213zM425 157q-27 -128 -80 -225l-59 37q51 92 75 201zM562 -92q-84 0 -84 86v182h67v-167q0 -37 38 -37h133q24 0 33 11q13 16 17 86l63 -21
q-9 -100 -33 -122q-21 -18 -68 -18h-166zM653 208q61 -67 97 -120l-53 -38q-37 59 -96 125z" />
    <glyph glyph-name="uni5FC6" unicode="&#x5fc6;" 
d="M405 754h472v-62q-192 -212 -281 -323q-84 -105 -119 -185q-25 -62 -25 -100q0 -31 19 -56q21 -23 89 -23h224q55 1 79 41q22 44 22 187l68 -20q0 -169 -33 -222q-36 -53 -115 -53h-258q-91 0 -127 36q-38 44 -38 110q0 51 26 115q33 84 128 203q90 117 237 284h-368v68z
M142 620q-6 -153 -41 -282l-60 17q37 127 42 269zM344 648q48 -105 83 -234l-60 -15q-31 120 -78 231zM198 814h71v-910h-71v910z" />
    <glyph glyph-name="uni6000" unicode="&#x6000;" 
d="M380 768h554v-70h-215q-17 -55 -32 -92v-700h-71v550q-90 -156 -229 -280l-44 57q219 192 306 465h-269v70zM750 496q134 -150 212 -270l-60 -42q-77 126 -208 277zM148 620q-6 -155 -55 -288l-59 17q51 130 57 275zM337 646q45 -100 81 -226l-58 -14q-29 113 -77 222z
M193 815h71v-911h-71v911z" />
    <glyph glyph-name="uni6001" unicode="&#x6001;" 
d="M536 819q-5 -47 -19 -107h386v-69h-320q73 -166 372 -259l-38 -62q-332 117 -407 321h-15q-33 -88 -89 -151q-7 -7 -10 -11q62 -43 146 -120l-50 -50q-72 72 -144 129q-97 -72 -280 -121l-28 66q212 54 308 154q40 42 68 104h-328v69h353q17 56 23 114zM214 220
q-36 -155 -101 -270l-62 39q64 112 92 246zM522 271q54 -80 92 -168l-66 -29q-44 105 -89 177zM821 250q72 -111 126 -240l-66 -29q-58 140 -129 247zM390 -79q-101 0 -101 100v217h74v-202q0 -45 49 -45h213q32 0 45 18q18 21 24 124l68 -22q-10 -133 -41 -164
q-28 -26 -83 -26h-248z" />
    <glyph glyph-name="uni6021" unicode="&#x6021;" 
d="M143 619q-6 -156 -44 -289l-58 16q40 130 46 277zM323 667q39 -101 69 -232l-58 -15q-23 115 -64 230zM186 814h71v-914h-71v914zM876 332v-427h-68v69h-300v-70h-67v428h435zM508 42h300v226h-300v-226zM393 471q83 46 208 350l64 -21q-82 -199 -165 -318q155 12 305 38
q-47 82 -97 155l59 29q88 -129 171 -289l-63 -31l-39 79q-188 -34 -431 -52z" />
    <glyph glyph-name="uni6027" unicode="&#x6027;" 
d="M131 620q-3 -146 -34 -286l-59 17q32 129 36 273zM325 645q32 -71 58 -169q52 132 59 279l65 -9q-3 -63 -12 -120h143v187h74v-187h218v-70h-218v-241h203v-71h-203v-244h244v-70h-604v70h286v244h-229v71h229v241h-156q-27 -110 -79 -202l-54 48q17 33 30 63l-50 -13
q-23 93 -57 176zM182 814h73v-910h-73v910z" />
    <glyph glyph-name="uni603B" unicode="&#x603b;" 
d="M185 641h385q62 86 106 187l69 -25q-49 -98 -97 -162h167v-326h-630v326zM743 383v190h-486v-190h486zM308 824q56 -66 108 -149l-61 -30q-49 81 -108 149zM212 217q-39 -158 -108 -272l-61 39q68 111 100 248zM520 275q57 -80 96 -167l-66 -29q-41 98 -93 175zM835 251
q68 -114 117 -246l-66 -29q-54 143 -120 253zM388 -87q-94 0 -94 100v210h73v-195q0 -47 43 -47h220q33 0 46 18q17 21 23 127l69 -22q-10 -135 -41 -167q-27 -24 -84 -24h-255z" />
    <glyph glyph-name="uni604B" unicode="&#x604b;" 
d="M765 586q111 -96 185 -189l-51 -51q-70 93 -183 193zM507 826q19 -50 33 -107h388v-70h-274v-324h-72v324h-163v-326h-72v326h-275v70h391q-16 53 -33 95zM212 225q-35 -159 -97 -271l-62 39q60 109 88 247zM515 297q56 -81 96 -174l-66 -29q-45 103 -98 181zM831 257
q67 -114 118 -247l-66 -29q-55 144 -121 254zM388 -79q-104 0 -104 107v237h73v-222q0 -52 53 -52h218q33 0 49 19q19 22 25 129l68 -22q-12 -139 -42 -169q-27 -27 -87 -27h-253zM289 532q-82 -113 -197 -195l-45 58q112 80 187 185z" />
    <glyph glyph-name="uni6052" unicode="&#x6052;" 
d="M139 612q-4 -149 -35 -286l-63 17q32 128 37 274zM327 652q36 -101 63 -235l-58 -15q-26 131 -59 233zM388 774h555v-69h-555v69zM450 597h440v-488h-440v488zM823 174v148h-306v-148h306zM517 387h306v144h-306v-144zM354 -2h605v-68h-605v68zM187 824h69v-930h-69v930z
" />
    <glyph glyph-name="uni606F" unicode="&#x606f;" 
d="M191 743h220q21 38 31 80l75 -10q-12 -36 -30 -70h330v-489h-626v489zM747 316v84h-486v-84h486zM261 458h486v82h-486v-82zM261 598h486v82h-486v-82zM209 172q-36 -138 -100 -239l-61 39q64 95 93 214zM366 -85q-86 0 -86 83v193h73v-178q0 -33 34 -33h222q34 0 47 16
q19 22 25 118l69 -22q-12 -125 -42 -154q-28 -23 -85 -23h-257zM489 227q78 -75 124 -137l-55 -38q-46 66 -122 142zM812 204q94 -118 147 -211l-57 -40q-53 95 -146 216z" />
    <glyph glyph-name="uni60A6" unicode="&#x60a6;" 
d="M420 606h257q59 100 103 216l69 -24q-43 -108 -99 -192h133v-322h-124v-266q0 -37 33 -37h48q26 0 37 20q14 22 20 136l65 -21q-9 -142 -35 -173q-24 -27 -74 -27h-81q-82 0 -82 87v281h-93q-15 -263 -247 -383l-38 63q205 96 220 320h-112v322zM813 351v189h-325v-189
h325zM505 813q52 -75 91 -150l-61 -32q-44 87 -93 152zM137 620q-5 -152 -37 -283l-57 16q33 129 36 271zM324 645q33 -95 60 -221l-54 -13q-21 107 -56 218zM181 815h70v-917h-70v917z" />
    <glyph glyph-name="uni60C5" unicode="&#x60c5;" 
d="M502 189v-71h317v71h-317zM819 243v75h-317v-75h317zM502 64v-162h-68v474h454v-372q0 -98 -87 -98h-74l-17 63l70 -3q39 0 39 53v45h-317zM626 821h72v-69h232v-58h-232v-70h198v-56h-198v-68h261v-59h-599v20l-37 -9q-31 96 -73 177l51 17q36 -68 63 -146h262v68h-201
v56h201v70h-235v58h235v69zM133 620q-4 -146 -47 -281l-55 15q42 128 48 270zM172 814h70v-910h-70v910z" />
    <glyph glyph-name="uni60DC" unicode="&#x60dc;" 
d="M144 620q-6 -153 -46 -286l-59 17q42 129 48 273zM314 642q36 -115 61 -242l-53 -13q-25 128 -58 240zM181 815h70v-917h-70v917zM389 704h120v108h70v-108h168v108h70v-108h121v-65h-121v-126h143v-68h-594v68h143v126h-120v65zM579 513h168v126h-168v-126zM890 366
v-460h-69v44h-311v-44h-69v460h449zM510 16h311v112h-311v-112zM510 191h311v110h-311v-110z" />
    <glyph glyph-name="uni60E0" unicode="&#x60e0;" 
d="M57 752h407v67h72v-67h407v-62h-407v-57h317v-290h-47q90 -78 135 -131l-53 -37q-20 26 -56 64q-276 -19 -742 -31l-9 64q251 4 383 7v64h-317v290h317v57h-407v62zM740 328l25 15h-229v-62q129 4 245 9zM784 397v67h-248v-67h248zM464 397v67h-248v-67h248zM216 513h248
v65h-248v-65zM536 578v-65h248v65h-248zM212 154q-36 -126 -102 -219l-60 38q67 90 97 194zM373 -84q-88 0 -88 84v175h70v-160q0 -33 39 -33h230q28 0 40 14q15 17 21 96l66 -21q-10 -109 -38 -134q-24 -21 -76 -21h-264zM499 195q73 -66 118 -122l-54 -38q-47 62 -118 127
zM801 188q97 -108 153 -196l-57 -38q-54 88 -150 199z" />
    <glyph glyph-name="uni60F3" unicode="&#x60f3;" 
d="M495 777h384v-496h-384v496zM809 345v84h-244v-84h244zM565 488h244v81h-244v-81zM565 629h244v84h-244v-84zM296 266h-72v268q-65 -121 -160 -222l-27 68q117 105 185 248h-163v66h165v111h72v-111h133v-66h-133v-47q74 -53 159 -125l-40 -60q-67 76 -119 123v-253z
M219 194q-39 -146 -108 -250l-62 39q69 102 99 226zM384 -79q-96 0 -96 100v201h73v-186q0 -45 45 -45h215q32 0 48 16q19 21 25 113l68 -23q-11 -125 -43 -153q-28 -23 -85 -23h-250zM494 241q74 -79 112 -134l-57 -40q-44 67 -111 139zM806 236q100 -127 154 -223l-61 -43
q-57 104 -151 229z" />
    <glyph glyph-name="uni6109" unicode="&#x6109;" 
d="M515 -98l-16 56l44 -2q32 0 32 38v112h-114v-206h-61v545h235v-464q0 -79 -73 -79h-47zM461 159h114v86h-114v-86zM461 299h114v88h-114v-88zM501 591h292v-60h-292v60zM702 427h57v-369h-57v369zM735 -94l-13 59q54 -4 77 -4q35 0 35 46v457h62v-473q0 -85 -76 -85h-85z
M676 808q139 -158 284 -252l-38 -56q-150 101 -273 244q-122 -141 -264 -244l-36 56q152 106 274 252h53zM133 618q-4 -146 -38 -280l-60 17q37 128 41 267zM307 646q40 -99 71 -219l-58 -15q-27 113 -66 217zM177 815h70v-917h-70v917z" />
    </font>
</defs>
</svg>
